<svg xmlns="http://www.w3.org/2000/svg" xmlns:xlink="http://www.w3.org/1999/xlink" id="exportSvg" width="490" height="550"><defs/><g><g><g id="__svelte-dw-svg" clip-path="url(#rect-mask-rf-5mPb8YYYa6IXGMWXIg)"><clipPath id="rect-mask-rf-5mPb8YYYa6IXGMWXIg"><rect x="0" y="0" width="490" height="550"/></clipPath><g id="container-svg container-body-svg datawrapper-3oCBM-1gvfeww-svg"><g id="container-svg container-bodyTop-svg datawrapper-3oCBM-lmtz6e-svg"><g id="container-svg container-bodyCenter-svg datawrapper-3oCBM-1fgvipr-svg"><g id="chart-svg"><rect width="84.5" height="392.453125" transform="translate(38.6875, 89.546875)" fill="rgba(196,196,196,0.14)" style="fill: rgb(196, 196, 196); fill-opacity: 0.14;"/><g id="svg-main-svg" transform="translate(0, 89.54688)"><g id="group-svg"><g id="x-grid-svg"/><g id="y-grid-svg"><g id="y-grid-lines-svg grid-y-svg datawrapper-3oCBM-1mqm0ow-svg"><line x1="0" x2="471.3" y1="0" y2="0" transform="translate(0, 30.01512)" style="fill: none; stroke-width: 1; stroke-linejoin: miter; stroke-linecap: butt; stroke: rgb(231, 231, 231);"/><line x1="0" x2="471.3" y1="0" y2="0" transform="translate(0, 61.25977)" style="fill: none; stroke-width: 1; stroke-linejoin: miter; stroke-linecap: butt; stroke: rgb(231, 231, 231);"/><line x1="0" x2="471.3" y1="0" y2="0" transform="translate(0, 92.50443)" style="fill: none; stroke-width: 1; stroke-linejoin: miter; stroke-linecap: butt; stroke: rgb(231, 231, 231);"/><line x1="0" x2="471.3" y1="0" y2="0" transform="translate(0, 123.74908)" style="fill: none; stroke-width: 1; stroke-linejoin: miter; stroke-linecap: butt; stroke: rgb(231, 231, 231);"/><line x1="0" x2="471.3" y1="0" y2="0" transform="translate(0, 154.99374)" style="fill: none; stroke-width: 1; stroke-linejoin: miter; stroke-linecap: butt; stroke: rgb(231, 231, 231);"/><line x1="0" x2="471.3" y1="0" y2="0" transform="translate(0, 186.2384)" style="fill: none; stroke-width: 1; stroke-linejoin: miter; stroke-linecap: butt; stroke: rgb(231, 231, 231);"/><line x1="0" x2="471.3" y1="0" y2="0" transform="translate(0, 217.48305)" style="fill: none; stroke-width: 1; stroke-linejoin: miter; stroke-linecap: butt; stroke: rgb(231, 231, 231);"/><line x1="0" x2="471.3" y1="0" y2="0" transform="translate(0, 248.72771)" style="fill: none; stroke-width: 1; stroke-linejoin: miter; stroke-linecap: butt; stroke: rgb(231, 231, 231);"/><line x1="0" x2="471.3" y1="0" y2="0" transform="translate(0, 279.97236)" style="fill: none; stroke-width: 1; stroke-linejoin: miter; stroke-linecap: butt; stroke: rgb(231, 231, 231);"/><line x1="0" x2="471.3" y1="0" y2="0" transform="translate(0, 311.21702)" style="fill: none; stroke-width: 1; stroke-linejoin: miter; stroke-linecap: butt; stroke: rgb(231, 231, 231);"/><line x1="0" x2="471.3" y1="0" y2="0" transform="translate(0, 342.46168)" style="fill: none; stroke-width: 1; stroke-linejoin: miter; stroke-linecap: butt; stroke: rgb(231, 231, 231);"/><line x1="0" x2="471.3" y1="0" y2="0" transform="translate(0, 373.70633)" style="fill: none; stroke-width: 1; stroke-linejoin: miter; stroke-linecap: butt; stroke: rgb(231, 231, 231);"/></g></g><g id="area-fills-svg"/><g id="lines-svg"><g id="SPC-svg"><g id="SPC-svg"><path d="M38.652,392.453L123.182,392.453L123.182,367.457L144.314,367.457L144.314,367.457L165.447,367.457L165.447,286.221L186.579,286.221L186.579,286.221L228.844,286.221L228.844,223.732L249.976,223.732L249.976,223.732L271.109,223.732L271.109,123.749L292.241,123.749L292.241,123.749L313.373,123.749L313.373,67.509L376.77,67.509L376.77,67.509L397.903,67.509L397.903,67.509L419.035,67.509L419.035,23.766L461.3,23.766L461.3,23.766" stroke="rgb(250,77,86)" id="SPC" style="fill: none; stroke-width: 1; stroke-linejoin: round; stroke-linecap: round; stroke: rgb(250, 77, 86);"/></g></g><g id="Caltex-svg"><g id="Caltex-svg"><path d="M38.652,386.204L123.182,386.204L123.182,361.208L144.314,361.208L144.314,329.964L165.447,329.964L165.447,279.972L186.579,279.972L186.579,279.972L228.844,279.972L228.844,217.483L249.976,217.483L249.976,92.504L271.109,92.504L271.109,92.504L292.241,92.504L292.241,92.504L313.373,92.504L313.373,30.015L376.77,30.015L376.77,17.517L397.903,17.517L397.903,17.517L419.035,17.517L419.035,17.517L461.3,17.517L461.3,17.517" stroke="rgb(0,157,154)" id="Caltex" style="fill: none; stroke-width: 1; stroke-linejoin: round; stroke-linecap: round; stroke: rgb(0, 157, 154);"/></g></g><g id="Esso-svg"><g id="Esso-svg"><path d="M38.652,386.204L123.182,386.204L123.182,361.208L144.314,361.208L144.314,329.964L165.447,329.964L165.447,279.972L186.579,279.972L186.579,279.972L228.844,279.972L228.844,217.483L249.976,217.483L249.976,117.5L271.109,117.5L271.109,92.504L292.241,92.504L292.241,92.504L313.373,92.504L313.373,61.26L376.77,61.26L376.77,17.517L397.903,17.517L397.903,17.517L419.035,17.517L419.035,17.517L461.3,17.517L461.3,17.517" stroke="rgb(17,146,232)" id="Esso" style="fill: none; stroke-width: 1; stroke-linejoin: round; stroke-linecap: round; stroke: rgb(17, 146, 232);"/></g></g><g id="Shell-svg"><g id="Shell-svg"><path d="M38.652,386.204L123.182,386.204L123.182,361.208L144.314,361.208L144.314,329.964L165.447,329.964L165.447,298.719L186.579,298.719L186.579,298.719L228.844,298.719L228.844,217.483L249.976,217.483L249.976,117.5L271.109,117.5L271.109,92.504L292.241,92.504L292.241,92.504L313.373,92.504L313.373,61.26L376.77,61.26L376.77,17.517L397.903,17.517L397.903,17.517L419.035,17.517L419.035,17.517L461.3,17.517L461.3,17.517" stroke="rgb(165,110,255)" id="Shell" style="fill: none; stroke-width: 1; stroke-linejoin: round; stroke-linecap: round; stroke: rgb(165, 110, 255);"/></g></g><g id="Sinopec-svg"><g id="Sinopec-svg"><path d="M38.652,386.204L123.182,386.204L123.182,361.208L144.314,361.208L144.314,361.208L165.447,361.208L165.447,329.964L186.579,329.964L186.579,279.972L228.844,279.972L228.844,279.972L249.976,279.972L249.976,279.972L271.109,279.972L271.109,117.5L292.241,117.5L292.241,92.504L313.373,92.504L313.373,61.26L376.77,61.26L376.77,61.26L397.903,61.26L397.903,17.517L419.035,17.517L419.035,17.517L461.3,17.517L461.3,17.517" stroke="rgb(0,45,156)" id="Sinopec" style="fill: none; stroke-width: 1; stroke-linejoin: round; stroke-linecap: round; stroke: rgb(0, 45, 156);"/></g></g></g><g id="x-grid-svg"><g id="x-tick-labels-svg date-axis-svg grid-x-svg datawrapper-3oCBM-inx4wh-svg svelte-qac4x9-svg" transform="translate(0, 397.45313)"><text transform="translate(59.78473, 12) translate(-10.53906, 0) translate(10.539064407348633, 0)" style="text-anchor: middle;"><tspan fill="rgb(116, 116, 116)" style="font-family: Roboto; font-weight: 400; font-stretch: 100%; font-size: 12px;" x="0" dominant-baseline="auto" y="0">01</tspan><tspan fill="rgb(116, 116, 116)" style="font-family: Roboto; font-weight: 400; font-stretch: 100%; font-size: 12px;" x="0" dominant-baseline="auto" y="15">Mar</tspan></text><text transform="translate(102.04949, 12) translate(-6.75, 0) translate(6.75, 0)" style="text-anchor: middle;"><tspan fill="rgb(116, 116, 116)" style="font-family: Roboto; font-weight: 400; font-stretch: 100%; font-size: 12px;" x="0" dominant-baseline="auto" y="0">03</tspan></text><text transform="translate(144.31426, 12) translate(-6.87207, 0) translate(6.8720703125, 0)" style="text-anchor: middle;"><tspan fill="rgb(116, 116, 116)" style="font-family: Roboto; font-weight: 400; font-stretch: 100%; font-size: 12px;" x="0" dominant-baseline="auto" y="0">05</tspan></text><text transform="translate(186.57902, 12) translate(-6.87207, 0) translate(6.8720703125, 0)" style="text-anchor: middle;"><tspan fill="rgb(116, 116, 116)" style="font-family: Roboto; font-weight: 400; font-stretch: 100%; font-size: 12px;" x="0" dominant-baseline="auto" y="0">07</tspan></text><text transform="translate(228.84379, 12) translate(-6.75, 0) translate(6.75, 0)" style="text-anchor: middle;"><tspan fill="rgb(116, 116, 116)" style="font-family: Roboto; font-weight: 400; font-stretch: 100%; font-size: 12px;" x="0" dominant-baseline="auto" y="0">09</tspan></text><text transform="translate(271.10855, 12) translate(-6.75, 0) translate(6.75, 0)" style="text-anchor: middle;"><tspan fill="rgb(116, 116, 116)" style="font-family: Roboto; font-weight: 400; font-stretch: 100%; font-size: 12px;" x="0" dominant-baseline="auto" y="0">11</tspan></text><text transform="translate(313.37332, 12) translate(-6.75, 0) translate(6.75, 0)" style="text-anchor: middle;"><tspan fill="rgb(116, 116, 116)" style="font-family: Roboto; font-weight: 400; font-stretch: 100%; font-size: 12px;" x="0" dominant-baseline="auto" y="0">13</tspan></text><text transform="translate(355.63809, 12) translate(-6.87207, 0) translate(6.8720703125, 0)" style="text-anchor: middle;"><tspan fill="rgb(116, 116, 116)" style="font-family: Roboto; font-weight: 400; font-stretch: 100%; font-size: 12px;" x="0" dominant-baseline="auto" y="0">15</tspan></text><text transform="translate(397.90285, 12) translate(-6.87207, 0) translate(6.8720703125, 0)" style="text-anchor: middle;"><tspan fill="rgb(116, 116, 116)" style="font-family: Roboto; font-weight: 400; font-stretch: 100%; font-size: 12px;" x="0" dominant-baseline="auto" y="0">17</tspan></text><text transform="translate(440.16762, 12) translate(-6.75, 0) translate(6.75, 0)" style="text-anchor: middle;"><tspan fill="rgb(116, 116, 116)" style="font-family: Roboto; font-weight: 400; font-stretch: 100%; font-size: 12px;" x="0" dominant-baseline="auto" y="0">19</tspan></text><g id="highlighted-ticks-svg"/></g></g><g id="y-grid-svg"><g id="y-tick-labels-svg number-axis-svg grid-y-svg datawrapper-3oCBM-1fzbge6-svg"><text transform="translate(0, 368.70633) translate(0, 0)"><tspan fill="rgb(162, 162, 162)" style="font-family: Roboto; font-weight: 400; font-stretch: 100%; font-size: 12px;" x="0" dominant-baseline="auto" y="0">2.90</tspan></text><text transform="translate(0, 337.46168) translate(0, 0)"><tspan fill="rgb(162, 162, 162)" style="font-family: Roboto; font-weight: 400; font-stretch: 100%; font-size: 12px;" x="0" dominant-baseline="auto" y="0">2.95</tspan></text><text transform="translate(0, 306.21702) translate(0, 0)"><tspan fill="rgb(162, 162, 162)" style="font-family: Roboto; font-weight: 400; font-stretch: 100%; font-size: 12px;" x="0" dominant-baseline="auto" y="0">3.00</tspan></text><text transform="translate(0, 274.97236) translate(0, 0)"><tspan fill="rgb(162, 162, 162)" style="font-family: Roboto; font-weight: 400; font-stretch: 100%; font-size: 12px;" x="0" dominant-baseline="auto" y="0">3.05</tspan></text><text transform="translate(0, 243.72771) translate(0, 0)"><tspan fill="rgb(162, 162, 162)" style="font-family: Roboto; font-weight: 400; font-stretch: 100%; font-size: 12px;" x="0" dominant-baseline="auto" y="0">3.10</tspan></text><text transform="translate(0, 212.48305) translate(0, 0)"><tspan fill="rgb(162, 162, 162)" style="font-family: Roboto; font-weight: 400; font-stretch: 100%; font-size: 12px;" x="0" dominant-baseline="auto" y="0">3.15</tspan></text><text transform="translate(0, 181.2384) translate(0, 0)"><tspan fill="rgb(162, 162, 162)" style="font-family: Roboto; font-weight: 400; font-stretch: 100%; font-size: 12px;" x="0" dominant-baseline="auto" y="0">3.20</tspan></text><text transform="translate(0, 149.99374) translate(0, 0)"><tspan fill="rgb(162, 162, 162)" style="font-family: Roboto; font-weight: 400; font-stretch: 100%; font-size: 12px;" x="0" dominant-baseline="auto" y="0">3.25</tspan></text><text transform="translate(0, 118.74908) translate(0, 0)"><tspan fill="rgb(162, 162, 162)" style="font-family: Roboto; font-weight: 400; font-stretch: 100%; font-size: 12px;" x="0" dominant-baseline="auto" y="0">3.30</tspan></text><text transform="translate(0, 87.50443) translate(0, 0)"><tspan fill="rgb(162, 162, 162)" style="font-family: Roboto; font-weight: 400; font-stretch: 100%; font-size: 12px;" x="0" dominant-baseline="auto" y="0">3.35</tspan></text><text transform="translate(0, 56.25977) translate(0, 0)"><tspan fill="rgb(162, 162, 162)" style="font-family: Roboto; font-weight: 400; font-stretch: 100%; font-size: 12px;" x="0" dominant-baseline="auto" y="0">3.40</tspan></text><text transform="translate(0, 25.01512) translate(0, 0)"><tspan fill="rgb(162, 162, 162)" style="font-family: Roboto; font-weight: 400; font-stretch: 100%; font-size: 12px;" x="0" dominant-baseline="auto" y="0">3.45</tspan></text></g></g><g id="value-labels-svg"><g id="SPC-svg"><g id="2.91-svg"><text transform="translate(-11.703125, 0) translate(156.0173828125, 372.9574003432188)" style="text-anchor: middle;"><tspan x="0" y="10.8" style="font-family: Roboto; font-weight: 400; font-stretch: 100%; font-size: 12px; stroke: rgb(255, 255, 255); stroke-width: 2; stroke-linejoin: miter; stroke-linecap: butt;">2.91</tspan></text><text transform="translate(-11.70313, 0) translate(156.0173828125, 372.9574003432188)" style="text-anchor: middle;"><tspan fill="rgb(221, 47, 65)" style="font-family: Roboto; font-weight: 400; font-stretch: 100%; font-size: 12px;" x="0" y="10.8">2.91</tspan></text></g><g id="3.14-svg"><text transform="translate(-11.826171875, 0) translate(261.80234375, 229.23198356672683)" style="text-anchor: middle;"><tspan x="0" y="10.8" style="font-family: Roboto; font-weight: 400; font-stretch: 100%; font-size: 12px; stroke: rgb(255, 255, 255); stroke-width: 2; stroke-linejoin: miter; stroke-linecap: butt;">3.14</tspan></text><text transform="translate(-11.82617, 0) translate(261.80234375, 229.23198356672683)" style="text-anchor: middle;"><tspan fill="rgb(221, 47, 65)" style="font-family: Roboto; font-weight: 400; font-stretch: 100%; font-size: 12px;" x="0" y="10.8">3.14</tspan></text></g><g id="3.39-svg"><text transform="translate(325.73660269563436, 75.08493365022554)"><tspan x="0" y="3.6000000000000014" style="font-family: Roboto; font-weight: 400; font-stretch: 100%; font-size: 12px; stroke: rgb(255, 255, 255); stroke-width: 2; stroke-linejoin: miter; stroke-linecap: butt;">3.39</tspan></text><text transform="translate(325.73660269563436, 75.08493365022554)"><tspan fill="rgb(221, 47, 65)" style="font-family: Roboto; font-weight: 400; font-stretch: 100%; font-size: 12px;" x="0" y="3.6000000000000014">3.39</tspan></text></g></g><g id="Caltex-svg"><g id="2.92-svg"><text transform="translate(-23.65234375, 0) translate(141.33421875, 361.2084691790236)" style="text-anchor: end;"><tspan x="0" y="3.6000000000000014" style="font-family: Roboto; font-weight: 400; font-stretch: 100%; font-size: 12px; stroke: rgb(255, 255, 255); stroke-width: 2; stroke-linejoin: miter; stroke-linecap: butt;">2.92</tspan></text><text transform="translate(-23.65234, 0) translate(141.33421875, 361.2084691790236)" style="text-anchor: end;"><tspan fill="rgb(0, 135, 133)" style="font-family: Roboto; font-weight: 400; font-stretch: 100%; font-size: 12px;" x="0" y="3.6000000000000014">2.92</tspan></text></g><g id="3.05-svg"><text transform="translate(-11.826171875, 0) translate(198.40519531249998, 274.4723640444847)" style="text-anchor: middle;"><tspan x="0" dominant-baseline="alphabetic" y="0" style="font-family: Roboto; font-weight: 400; font-stretch: 100%; font-size: 12px; stroke: rgb(255, 255, 255); stroke-width: 2; stroke-linejoin: miter; stroke-linecap: butt;">3.05</tspan></text><text transform="translate(-11.82617, 0) translate(198.40519531249998, 274.4723640444847)" style="text-anchor: middle;"><tspan fill="rgb(0, 135, 133)" style="font-family: Roboto; font-weight: 400; font-stretch: 100%; font-size: 12px;" x="0" dominant-baseline="alphabetic" y="0">3.05</tspan></text></g><g id="3.35-svg"><text transform="translate(-11.826171875, 0) translate(304.067109375, 87.0044291186255)" style="text-anchor: middle;"><tspan x="0" dominant-baseline="alphabetic" y="0" style="font-family: Roboto; font-weight: 400; font-stretch: 100%; font-size: 12px; stroke: rgb(255, 255, 255); stroke-width: 2; stroke-linejoin: miter; stroke-linecap: butt;">3.35</tspan></text><text transform="translate(-11.82617, 0) translate(304.067109375, 87.0044291186255)" style="text-anchor: middle;"><tspan fill="rgb(0, 135, 133)" style="font-family: Roboto; font-weight: 400; font-stretch: 100%; font-size: 12px;" x="0" dominant-baseline="alphabetic" y="0">3.35</tspan></text></g><g id="3.45-svg"><text transform="translate(-23.65234375, 0) translate(331.5256640625, 30.015117476672415)" style="text-anchor: end;"><tspan x="0" y="3.6000000000000014" style="font-family: Roboto; font-weight: 400; font-stretch: 100%; font-size: 12px; stroke: rgb(255, 255, 255); stroke-width: 2; stroke-linejoin: miter; stroke-linecap: butt;">3.45</tspan></text><text transform="translate(-23.65234, 0) translate(331.5256640625, 30.015117476672415)" style="text-anchor: end;"><tspan fill="rgb(0, 135, 133)" style="font-family: Roboto; font-weight: 400; font-stretch: 100%; font-size: 12px;" x="0" y="3.6000000000000014">3.45</tspan></text></g></g><g id="Esso-svg"><g id="3.15-svg"><text transform="translate(-23.65234375, 0) translate(246.9961328125, 217.48305240253165)" style="text-anchor: end;"><tspan x="0" y="3.6000000000000014" style="font-family: Roboto; font-weight: 400; font-stretch: 100%; font-size: 12px; stroke: rgb(255, 255, 255); stroke-width: 2; stroke-linejoin: miter; stroke-linecap: butt;">3.15</tspan></text><text transform="translate(-23.65234, 0) translate(246.9961328125, 217.48305240253165)" style="text-anchor: end;"><tspan fill="rgb(0, 126, 210)" style="font-family: Roboto; font-weight: 400; font-stretch: 100%; font-size: 12px;" x="0" y="3.6000000000000014">3.15</tspan></text></g><g id="3.47-svg"><text transform="translate(-23.65234375, 0) translate(394.9228125, 17.517255148281805)" style="text-anchor: end;"><tspan x="0" y="3.6000000000000014" style="font-family: Roboto; font-weight: 400; font-stretch: 100%; font-size: 12px; stroke: rgb(255, 255, 255); stroke-width: 2; stroke-linejoin: miter; stroke-linecap: butt;">3.47</tspan></text><text transform="translate(-23.65234, 0) translate(394.9228125, 17.517255148281805)" style="text-anchor: end;"><tspan fill="rgb(0, 126, 210)" style="font-family: Roboto; font-weight: 400; font-stretch: 100%; font-size: 12px;" x="0" y="3.6000000000000014">3.47</tspan></text></g></g><g id="Shell-svg"><g id="3.02-svg"><text transform="translate(198.94230582063432, 306.29538672545175)"><tspan x="0" y="3.6000000000000014" style="font-family: Roboto; font-weight: 400; font-stretch: 100%; font-size: 12px; stroke: rgb(255, 255, 255); stroke-width: 2; stroke-linejoin: miter; stroke-linecap: butt;">3.02</tspan></text><text transform="translate(198.94230582063432, 306.29538672545175)"><tspan fill="rgb(143, 90, 233)" style="font-family: Roboto; font-weight: 400; font-stretch: 100%; font-size: 12px;" x="0" y="3.6000000000000014">3.02</tspan></text></g></g></g><g id="inner-value-labels-svg"><g id="SPC-svg"><g id="3.46-svg"><text transform="translate(466.3, 45.70379757767246)"><tspan x="0" y="3.6000000000000014" style="font-family: Roboto; font-weight: 400; font-stretch: 100%; font-size: 12px; stroke: rgb(255, 255, 255); stroke-width: 2; stroke-linejoin: miter; stroke-linecap: butt;">3.46</tspan></text><text transform="translate(466.3, 45.70379757767246)"><tspan fill="rgb(221, 47, 65)" style="font-family: Roboto; font-weight: 400; font-stretch: 100%; font-size: 12px;" x="0" y="3.6000000000000014">3.46</tspan></text></g></g><g id="Caltex-svg"><g id="3.47-svg"><text transform="translate(466.3, 31.699172424450843)"><tspan x="0" y="3.6000000000000014" style="font-family: Roboto; font-weight: 400; font-stretch: 100%; font-size: 12px; stroke: rgb(255, 255, 255); stroke-width: 2; stroke-linejoin: miter; stroke-linecap: butt;">3.47</tspan></text><text transform="translate(466.3, 31.699172424450843)"><tspan fill="rgb(0, 135, 133)" style="font-family: Roboto; font-weight: 400; font-stretch: 100%; font-size: 12px;" x="0" y="3.6000000000000014">3.47</tspan></text></g></g><g id="Esso-svg"><g id="3.47-svg"><text transform="translate(466.3, 19.153924100493366)"><tspan x="0" y="3.6000000000000014" style="font-family: Roboto; font-weight: 400; font-stretch: 100%; font-size: 12px; stroke: rgb(255, 255, 255); stroke-width: 2; stroke-linejoin: miter; stroke-linecap: butt;">3.47</tspan></text><text transform="translate(466.3, 19.153924100493366)"><tspan fill="rgb(0, 126, 210)" style="font-family: Roboto; font-weight: 400; font-stretch: 100%; font-size: 12px;" x="0" y="3.6000000000000014">3.47</tspan></text></g></g><g id="Shell-svg"><g id="3.47-svg"><text transform="translate(466.3, 6.100161747992518)"><tspan x="0" y="3.6000000000000014" style="font-family: Roboto; font-weight: 400; font-stretch: 100%; font-size: 12px; stroke: rgb(255, 255, 255); stroke-width: 2; stroke-linejoin: miter; stroke-linecap: butt;">3.47</tspan></text><text transform="translate(466.3, 6.100161747992518)"><tspan fill="rgb(143, 90, 233)" style="font-family: Roboto; font-weight: 400; font-stretch: 100%; font-size: 12px;" x="0" y="3.6000000000000014">3.47</tspan></text></g></g><g id="Sinopec-svg"><g id="3.47-svg"><text transform="translate(466.3, -8.821848945004703)"><tspan x="0" y="3.6000000000000014" style="font-family: Roboto; font-weight: 400; font-stretch: 100%; font-size: 12px; stroke: rgb(255, 255, 255); stroke-width: 2; stroke-linejoin: miter; stroke-linecap: butt;">3.47</tspan></text><text transform="translate(466.3, -8.821848945004703)"><tspan fill="rgb(0, 45, 156)" style="font-family: Roboto; font-weight: 400; font-stretch: 100%; font-size: 12px;" x="0" y="3.6000000000000014">3.47</tspan></text></g></g></g></g></g><g id="legend-color-svg svelte-gkg0al-svg" transform="translate(0, 64.15625)"><line x1="0.5" x2="15.5" y1="7" y2="7" style="fill: none; stroke-width: 1; stroke-linejoin: miter; stroke-linecap: round; stroke: rgb(165, 110, 255);"/></g><text transform="translate(19, 63.75)"><tspan fill="rgb(24,24,24)" x="0" y="12" style="font-family: Roboto; font-weight: 400; font-stretch: 100%; font-size: 12px;">Shell</tspan></text><g id="legend-color-svg svelte-gkg0al-svg" transform="translate(54.9375, 64.15625)"><line x1="0.5" x2="15.5" y1="7" y2="7" style="fill: none; stroke-width: 1; stroke-linejoin: miter; stroke-linecap: round; stroke: rgb(0, 157, 154);"/></g><text transform="translate(73.9375, 63.75)"><tspan fill="rgb(24,24,24)" x="0" y="12" style="font-family: Roboto; font-weight: 400; font-stretch: 100%; font-size: 12px;">Caltex</tspan></text><g id="legend-color-svg svelte-gkg0al-svg" transform="translate(117.4375, 64.15625)"><line x1="0.5" x2="15.5" y1="7" y2="7" style="fill: none; stroke-width: 1; stroke-linejoin: miter; stroke-linecap: round; stroke: rgb(250, 77, 86);"/></g><text transform="translate(136.4375, 63.75)"><tspan fill="rgb(24,24,24)" x="0" y="12" style="font-family: Roboto; font-weight: 400; font-stretch: 100%; font-size: 12px;">SPC</tspan></text><g id="legend-color-svg svelte-gkg0al-svg" transform="translate(168.95313, 64.15625)"><line x1="0.5" x2="15.5" y1="7" y2="7" style="fill: none; stroke-width: 1; stroke-linejoin: miter; stroke-linecap: round; stroke: rgb(17, 146, 232);"/></g><text transform="translate(187.953125, 63.75)"><tspan fill="rgb(24,24,24)" x="0" y="12" style="font-family: Roboto; font-weight: 400; font-stretch: 100%; font-size: 12px;">Esso</tspan></text><g id="legend-color-svg svelte-gkg0al-svg" transform="translate(224.01563, 64.15625)"><line x1="0.5" x2="15.5" y1="7" y2="7" style="fill: none; stroke-width: 1; stroke-linejoin: miter; stroke-linecap: round; stroke: rgb(0, 45, 156);"/></g><text transform="translate(243.015625, 63.75)"><tspan fill="rgb(24,24,24)" x="0" y="12" style="font-family: Roboto; font-weight: 400; font-stretch: 100%; font-size: 12px;">Sinopec</tspan></text><text transform="translate(113.953125, 282.546875)" style="text-anchor: end;"><tspan fill="rgb(169,124,85)" x="0" y="12" style="font-family: Roboto; font-weight: 400; font-stretch: 100%; font-size: 12px;">and Iran</tspan><tspan fill="rgb(169,124,85)" x="0" y="26.390625" style="font-family: Roboto; font-weight: 400; font-stretch: 100%; font-size: 12px;">shuts the</tspan><tspan fill="rgb(169,124,85)" x="0" y="40.78125" style="font-family: Roboto; font-weight: 400; font-stretch: 100%; font-size: 12px;">Strait of</tspan><tspan fill="rgb(169,124,85)" x="0" y="55.171875" style="font-family: Roboto; font-weight: 400; font-stretch: 100%; font-size: 12px;">Hormuz</tspan><tspan fill="rgb(169,124,85)" x="0" y="69.5625" style="font-family: Roboto; font-weight: 400; font-stretch: 100%; font-size: 12px;">in days</tspan></text><text transform="translate(48, 229.546875)"><tspan fill="rgb(169,124,85)" x="0" y="12" style="font-family: Roboto; font-weight: 400; font-stretch: 100%; font-size: 12px;">War </tspan><tspan fill="rgb(169,124,85)" x="0" y="26.390625" style="font-family: Roboto; font-weight: 400; font-stretch: 100%; font-size: 12px;">erupts... </tspan></text><g id="tooltip-layer-svg" transform="translate(0, 89.54688)"><g id="group-svg"/></g></g><g id="container-svg container-header-svg datawrapper-3oCBM-xp3kt5-svg"><text transform="translate(0, 0)"><tspan fill="rgb(0,0,0)" x="0" y="22" style="font-family: Roboto; font-weight: 700; font-stretch: 100%; font-size: 22px;">But took just 18 days in the wake of the Iran war</tspan></text><text transform="translate(0, 35)"><tspan fill="rgb(24,24,24)" x="0" y="14" style="font-family: Roboto; font-weight: 400; font-stretch: 100%; font-size: 14px;">95-octane prices following the Feb 28, 2026 strikes on Iran, in S$ per litre</tspan></text></g></g></g><g id="container-svg container-footer-svg datawrapper-3oCBM-1la8dcw-svg"><text transform="translate(0, 537)"><tspan fill="rgb(136,136,136)" x="0" y="11" style="font-family: Roboto; font-weight: 400; font-stretch: 100%; font-size: 11px;">Chart:</tspan><tspan fill="rgb(136,136,136)" dx="2.734375" style="font-family: Roboto; font-weight: 400; font-stretch: 100%; font-size: 11px;">Wong Pei Ting</tspan><tspan fill="rgb(136,136,136)" dx="2.739" style="font-family: Roboto; font-weight: 400; font-stretch: 100%; font-size: 11px;">•</tspan><tspan fill="rgb(136,136,136)" dx="2.739" style="font-family: Roboto; font-weight: 400; font-stretch: 100%; font-size: 11px;">Source:</tspan><tspan fill="rgb(136,136,136)" dx="2.734375" style="font-family: Roboto; font-weight: 400; font-stretch: 100%; font-size: 11px;">Motorist.sg</tspan><tspan fill="rgb(136,136,136)" dx="2.739" style="font-family: Roboto; font-weight: 400; font-stretch: 100%; font-size: 11px;">•</tspan><tspan fill="rgb(136,136,136)" dx="2.739" style="font-family: Roboto; font-weight: 400; font-stretch: 100%; font-size: 11px;">Created with</tspan><tspan fill="rgb(136,136,136)" dx="2.734375" style="font-family: Roboto; font-weight: 400; font-stretch: 100%; font-size: 11px;">Datawrapper</tspan></text></g></g></g></g></g></svg>