<svg xmlns="http://www.w3.org/2000/svg" xmlns:xlink="http://www.w3.org/1999/xlink" id="exportSvg" width="375" height="550"><defs/><g><g><g id="__svelte-dw-svg" clip-path="url(#rect-mask-0Eq8HjP_Nupuey6yG_9g7)"><clipPath id="rect-mask-0Eq8HjP_Nupuey6yG_9g7"><rect x="0" y="0" width="375" height="540"/></clipPath><g id="container-svg container-body-svg datawrapper-3oCBM-1gvfeww-svg"><g id="container-svg container-bodyTop-svg datawrapper-3oCBM-lmtz6e-svg"><g id="container-svg container-bodyCenter-svg datawrapper-3oCBM-1fgvipr-svg"><g id="chart-svg"><rect width="61.5" height="270.34375" transform="translate(38.6875, 142.640625)" fill="rgba(196,196,196,0.14)" style="fill: rgb(196, 196, 196); fill-opacity: 0.14;"/><g id="svg-main-svg" transform="translate(0, 131.54688)"><g id="group-svg" transform="translate(0, 11.09386)"><g id="x-grid-svg"/><g id="y-grid-svg"><g id="y-grid-lines-svg grid-y-svg datawrapper-3oCBM-1mqm0ow-svg"><line x1="0" x2="356.3" y1="0" y2="0" transform="translate(0, 4.90608)" style="fill: none; stroke-width: 1; stroke-linejoin: miter; stroke-linecap: butt; stroke: rgb(231, 231, 231);"/><line x1="0" x2="356.3" y1="0" y2="0" transform="translate(0, 46.93107)" style="fill: none; stroke-width: 1; stroke-linejoin: miter; stroke-linecap: butt; stroke: rgb(231, 231, 231);"/><line x1="0" x2="356.3" y1="0" y2="0" transform="translate(0, 88.95606)" style="fill: none; stroke-width: 1; stroke-linejoin: miter; stroke-linecap: butt; stroke: rgb(231, 231, 231);"/><line x1="0" x2="356.3" y1="0" y2="0" transform="translate(0, 130.98106)" style="fill: none; stroke-width: 1; stroke-linejoin: miter; stroke-linecap: butt; stroke: rgb(231, 231, 231);"/><line x1="0" x2="356.3" y1="0" y2="0" transform="translate(0, 173.00605)" style="fill: none; stroke-width: 1; stroke-linejoin: miter; stroke-linecap: butt; stroke: rgb(231, 231, 231);"/><line x1="0" x2="356.3" y1="0" y2="0" transform="translate(0, 215.03104)" style="fill: none; stroke-width: 1; stroke-linejoin: miter; stroke-linecap: butt; stroke: rgb(231, 231, 231);"/><line x1="0" x2="356.3" y1="0" y2="0" transform="translate(0, 257.05603)" style="fill: none; stroke-width: 1; stroke-linejoin: miter; stroke-linecap: butt; stroke: rgb(231, 231, 231);"/></g></g><g id="area-fills-svg"/><g id="lines-svg"><g id="SPC-svg"><g id="SPC-svg"><path d="M38.652,269.664L100.182,269.664L100.182,252.854L115.564,252.854L115.564,252.854L130.947,252.854L130.947,198.221L146.329,198.221L146.329,198.221L177.094,198.221L177.094,156.196L192.476,156.196L192.476,156.196L207.859,156.196L207.859,88.956L223.241,88.956L223.241,88.956L238.623,88.956L238.623,51.134L284.77,51.134L284.77,51.134L300.153,51.134L300.153,51.134L315.535,51.134L315.535,21.716L346.3,21.716L346.3,21.716" stroke="rgb(250,77,86)" id="SPC" style="fill: none; stroke-width: 1; stroke-linejoin: round; stroke-linecap: round; stroke: rgb(250, 77, 86);"/></g></g><g id="Caltex-svg"><g id="Caltex-svg"><path d="M38.652,265.461L100.182,265.461L100.182,248.651L115.564,248.651L115.564,227.639L130.947,227.639L130.947,194.019L146.329,194.019L146.329,194.019L177.094,194.019L177.094,151.994L192.476,151.994L192.476,67.944L207.859,67.944L207.859,67.944L223.241,67.944L223.241,67.944L238.623,67.944L238.623,25.919L284.77,25.919L284.77,17.514L300.153,17.514L300.153,17.514L315.535,17.514L315.535,17.514L346.3,17.514L346.3,17.514" stroke="rgb(0,157,154)" id="Caltex" style="fill: none; stroke-width: 1; stroke-linejoin: round; stroke-linecap: round; stroke: rgb(0, 157, 154);"/></g></g><g id="Esso-svg"><g id="Esso-svg"><path d="M38.652,265.461L100.182,265.461L100.182,248.651L115.564,248.651L115.564,227.639L130.947,227.639L130.947,194.019L146.329,194.019L146.329,194.019L177.094,194.019L177.094,151.994L192.476,151.994L192.476,84.754L207.859,84.754L207.859,67.944L223.241,67.944L223.241,67.944L238.623,67.944L238.623,46.931L284.77,46.931L284.77,17.514L300.153,17.514L300.153,17.514L315.535,17.514L315.535,17.514L346.3,17.514L346.3,17.514" stroke="rgb(17,146,232)" id="Esso" style="fill: none; stroke-width: 1; stroke-linejoin: round; stroke-linecap: round; stroke: rgb(17, 146, 232);"/></g></g><g id="Shell-svg"><g id="Shell-svg"><path d="M38.652,265.461L100.182,265.461L100.182,248.651L115.564,248.651L115.564,227.639L130.947,227.639L130.947,206.626L146.329,206.626L146.329,206.626L177.094,206.626L177.094,151.994L192.476,151.994L192.476,84.754L207.859,84.754L207.859,67.944L223.241,67.944L223.241,67.944L238.623,67.944L238.623,46.931L284.77,46.931L284.77,17.514L300.153,17.514L300.153,17.514L315.535,17.514L315.535,17.514L346.3,17.514L346.3,17.514" stroke="rgb(165,110,255)" id="Shell" style="fill: none; stroke-width: 1; stroke-linejoin: round; stroke-linecap: round; stroke: rgb(165, 110, 255);"/></g></g><g id="Sinopec-svg"><g id="Sinopec-svg"><path d="M38.652,265.461L100.182,265.461L100.182,248.651L115.564,248.651L115.564,248.651L130.947,248.651L130.947,227.639L146.329,227.639L146.329,194.019L177.094,194.019L177.094,194.019L192.476,194.019L192.476,194.019L207.859,194.019L207.859,84.754L223.241,84.754L223.241,67.944L238.623,67.944L238.623,46.931L284.77,46.931L284.77,46.931L300.153,46.931L300.153,17.514L315.535,17.514L315.535,17.514L346.3,17.514L346.3,17.514" stroke="rgb(0,45,156)" id="Sinopec" style="fill: none; stroke-width: 1; stroke-linejoin: round; stroke-linecap: round; stroke: rgb(0, 45, 156);"/></g></g></g><g id="x-grid-svg"><g id="x-tick-labels-svg date-axis-svg grid-x-svg datawrapper-3oCBM-inx4wh-svg svelte-qac4x9-svg" transform="translate(0, 275.35926)"><text transform="translate(54.03473, 12) translate(-10.53906, 0) translate(10.539064407348633, 0)" style="text-anchor: middle;"><tspan fill="rgb(116, 116, 116)" style="font-family: Roboto; font-weight: 400; font-stretch: 100%; font-size: 12px;" x="0" dominant-baseline="auto" y="0">01</tspan><tspan fill="rgb(116, 116, 116)" style="font-family: Roboto; font-weight: 400; font-stretch: 100%; font-size: 12px;" x="0" dominant-baseline="auto" y="15">Mar</tspan></text><text transform="translate(161.71141, 12) translate(-6.87207, 0) translate(6.8720703125, 0)" style="text-anchor: middle;"><tspan fill="rgb(116, 116, 116)" style="font-family: Roboto; font-weight: 400; font-stretch: 100%; font-size: 12px;" x="0" dominant-baseline="auto" y="0">08</tspan></text><text transform="translate(269.38809, 12) translate(-6.87207, 0) translate(6.8720703125, 0)" style="text-anchor: middle;"><tspan fill="rgb(116, 116, 116)" style="font-family: Roboto; font-weight: 400; font-stretch: 100%; font-size: 12px;" x="0" dominant-baseline="auto" y="0">15</tspan></text><g id="highlighted-ticks-svg"/></g></g><g id="y-grid-svg"><g id="y-tick-labels-svg number-axis-svg grid-y-svg datawrapper-3oCBM-1fzbge6-svg"><text transform="translate(0, 252.05603) translate(0, 0)"><tspan fill="rgb(162, 162, 162)" style="font-family: Roboto; font-weight: 400; font-stretch: 100%; font-size: 12px;" x="0" dominant-baseline="auto" y="0">2.90</tspan></text><text transform="translate(0, 210.03104) translate(0, 0)"><tspan fill="rgb(162, 162, 162)" style="font-family: Roboto; font-weight: 400; font-stretch: 100%; font-size: 12px;" x="0" dominant-baseline="auto" y="0">3.00</tspan></text><text transform="translate(0, 168.00605) translate(0, 0)"><tspan fill="rgb(162, 162, 162)" style="font-family: Roboto; font-weight: 400; font-stretch: 100%; font-size: 12px;" x="0" dominant-baseline="auto" y="0">3.10</tspan></text><text transform="translate(0, 125.98106) translate(0, 0)"><tspan fill="rgb(162, 162, 162)" style="font-family: Roboto; font-weight: 400; font-stretch: 100%; font-size: 12px;" x="0" dominant-baseline="auto" y="0">3.20</tspan></text><text transform="translate(0, 83.95606) translate(0, 0)"><tspan fill="rgb(162, 162, 162)" style="font-family: Roboto; font-weight: 400; font-stretch: 100%; font-size: 12px;" x="0" dominant-baseline="auto" y="0">3.30</tspan></text><text transform="translate(0, 41.93107) translate(0, 0)"><tspan fill="rgb(162, 162, 162)" style="font-family: Roboto; font-weight: 400; font-stretch: 100%; font-size: 12px;" x="0" dominant-baseline="auto" y="0">3.40</tspan></text><text transform="translate(0, -0.09392) translate(0, 0)"><tspan fill="rgb(162, 162, 162)" style="font-family: Roboto; font-weight: 400; font-stretch: 100%; font-size: 12px;" x="0" dominant-baseline="auto" y="0">3.50</tspan></text></g></g><g id="value-labels-svg"><g id="SPC-svg"><g id="2.91-svg"><text transform="translate(-11.703125, 0) translate(127.2673828125, 258.3535298660775)" style="text-anchor: middle;"><tspan x="0" y="10.8" style="font-family: Roboto; font-weight: 400; font-stretch: 100%; font-size: 12px; stroke: rgb(255, 255, 255); stroke-width: 2; stroke-linejoin: miter; stroke-linecap: butt;">2.91</tspan></text><text transform="translate(-11.70313, 0) translate(127.2673828125, 258.3535298660775)" style="text-anchor: middle;"><tspan fill="rgb(221, 47, 65)" style="font-family: Roboto; font-weight: 400; font-stretch: 100%; font-size: 12px;" x="0" y="10.8">2.91</tspan></text></g><g id="3.14-svg"><text transform="translate(-11.826171875, 0) translate(204.30234375, 161.6960502281478)" style="text-anchor: middle;"><tspan x="0" y="10.8" style="font-family: Roboto; font-weight: 400; font-stretch: 100%; font-size: 12px; stroke: rgb(255, 255, 255); stroke-width: 2; stroke-linejoin: miter; stroke-linecap: butt;">3.14</tspan></text><text transform="translate(-11.82617, 0) translate(204.30234375, 161.6960502281478)" style="text-anchor: middle;"><tspan fill="rgb(221, 47, 65)" style="font-family: Roboto; font-weight: 400; font-stretch: 100%; font-size: 12px;" x="0" y="10.8">3.14</tspan></text></g><g id="3.39-svg"><text transform="translate(250.98660269563436, 58.709801549214184)"><tspan x="0" y="3.6000000000000014" style="font-family: Roboto; font-weight: 400; font-stretch: 100%; font-size: 12px; stroke: rgb(255, 255, 255); stroke-width: 2; stroke-linejoin: miter; stroke-linecap: butt;">3.39</tspan></text><text transform="translate(250.98660269563436, 58.709801549214184)"><tspan fill="rgb(221, 47, 65)" style="font-family: Roboto; font-weight: 400; font-stretch: 100%; font-size: 12px;" x="0" y="3.6000000000000014">3.39</tspan></text></g></g><g id="Caltex-svg"><g id="3.05-svg"><text transform="translate(-11.826171875, 0) translate(158.15519531249998, 188.51854226038134)" style="text-anchor: middle;"><tspan x="0" dominant-baseline="alphabetic" y="0" style="font-family: Roboto; font-weight: 400; font-stretch: 100%; font-size: 12px; stroke: rgb(255, 255, 255); stroke-width: 2; stroke-linejoin: miter; stroke-linecap: butt;">3.05</tspan></text><text transform="translate(-11.82617, 0) translate(158.15519531249998, 188.51854226038134)" style="text-anchor: middle;"><tspan fill="rgb(0, 135, 133)" style="font-family: Roboto; font-weight: 400; font-stretch: 100%; font-size: 12px;" x="0" dominant-baseline="alphabetic" y="0">3.05</tspan></text></g><g id="3.35-svg"><text transform="translate(-23.65234375, 0) translate(210.628515625, 67.94356881960333)" style="text-anchor: end;"><tspan x="0" y="3.6000000000000014" style="font-family: Roboto; font-weight: 400; font-stretch: 100%; font-size: 12px; stroke: rgb(255, 255, 255); stroke-width: 2; stroke-linejoin: miter; stroke-linecap: butt;">3.35</tspan></text><text transform="translate(-23.65234, 0) translate(210.628515625, 67.94356881960333)" style="text-anchor: end;"><tspan fill="rgb(0, 135, 133)" style="font-family: Roboto; font-weight: 400; font-stretch: 100%; font-size: 12px;" x="0" y="3.6000000000000014">3.35</tspan></text></g><g id="3.35-svg"><text transform="translate(-11.826171875, 0) translate(235.067109375, 62.44356881960333)" style="text-anchor: middle;"><tspan x="0" dominant-baseline="alphabetic" y="0" style="font-family: Roboto; font-weight: 400; font-stretch: 100%; font-size: 12px; stroke: rgb(255, 255, 255); stroke-width: 2; stroke-linejoin: miter; stroke-linecap: butt;">3.35</tspan></text><text transform="translate(-11.82617, 0) translate(235.067109375, 62.44356881960333)" style="text-anchor: middle;"><tspan fill="rgb(0, 135, 133)" style="font-family: Roboto; font-weight: 400; font-stretch: 100%; font-size: 12px;" x="0" dominant-baseline="alphabetic" y="0">3.35</tspan></text></g><g id="3.45-svg"><text transform="translate(-23.65234375, 0) translate(256.7756640625, 25.91857767267732)" style="text-anchor: end;"><tspan x="0" y="3.6000000000000014" style="font-family: Roboto; font-weight: 400; font-stretch: 100%; font-size: 12px; stroke: rgb(255, 255, 255); stroke-width: 2; stroke-linejoin: miter; stroke-linecap: butt;">3.45</tspan></text><text transform="translate(-23.65234, 0) translate(256.7756640625, 25.91857767267732)" style="text-anchor: end;"><tspan fill="rgb(0, 135, 133)" style="font-family: Roboto; font-weight: 400; font-stretch: 100%; font-size: 12px;" x="0" y="3.6000000000000014">3.45</tspan></text></g></g><g id="Esso-svg"><g id="2.92-svg"><text transform="translate(-23.65234375, 0) translate(118.33421875, 248.651030751385)" style="text-anchor: end;"><tspan x="0" y="3.6000000000000014" style="font-family: Roboto; font-weight: 400; font-stretch: 100%; font-size: 12px; stroke: rgb(255, 255, 255); stroke-width: 2; stroke-linejoin: miter; stroke-linecap: butt;">2.92</tspan></text><text transform="translate(-23.65234, 0) translate(118.33421875, 248.651030751385)" style="text-anchor: end;"><tspan fill="rgb(0, 126, 210)" style="font-family: Roboto; font-weight: 400; font-stretch: 100%; font-size: 12px;" x="0" y="3.6000000000000014">2.92</tspan></text></g><g id="3.15-svg"><text transform="translate(-23.65234375, 0) translate(195.2461328125, 151.9935511134553)" style="text-anchor: end;"><tspan x="0" y="3.6000000000000014" style="font-family: Roboto; font-weight: 400; font-stretch: 100%; font-size: 12px; stroke: rgb(255, 255, 255); stroke-width: 2; stroke-linejoin: miter; stroke-linecap: butt;">3.15</tspan></text><text transform="translate(-23.65234, 0) translate(195.2461328125, 151.9935511134553)" style="text-anchor: end;"><tspan fill="rgb(0, 126, 210)" style="font-family: Roboto; font-weight: 400; font-stretch: 100%; font-size: 12px;" x="0" y="3.6000000000000014">3.15</tspan></text></g><g id="3.47-svg"><text transform="translate(-23.65234375, 0) translate(302.9228125, 17.513579443292148)" style="text-anchor: end;"><tspan x="0" y="3.6000000000000014" style="font-family: Roboto; font-weight: 400; font-stretch: 100%; font-size: 12px; stroke: rgb(255, 255, 255); stroke-width: 2; stroke-linejoin: miter; stroke-linecap: butt;">3.47</tspan></text><text transform="translate(-23.65234, 0) translate(302.9228125, 17.513579443292148)" style="text-anchor: end;"><tspan fill="rgb(0, 126, 210)" style="font-family: Roboto; font-weight: 400; font-stretch: 100%; font-size: 12px;" x="0" y="3.6000000000000014">3.47</tspan></text></g></g><g id="Shell-svg"><g id="3.02-svg"><text transform="translate(158.69230582063432, 214.20226879284027)"><tspan x="0" y="3.6000000000000014" style="font-family: Roboto; font-weight: 400; font-stretch: 100%; font-size: 12px; stroke: rgb(255, 255, 255); stroke-width: 2; stroke-linejoin: miter; stroke-linecap: butt;">3.02</tspan></text><text transform="translate(158.69230582063432, 214.20226879284027)"><tspan fill="rgb(143, 90, 233)" style="font-family: Roboto; font-weight: 400; font-stretch: 100%; font-size: 12px;" x="0" y="3.6000000000000014">3.02</tspan></text></g></g></g><g id="inner-value-labels-svg"><g id="SPC-svg"><g id="3.46-svg"><text transform="translate(351.3, 44.98802430307159)"><tspan x="0" y="3.6000000000000014" style="font-family: Roboto; font-weight: 400; font-stretch: 100%; font-size: 12px; stroke: rgb(255, 255, 255); stroke-width: 2; stroke-linejoin: miter; stroke-linecap: butt;">3.46</tspan></text><text transform="translate(351.3, 44.98802430307159)"><tspan fill="rgb(221, 47, 65)" style="font-family: Roboto; font-weight: 400; font-stretch: 100%; font-size: 12px;" x="0" y="3.6000000000000014">3.46</tspan></text></g></g><g id="Caltex-svg"><g id="3.47-svg"><text transform="translate(351.3, 31.272510575084386)"><tspan x="0" y="3.6000000000000014" style="font-family: Roboto; font-weight: 400; font-stretch: 100%; font-size: 12px; stroke: rgb(255, 255, 255); stroke-width: 2; stroke-linejoin: miter; stroke-linecap: butt;">3.47</tspan></text><text transform="translate(351.3, 31.272510575084386)"><tspan fill="rgb(0, 135, 133)" style="font-family: Roboto; font-weight: 400; font-stretch: 100%; font-size: 12px;" x="0" y="3.6000000000000014">3.47</tspan></text></g></g><g id="Esso-svg"><g id="3.47-svg"><text transform="translate(351.3, 18.8078069347813)"><tspan x="0" y="3.6000000000000014" style="font-family: Roboto; font-weight: 400; font-stretch: 100%; font-size: 12px; stroke: rgb(255, 255, 255); stroke-width: 2; stroke-linejoin: miter; stroke-linecap: butt;">3.47</tspan></text><text transform="translate(351.3, 18.8078069347813)"><tspan fill="rgb(0, 126, 210)" style="font-family: Roboto; font-weight: 400; font-stretch: 100%; font-size: 12px;" x="0" y="3.6000000000000014">3.47</tspan></text></g></g><g id="Shell-svg"><g id="3.47-svg"><text transform="translate(351.3, 5.80317842141189)"><tspan x="0" y="3.6000000000000014" style="font-family: Roboto; font-weight: 400; font-stretch: 100%; font-size: 12px; stroke: rgb(255, 255, 255); stroke-width: 2; stroke-linejoin: miter; stroke-linecap: butt;">3.47</tspan></text><text transform="translate(351.3, 5.80317842141189)"><tspan fill="rgb(143, 90, 233)" style="font-family: Roboto; font-weight: 400; font-stretch: 100%; font-size: 12px;" x="0" y="3.6000000000000014">3.47</tspan></text></g></g><g id="Sinopec-svg"><g id="3.47-svg"><text transform="translate(351.3, -9.101123903195756)"><tspan x="0" y="3.6000000000000014" style="font-family: Roboto; font-weight: 400; font-stretch: 100%; font-size: 12px; stroke: rgb(255, 255, 255); stroke-width: 2; stroke-linejoin: miter; stroke-linecap: butt;">3.47</tspan></text><text transform="translate(351.3, -9.101123903195756)"><tspan fill="rgb(0, 45, 156)" style="font-family: Roboto; font-weight: 400; font-stretch: 100%; font-size: 12px;" x="0" y="3.6000000000000014">3.47</tspan></text></g></g></g></g></g><circle r="11" cx="11" cy="469" style="fill: none; stroke-width: 1; stroke: rgb(24, 24, 24);"/><text transform="translate(7.546875, 462)"><tspan fill="rgb(24,24,24)" x="0" y="12" style="font-family: Roboto; font-weight: 700; font-stretch: 100%; font-size: 12px;">1</tspan></text><text transform="translate(27, 462)"><tspan fill="rgb(24,24,24)" x="0" y="12" style="font-family: Roboto; font-weight: 400; font-stretch: 100%; font-size: 12px;">War erupts...</tspan></text><circle r="11" cx="11" cy="496" style="fill: none; stroke-width: 1; stroke: rgb(24, 24, 24);"/><text transform="translate(7.546875, 489)"><tspan fill="rgb(24,24,24)" x="0" y="12" style="font-family: Roboto; font-weight: 700; font-stretch: 100%; font-size: 12px;">2</tspan></text><text transform="translate(27, 489)"><tspan fill="rgb(24,24,24)" x="0" y="12" style="font-family: Roboto; font-weight: 400; font-stretch: 100%; font-size: 12px;">and Iran shuts the Strait of Hormuz in days</tspan></text><g id="legend-color-svg svelte-gkg0al-svg" transform="translate(0, 106.15625)"><line x1="0.5" x2="15.5" y1="7" y2="7" style="fill: none; stroke-width: 1; stroke-linejoin: miter; stroke-linecap: round; stroke: rgb(165, 110, 255);"/></g><text transform="translate(19, 105.75)"><tspan fill="rgb(24,24,24)" x="0" y="12" style="font-family: Roboto; font-weight: 400; font-stretch: 100%; font-size: 12px;">Shell</tspan></text><g id="legend-color-svg svelte-gkg0al-svg" transform="translate(54.9375, 106.15625)"><line x1="0.5" x2="15.5" y1="7" y2="7" style="fill: none; stroke-width: 1; stroke-linejoin: miter; stroke-linecap: round; stroke: rgb(0, 157, 154);"/></g><text transform="translate(73.9375, 105.75)"><tspan fill="rgb(24,24,24)" x="0" y="12" style="font-family: Roboto; font-weight: 400; font-stretch: 100%; font-size: 12px;">Caltex</tspan></text><g id="legend-color-svg svelte-gkg0al-svg" transform="translate(117.4375, 106.15625)"><line x1="0.5" x2="15.5" y1="7" y2="7" style="fill: none; stroke-width: 1; stroke-linejoin: miter; stroke-linecap: round; stroke: rgb(250, 77, 86);"/></g><text transform="translate(136.4375, 105.75)"><tspan fill="rgb(24,24,24)" x="0" y="12" style="font-family: Roboto; font-weight: 400; font-stretch: 100%; font-size: 12px;">SPC</tspan></text><g id="legend-color-svg svelte-gkg0al-svg" transform="translate(168.95313, 106.15625)"><line x1="0.5" x2="15.5" y1="7" y2="7" style="fill: none; stroke-width: 1; stroke-linejoin: miter; stroke-linecap: round; stroke: rgb(17, 146, 232);"/></g><text transform="translate(187.953125, 105.75)"><tspan fill="rgb(24,24,24)" x="0" y="12" style="font-family: Roboto; font-weight: 400; font-stretch: 100%; font-size: 12px;">Esso</tspan></text><g id="legend-color-svg svelte-gkg0al-svg" transform="translate(224.01563, 106.15625)"><line x1="0.5" x2="15.5" y1="7" y2="7" style="fill: none; stroke-width: 1; stroke-linejoin: miter; stroke-linecap: round; stroke: rgb(0, 45, 156);"/></g><text transform="translate(243.015625, 105.75)"><tspan fill="rgb(24,24,24)" x="0" y="12" style="font-family: Roboto; font-weight: 400; font-stretch: 100%; font-size: 12px;">Sinopec</tspan></text><circle r="11" cx="82" cy="302.640625" style="fill: rgb(255, 255, 255); fill-opacity: 0.7; stroke-width: 1; stroke: rgb(24, 24, 24);"/><text transform="translate(78.546875, 295.4375)"><tspan fill="rgb(24,24,24)" x="0" y="12" style="font-family: Roboto; font-weight: 700; font-stretch: 100%; font-size: 12px;">2</tspan></text><circle r="11" cx="56" cy="252.640625" style="fill: rgb(255, 255, 255); fill-opacity: 0.7; stroke-width: 1; stroke: rgb(24, 24, 24);"/><text transform="translate(52.546875, 245.4375)"><tspan fill="rgb(24,24,24)" x="0" y="12" style="font-family: Roboto; font-weight: 700; font-stretch: 100%; font-size: 12px;">1</tspan></text><g id="tooltip-layer-svg" transform="translate(0, 131.54688)"><g id="group-svg" transform="translate(0, 11.09386)"/></g></g><g id="container-svg container-header-svg datawrapper-3oCBM-xp3kt5-svg"><text transform="translate(0, 0)"><tspan fill="rgb(0,0,0)" x="0" y="22" style="font-family: Roboto; font-weight: 700; font-stretch: 100%; font-size: 22px;">But took just 18 days in the wake of</tspan><tspan fill="rgb(0,0,0)" x="0" y="47" style="font-family: Roboto; font-weight: 700; font-stretch: 100%; font-size: 22px;">the Iran war</tspan></text><text transform="translate(0, 60)"><tspan fill="rgb(24,24,24)" x="0" y="14" style="font-family: Roboto; font-weight: 400; font-stretch: 100%; font-size: 14px;">95-octane prices following the Feb 28, 2026 strikes on Iran,</tspan><tspan fill="rgb(24,24,24)" x="0" y="31" style="font-family: Roboto; font-weight: 400; font-stretch: 100%; font-size: 14px;">in S$ per litre</tspan></text></g></g></g><g id="container-svg container-footer-svg datawrapper-3oCBM-1la8dcw-svg"><text transform="translate(0, 527)"><tspan fill="rgb(136,136,136)" x="0" y="11" style="font-family: Roboto; font-weight: 400; font-stretch: 100%; font-size: 11px;">Chart:</tspan><tspan fill="rgb(136,136,136)" dx="2.734375" style="font-family: Roboto; font-weight: 400; font-stretch: 100%; font-size: 11px;">Wong Pei Ting</tspan><tspan fill="rgb(136,136,136)" dx="2.739" style="font-family: Roboto; font-weight: 400; font-stretch: 100%; font-size: 11px;">•</tspan><tspan fill="rgb(136,136,136)" dx="2.739" style="font-family: Roboto; font-weight: 400; font-stretch: 100%; font-size: 11px;">Source:</tspan><tspan fill="rgb(136,136,136)" dx="2.734375" style="font-family: Roboto; font-weight: 400; font-stretch: 100%; font-size: 11px;">Motorist.sg</tspan><tspan fill="rgb(136,136,136)" dx="2.739" style="font-family: Roboto; font-weight: 400; font-stretch: 100%; font-size: 11px;">•</tspan><tspan fill="rgb(136,136,136)" dx="2.739" style="font-family: Roboto; font-weight: 400; font-stretch: 100%; font-size: 11px;">Created with</tspan><tspan fill="rgb(136,136,136)" dx="2.734375" style="font-family: Roboto; font-weight: 400; font-stretch: 100%; font-size: 11px;">Datawrapper</tspan></text></g></g></g></g></g></svg>