<svg xmlns="http://www.w3.org/2000/svg" xmlns:xlink="http://www.w3.org/1999/xlink" id="exportSvg" width="490" height="550"><defs/><g><g><g id="__svelte-dw-svg" clip-path="url(#rect-mask-jbzjiPJYNRtnO3XCNum2y)"><clipPath id="rect-mask-jbzjiPJYNRtnO3XCNum2y"><rect x="0" y="0" width="490" height="550"/></clipPath><g id="container-svg container-body-svg datawrapper-M1VBB-1gvfeww-svg"><g id="container-svg container-bodyTop-svg datawrapper-M1VBB-lmtz6e-svg"><g id="container-svg container-bodyCenter-svg datawrapper-M1VBB-1fgvipr-svg"><g id="chart-svg"><rect width="333.1875" height="377.71875" transform="translate(38.6875, 119.265625)" fill="rgba(196,196,196,0.14)" style="fill: rgb(196, 196, 196); fill-opacity: 0.14;"/><g id="svg-main-svg" transform="translate(0, 114.54688)"><g id="group-svg" transform="translate(0, 4.72452)"><g id="x-grid-svg"/><g id="y-grid-svg"><g id="y-grid-lines-svg grid-y-svg datawrapper-M1VBB-1mqm0ow-svg"><line x1="0" x2="471.3" y1="0" y2="0" transform="translate(0, 11.27548)" style="fill: none; stroke-width: 1; stroke-linejoin: miter; stroke-linecap: butt; stroke: rgb(231, 231, 231);"/><line x1="0" x2="471.3" y1="0" y2="0" transform="translate(0, 67.65288)" style="fill: none; stroke-width: 1; stroke-linejoin: miter; stroke-linecap: butt; stroke: rgb(231, 231, 231);"/><line x1="0" x2="471.3" y1="0" y2="0" transform="translate(0, 124.03029)" style="fill: none; stroke-width: 1; stroke-linejoin: miter; stroke-linecap: butt; stroke: rgb(231, 231, 231);"/><line x1="0" x2="471.3" y1="0" y2="0" transform="translate(0, 180.40769)" style="fill: none; stroke-width: 1; stroke-linejoin: miter; stroke-linecap: butt; stroke: rgb(231, 231, 231);"/><line x1="0" x2="471.3" y1="0" y2="0" transform="translate(0, 236.7851)" style="fill: none; stroke-width: 1; stroke-linejoin: miter; stroke-linecap: butt; stroke: rgb(231, 231, 231);"/><line x1="0" x2="471.3" y1="0" y2="0" transform="translate(0, 293.1625)" style="fill: none; stroke-width: 1; stroke-linejoin: miter; stroke-linecap: butt; stroke: rgb(231, 231, 231);"/><line x1="0" x2="471.3" y1="0" y2="0" transform="translate(0, 349.5399)" style="fill: none; stroke-width: 1; stroke-linejoin: miter; stroke-linecap: butt; stroke: rgb(231, 231, 231);"/></g></g><g id="area-fills-svg"/><g id="lines-svg"><g id="SPC-svg"><g id="SPC-svg"><path d="M38.652,377.729L42.008,377.729L42.008,377.729L45.363,377.729L45.363,377.729L48.719,377.729L48.719,377.729L52.074,377.729L52.074,377.729L55.43,377.729L55.43,377.729L58.785,377.729L58.785,377.729L62.141,377.729L62.141,377.729L65.496,377.729L65.496,343.902L68.851,343.902L68.851,343.902L72.207,343.902L72.207,343.902L75.562,343.902L75.562,343.902L78.918,343.902L78.918,310.076L82.273,310.076L82.273,310.076L85.629,310.076L85.629,219.872L88.984,219.872L88.984,219.872L92.34,219.872L92.34,129.668L95.695,129.668L95.695,129.668L99.051,129.668L99.051,129.668L102.406,129.668L102.406,129.668L105.761,129.668L105.761,191.683L109.117,191.683L109.117,191.683L112.472,191.683L112.472,248.061L115.828,248.061L115.828,248.061L119.183,248.061L119.183,248.061L122.539,248.061L122.539,248.061L125.894,248.061L125.894,248.061L129.25,248.061L129.25,248.061L132.605,248.061L132.605,214.234L135.961,214.234L135.961,214.234L139.316,214.234L139.316,214.234L142.671,214.234L142.671,214.234L145.887,214.234L145.887,214.234L149.243,214.234L149.243,214.234L152.598,214.234L152.598,214.234L155.953,214.234L155.953,214.234L159.309,214.234L159.309,214.234L162.664,214.234L162.664,242.423L166.02,242.423L166.02,242.423L169.375,242.423L169.375,242.423L172.731,242.423L172.731,242.423L176.086,242.423L176.086,242.423L179.442,242.423L179.442,242.423L182.797,242.423L182.797,242.423L186.153,242.423L186.153,242.423L189.508,242.423L189.508,242.423L192.864,242.423L192.864,242.423L196.219,242.423L196.219,242.423L199.574,242.423L199.574,242.423L202.93,242.423L202.93,242.423L206.285,242.423L206.285,242.423L209.641,242.423L209.641,242.423L212.996,242.423L212.996,242.423L216.352,242.423L216.352,242.423L219.707,242.423L219.707,242.423L223.063,242.423L223.063,242.423L226.418,242.423L226.418,242.423L229.774,242.423L229.774,242.423L233.129,242.423L233.129,242.423L236.484,242.423L236.484,242.423L239.84,242.423L239.84,242.423L243.195,242.423L243.195,219.872L246.551,219.872L246.551,219.872L249.906,219.872L249.906,219.872L253.262,219.872L253.262,219.872L256.617,219.872L256.617,219.872L259.973,219.872L259.973,219.872L263.328,219.872L263.328,219.872L266.684,219.872L266.684,219.872L270.039,219.872L270.039,219.872L273.394,219.872L273.394,197.321L276.75,197.321L276.75,197.321L280.105,197.321L280.105,197.321L283.461,197.321L283.461,197.321L286.816,197.321L286.816,197.321L290.172,197.321L290.172,169.132L293.527,169.132L293.527,169.132L296.883,169.132L296.883,169.132L300.238,169.132L300.238,169.132L303.594,169.132L303.594,169.132L306.949,169.132L306.949,169.132L310.304,169.132L310.304,169.132L313.66,169.132L313.66,169.132L317.015,169.132L317.015,169.132L320.371,169.132L320.371,146.581L323.726,146.581L323.726,146.581L327.082,146.581L327.082,146.581L330.437,146.581L330.437,146.581L333.793,146.581L333.793,146.581L337.148,146.581L337.148,146.581L340.504,146.581L340.504,146.581L343.859,146.581L343.859,112.755L347.214,112.755L347.214,112.755L350.57,112.755L350.57,112.755L353.925,112.755L353.925,112.755L357.281,112.755L357.281,112.755L360.636,112.755L360.636,112.755L363.992,112.755L363.992,112.755L367.347,112.755L367.347,112.755L370.703,112.755L370.703,67.653L374.058,67.653L374.058,67.653L377.414,67.653L377.414,67.653L380.769,67.653L380.769,67.653L384.125,67.653L384.125,67.653L387.48,67.653L387.48,67.653L390.835,67.653L390.835,67.653L394.191,67.653L394.191,67.653L397.546,67.653L397.546,67.653L400.902,67.653L400.902,67.653L404.257,67.653L404.257,67.653L407.613,67.653L407.613,39.464L410.968,39.464L410.968,39.464L414.324,39.464L414.324,39.464L417.679,39.464L417.679,39.464L421.035,39.464L421.035,39.464L424.39,39.464L424.39,39.464L427.745,39.464L427.745,39.464L431.101,39.464L431.101,39.464L434.456,39.464L434.456,39.464L437.812,39.464L437.812,39.464L441.167,39.464L441.167,39.464L444.523,39.464L444.523,39.464L447.878,39.464L447.878,39.464L451.234,39.464L451.234,39.464L454.589,39.464L454.589,22.551L457.945,22.551L457.945,22.551L461.3,22.551L461.3,22.551" stroke="rgb(250,77,86)" id="SPC" style="fill: none; stroke-width: 1; stroke-linejoin: round; stroke-linecap: round; stroke: rgb(250, 77, 86);"/></g></g><g id="Caltex-svg"><g id="Caltex-svg"><path d="M38.652,338.264L42.008,338.264L42.008,321.351L45.363,321.351L45.363,321.351L48.719,321.351L48.719,321.351L52.074,321.351L52.074,321.351L55.43,321.351L55.43,321.351L58.785,321.351L58.785,304.438L62.141,304.438L62.141,304.438L65.496,304.438L65.496,293.162L68.851,293.162L68.851,248.061L72.207,248.061L72.207,248.061L75.562,248.061L75.562,248.061L78.918,248.061L78.918,248.061L82.273,248.061L82.273,202.959L85.629,202.959L85.629,202.959L88.984,202.959L88.984,112.755L92.34,112.755L92.34,112.755L95.695,112.755L95.695,124.03L99.051,124.03L99.051,124.03L102.406,124.03L102.406,186.045L105.761,186.045L105.761,186.045L109.117,186.045L109.117,186.045L112.472,186.045L112.472,242.423L115.828,242.423L115.828,242.423L119.183,242.423L119.183,242.423L122.539,242.423L122.539,242.423L125.894,242.423L125.894,242.423L129.25,242.423L129.25,208.596L132.605,208.596L132.605,208.596L135.961,208.596L135.961,208.596L139.316,208.596L139.316,208.596L142.671,208.596L142.671,208.596L145.887,208.596L145.887,208.596L149.243,208.596L149.243,208.596L152.598,208.596L152.598,208.596L155.953,208.596L155.953,208.596L159.309,208.596L159.309,208.596L162.664,208.596L162.664,208.596L166.02,208.596L166.02,236.785L169.375,236.785L169.375,236.785L172.731,236.785L172.731,236.785L176.086,236.785L176.086,236.785L179.442,236.785L179.442,236.785L182.797,236.785L182.797,236.785L186.153,236.785L186.153,236.785L189.508,236.785L189.508,236.785L192.864,236.785L192.864,236.785L196.219,236.785L196.219,236.785L199.574,236.785L199.574,236.785L202.93,236.785L202.93,214.234L206.285,214.234L206.285,214.234L209.641,214.234L209.641,214.234L212.996,214.234L212.996,214.234L216.352,214.234L216.352,214.234L219.707,214.234L219.707,214.234L223.063,214.234L223.063,214.234L226.418,214.234L226.418,191.683L229.774,191.683L229.774,191.683L233.129,191.683L233.129,191.683L236.484,191.683L236.484,202.959L239.84,202.959L239.84,202.959L243.195,202.959L243.195,202.959L246.551,202.959L246.551,202.959L249.906,202.959L249.906,174.77L253.262,174.77L253.262,174.77L256.617,174.77L256.617,174.77L259.973,174.77L259.973,174.77L263.328,174.77L263.328,174.77L266.684,174.77L266.684,174.77L270.039,174.77L270.039,174.77L273.394,174.77L273.394,174.77L276.75,174.77L276.75,152.219L280.105,152.219L280.105,152.219L283.461,152.219L283.461,129.668L286.816,129.668L286.816,129.668L290.172,129.668L290.172,129.668L293.527,129.668L293.527,129.668L296.883,129.668L296.883,129.668L300.238,129.668L300.238,129.668L303.594,129.668L303.594,129.668L306.949,129.668L306.949,129.668L310.304,129.668L310.304,129.668L313.66,129.668L313.66,129.668L317.015,129.668L317.015,95.842L320.371,95.842L320.371,95.842L323.726,95.842L323.726,95.842L327.082,95.842L327.082,95.842L330.437,95.842L330.437,95.842L333.793,95.842L333.793,95.842L337.148,95.842L337.148,95.842L340.504,95.842L340.504,95.842L343.859,95.842L343.859,78.928L347.214,78.928L347.214,78.928L350.57,78.928L350.57,78.928L353.925,78.928L353.925,78.928L357.281,78.928L357.281,78.928L360.636,78.928L360.636,78.928L363.992,78.928L363.992,50.74L367.347,50.74L367.347,50.74L370.703,50.74L370.703,50.74L374.058,50.74L374.058,50.74L377.414,50.74L377.414,50.74L380.769,50.74L380.769,50.74L384.125,50.74L384.125,50.74L387.48,50.74L387.48,50.74L390.835,50.74L390.835,22.551L394.191,22.551L394.191,22.551L397.546,22.551L397.546,22.551L400.902,22.551L400.902,22.551L404.257,22.551L404.257,22.551L407.613,22.551L407.613,22.551L410.968,22.551L410.968,22.551L414.324,22.551L414.324,22.551L417.679,22.551L417.679,0L421.035,0L421.035,0L424.39,0L424.39,0L427.745,0L427.745,0L431.101,0L431.101,0L434.456,0L434.456,0L437.812,0L437.812,0L441.167,0L441.167,0L444.523,0L444.523,0L447.878,0L447.878,0L451.234,0L451.234,0L454.589,0L454.589,0L457.945,0L457.945,0L461.3,0L461.3,0" stroke="rgb(0,157,154)" id="Caltex" style="fill: none; stroke-width: 1; stroke-linejoin: round; stroke-linecap: round; stroke: rgb(0, 157, 154);"/></g></g><g id="Shell-svg"><g id="Shell-svg"><path d="M38.652,321.351L42.008,321.351L42.008,321.351L45.363,321.351L45.363,321.351L48.719,321.351L48.719,321.351L52.074,321.351L52.074,321.351L55.43,321.351L55.43,321.351L58.785,321.351L58.785,321.351L62.141,321.351L62.141,293.162L65.496,293.162L65.496,248.061L68.851,248.061L68.851,248.061L72.207,248.061L72.207,248.061L75.562,248.061L75.562,248.061L78.918,248.061L78.918,202.959L82.273,202.959L82.273,107.117L85.629,107.117L85.629,107.117L88.984,107.117L88.984,107.117L92.34,107.117L92.34,124.03L95.695,124.03L95.695,124.03L99.051,124.03L99.051,124.03L102.406,124.03L102.406,186.045L105.761,186.045L105.761,186.045L109.117,186.045L109.117,186.045L112.472,186.045L112.472,242.423L115.828,242.423L115.828,242.423L119.183,242.423L119.183,242.423L122.539,242.423L122.539,242.423L125.894,242.423L125.894,208.596L129.25,208.596L129.25,208.596L132.605,208.596L132.605,186.045L135.961,186.045L135.961,186.045L139.316,186.045L139.316,186.045L142.671,186.045L142.671,186.045L145.887,186.045L145.887,186.045L149.243,186.045L149.243,186.045L152.598,186.045L152.598,208.596L155.953,208.596L155.953,208.596L159.309,208.596L159.309,208.596L162.664,208.596L162.664,208.596L166.02,208.596L166.02,225.51L169.375,225.51L169.375,225.51L172.731,225.51L172.731,225.51L176.086,225.51L176.086,225.51L179.442,225.51L179.442,225.51L182.797,225.51L182.797,225.51L186.153,225.51L186.153,225.51L189.508,225.51L189.508,225.51L192.864,225.51L192.864,225.51L196.219,225.51L196.219,225.51L199.574,225.51L199.574,225.51L202.93,225.51L202.93,225.51L206.285,225.51L206.285,208.596L209.641,208.596L209.641,208.596L212.996,208.596L212.996,208.596L216.352,208.596L216.352,208.596L219.707,208.596L219.707,208.596L223.063,208.596L223.063,186.045L226.418,186.045L226.418,186.045L229.774,186.045L229.774,186.045L233.129,186.045L233.129,202.959L236.484,202.959L236.484,202.959L239.84,202.959L239.84,202.959L243.195,202.959L243.195,202.959L246.551,202.959L246.551,202.959L249.906,202.959L249.906,202.959L253.262,202.959L253.262,174.77L256.617,174.77L256.617,174.77L259.973,174.77L259.973,174.77L263.328,174.77L263.328,174.77L266.684,174.77L266.684,174.77L270.039,174.77L270.039,174.77L273.394,174.77L273.394,152.219L276.75,152.219L276.75,152.219L280.105,152.219L280.105,129.668L283.461,129.668L283.461,129.668L286.816,129.668L286.816,129.668L290.172,129.668L290.172,129.668L293.527,129.668L293.527,129.668L296.883,129.668L296.883,129.668L300.238,129.668L300.238,129.668L303.594,129.668L303.594,129.668L306.949,129.668L306.949,129.668L310.304,129.668L310.304,129.668L313.66,129.668L313.66,129.668M323.726,95.842L327.082,95.842L327.082,95.842L330.437,95.842L330.437,95.842L333.793,95.842L333.793,95.842L337.148,95.842L337.148,95.842L340.504,95.842L340.504,78.928L343.859,78.928L343.859,78.928L347.214,78.928L347.214,78.928L350.57,78.928L350.57,78.928L353.925,78.928L353.925,78.928L357.281,78.928L357.281,78.928L360.636,78.928L360.636,78.928L363.992,78.928L363.992,50.74L367.347,50.74L367.347,50.74L370.703,50.74L370.703,50.74L374.058,50.74L374.058,50.74L377.414,50.74L377.414,50.74L380.769,50.74L380.769,50.74L384.125,50.74L384.125,50.74L387.48,50.74L387.48,50.74L390.835,50.74L390.835,22.551L394.191,22.551L394.191,22.551L397.546,22.551L397.546,22.551L400.902,22.551L400.902,22.551L404.257,22.551L404.257,22.551L407.613,22.551L407.613,22.551L410.968,22.551L410.968,22.551L414.324,22.551L414.324,0L417.679,0L417.679,0L421.035,0L421.035,0L424.39,0L424.39,0L427.745,0L427.745,0L431.101,0L431.101,0L434.456,0L434.456,0L437.812,0L437.812,0L441.167,0L441.167,0L444.523,0L444.523,0L447.878,0L447.878,0L451.234,0L451.234,0L454.589,0L454.589,0L457.945,0L457.945,0L461.3,0L461.3,0" stroke="rgb(165,110,255)" id="Shell" style="fill: none; stroke-width: 1; stroke-linejoin: round; stroke-linecap: round; stroke: rgb(165, 110, 255);"/></g></g></g><g id="x-grid-svg"><g id="x-tick-labels-svg date-axis-svg grid-x-svg datawrapper-M1VBB-inx4wh-svg svelte-qac4x9-svg" transform="translate(0, 382.72861)"><text transform="translate(55.42962, 12) translate(-10.53906, 0) translate(10.539064407348633, 0)" style="text-anchor: middle;"><tspan fill="rgb(116, 116, 116)" style="font-family: Roboto; font-weight: 400; font-stretch: 100%; font-size: 12px;" x="0" dominant-baseline="auto" y="0">Mar</tspan></text><text transform="translate(159.30895, 12) translate(-9.32031, 0) translate(9.3203125, 0)" style="text-anchor: middle;"><tspan fill="rgb(116, 116, 116)" style="font-family: Roboto; font-weight: 400; font-stretch: 100%; font-size: 12px;" x="0" dominant-baseline="auto" y="0">Apr</tspan></text><text transform="translate(259.97263, 12) translate(-11.45801, 0) translate(11.4580078125, 0)" style="text-anchor: middle;"><tspan fill="rgb(116, 116, 116)" style="font-family: Roboto; font-weight: 400; font-stretch: 100%; font-size: 12px;" x="0" dominant-baseline="auto" y="0">May</tspan></text><text transform="translate(363.99177, 12) translate(-9.9375, 0) translate(9.9375, 0)" style="text-anchor: middle;"><tspan fill="rgb(116, 116, 116)" style="font-family: Roboto; font-weight: 400; font-stretch: 100%; font-size: 12px;" x="0" dominant-baseline="auto" y="0">Jun</tspan></text><g id="highlighted-ticks-svg"/></g></g><g id="y-grid-svg"><g id="y-tick-labels-svg number-axis-svg grid-y-svg datawrapper-M1VBB-1fzbge6-svg"><text transform="translate(0, 344.5399) translate(0, 0)"><tspan fill="rgb(162, 162, 162)" style="font-family: Roboto; font-weight: 400; font-stretch: 100%; font-size: 12px;" x="0" dominant-baseline="auto" y="0">2.80</tspan></text><text transform="translate(0, 288.1625) translate(0, 0)"><tspan fill="rgb(162, 162, 162)" style="font-family: Roboto; font-weight: 400; font-stretch: 100%; font-size: 12px;" x="0" dominant-baseline="auto" y="0">2.90</tspan></text><text transform="translate(0, 231.7851) translate(0, 0)"><tspan fill="rgb(162, 162, 162)" style="font-family: Roboto; font-weight: 400; font-stretch: 100%; font-size: 12px;" x="0" dominant-baseline="auto" y="0">3.00</tspan></text><text transform="translate(0, 175.40769) translate(0, 0)"><tspan fill="rgb(162, 162, 162)" style="font-family: Roboto; font-weight: 400; font-stretch: 100%; font-size: 12px;" x="0" dominant-baseline="auto" y="0">3.10</tspan></text><text transform="translate(0, 119.03029) translate(0, 0)"><tspan fill="rgb(162, 162, 162)" style="font-family: Roboto; font-weight: 400; font-stretch: 100%; font-size: 12px;" x="0" dominant-baseline="auto" y="0">3.20</tspan></text><text transform="translate(0, 62.65288) translate(0, 0)"><tspan fill="rgb(162, 162, 162)" style="font-family: Roboto; font-weight: 400; font-stretch: 100%; font-size: 12px;" x="0" dominant-baseline="auto" y="0">3.30</tspan></text><text transform="translate(0, 6.27548) translate(0, 0)"><tspan fill="rgb(162, 162, 162)" style="font-family: Roboto; font-weight: 400; font-stretch: 100%; font-size: 12px;" x="0" dominant-baseline="auto" y="0">3.40</tspan></text></g></g><g id="value-labels-svg"><g id="SPC-svg"><g id="2.98-svg"><text transform="translate(-11.826171875, 0) translate(124.29854953171518, 253.560576908624)" style="text-anchor: middle;"><tspan x="0" y="10.8" style="font-family: Roboto; font-weight: 400; font-stretch: 100%; font-size: 12px; stroke: rgb(255, 255, 255); stroke-width: 2; stroke-linejoin: miter; stroke-linecap: butt;">2.98</tspan></text><text transform="translate(-11.82617, 0) translate(124.29854953171518, 253.560576908624)" style="text-anchor: middle;"><tspan fill="rgb(221, 47, 65)" style="font-family: Roboto; font-weight: 400; font-stretch: 100%; font-size: 12px;" x="0" y="10.8">2.98</tspan></text></g><g id="2.99-svg"><text transform="translate(-11.703125, 0) translate(251.54302327985445, 247.92283652433696)" style="text-anchor: middle;"><tspan x="0" y="10.8" style="font-family: Roboto; font-weight: 400; font-stretch: 100%; font-size: 12px; stroke: rgb(255, 255, 255); stroke-width: 2; stroke-linejoin: miter; stroke-linecap: butt;">2.99</tspan></text><text transform="translate(-11.70313, 0) translate(251.54302327985445, 247.92283652433696)" style="text-anchor: middle;"><tspan fill="rgb(221, 47, 65)" style="font-family: Roboto; font-weight: 400; font-stretch: 100%; font-size: 12px;" x="0" y="10.8">2.99</tspan></text></g></g><g id="Caltex-svg"/><g id="Shell-svg"><g id="3.09-svg"><text transform="translate(-11.703125, 0) translate(144.30823917672842, 180.54543268146807)" style="text-anchor: middle;"><tspan x="0" dominant-baseline="alphabetic" y="0" style="font-family: Roboto; font-weight: 400; font-stretch: 100%; font-size: 12px; stroke: rgb(255, 255, 255); stroke-width: 2; stroke-linejoin: miter; stroke-linecap: butt;">3.09</tspan></text><text transform="translate(-11.70313, 0) translate(144.30823917672842, 180.54543268146807)" style="text-anchor: middle;"><tspan fill="rgb(143, 90, 233)" style="font-family: Roboto; font-weight: 400; font-stretch: 100%; font-size: 12px;" x="0" dominant-baseline="alphabetic" y="0">3.09</tspan></text></g></g></g><g id="inner-value-labels-svg"><g id="SPC-svg"><g id="3.38-svg"><text transform="translate(466.3, 24.770373753668103)"><tspan x="0" y="3.6000000000000014" style="font-family: Roboto; font-weight: 400; font-stretch: 100%; font-size: 12px; stroke: rgb(255, 255, 255); stroke-width: 2; stroke-linejoin: miter; stroke-linecap: butt;">3.38</tspan></text><text transform="translate(466.3, 24.770373753668103)"><tspan fill="rgb(221, 47, 65)" style="font-family: Roboto; font-weight: 400; font-stretch: 100%; font-size: 12px;" x="0" y="3.6000000000000014">3.38</tspan></text></g></g><g id="Caltex-svg"><g id="3.42-svg"><text transform="translate(466.3, -9.095009668749368)"><tspan x="0" y="3.6000000000000014" style="font-family: Roboto; font-weight: 400; font-stretch: 100%; font-size: 12px; stroke: rgb(255, 255, 255); stroke-width: 2; stroke-linejoin: miter; stroke-linecap: butt;">3.42</tspan></text><text transform="translate(466.3, -9.095009668749368)"><tspan fill="rgb(0, 135, 133)" style="font-family: Roboto; font-weight: 400; font-stretch: 100%; font-size: 12px;" x="0" y="3.6000000000000014">3.42</tspan></text></g></g><g id="Shell-svg"><g id="3.42-svg"><text transform="translate(466.3, 6.875597452228924)"><tspan x="0" y="3.6000000000000014" style="font-family: Roboto; font-weight: 400; font-stretch: 100%; font-size: 12px; stroke: rgb(255, 255, 255); stroke-width: 2; stroke-linejoin: miter; stroke-linecap: butt;">3.42</tspan></text><text transform="translate(466.3, 6.875597452228924)"><tspan fill="rgb(143, 90, 233)" style="font-family: Roboto; font-weight: 400; font-stretch: 100%; font-size: 12px;" x="0" y="3.6000000000000014">3.42</tspan></text></g></g></g></g></g><g id="legend-color-svg svelte-gkg0al-svg" transform="translate(0, 89.15625)"><line x1="0.5" x2="15.5" y1="7" y2="7" style="fill: none; stroke-width: 1; stroke-linejoin: miter; stroke-linecap: round; stroke: rgb(165, 110, 255);"/></g><text transform="translate(19, 88.75)"><tspan fill="rgb(24,24,24)" x="0" y="12" style="font-family: Roboto; font-weight: 400; font-stretch: 100%; font-size: 12px;">Shell</tspan></text><g id="legend-color-svg svelte-gkg0al-svg" transform="translate(54.9375, 89.15625)"><line x1="0.5" x2="15.5" y1="7" y2="7" style="fill: none; stroke-width: 1; stroke-linejoin: miter; stroke-linecap: round; stroke: rgb(0, 157, 154);"/></g><text transform="translate(73.9375, 88.75)"><tspan fill="rgb(24,24,24)" x="0" y="12" style="font-family: Roboto; font-weight: 400; font-stretch: 100%; font-size: 12px;">Caltex</tspan></text><g id="legend-color-svg svelte-gkg0al-svg" transform="translate(117.4375, 89.15625)"><line x1="0.5" x2="15.5" y1="7" y2="7" style="fill: none; stroke-width: 1; stroke-linejoin: miter; stroke-linecap: round; stroke: rgb(250, 77, 86);"/></g><text transform="translate(136.4375, 88.75)"><tspan fill="rgb(24,24,24)" x="0" y="12" style="font-family: Roboto; font-weight: 400; font-stretch: 100%; font-size: 12px;">SPC</tspan></text><text transform="translate(305, 130.265625)"><tspan fill="rgb(169,124,85)" x="0" y="12" style="font-family: Roboto; font-weight: 400; font-stretch: 100%; font-size: 12px;">Jun 3: EU </tspan><tspan fill="rgb(169,124,85)" x="0" y="26.390625" style="font-family: Roboto; font-weight: 400; font-stretch: 100%; font-size: 12px;">imposes oil </tspan><tspan fill="rgb(169,124,85)" x="0" y="40.78125" style="font-family: Roboto; font-weight: 400; font-stretch: 100%; font-size: 12px;">ban too.</tspan></text><text transform="translate(77, 170.265625)"><tspan fill="rgb(169,124,85)" x="0" y="12" style="font-family: Roboto; font-weight: 400; font-stretch: 100%; font-size: 12px;">Mar 8: U.S. bans </tspan><tspan fill="rgb(169,124,85)" x="0" y="26.390625" style="font-family: Roboto; font-weight: 400; font-stretch: 100%; font-size: 12px;">Russian oil </tspan><tspan fill="rgb(169,124,85)" x="0" y="40.78125" style="font-family: Roboto; font-weight: 400; font-stretch: 100%; font-size: 12px;">imports.</tspan></text><text transform="translate(48, 127.265625)"><tspan fill="rgb(169,124,85)" x="0" y="12" style="font-family: Roboto; font-weight: 400; font-stretch: 100%; font-size: 12px;">Russia invades </tspan><tspan fill="rgb(169,124,85)" x="0" y="26.390625" style="font-family: Roboto; font-weight: 400; font-stretch: 100%; font-size: 12px;">Ukraine...</tspan></text><g id="tooltip-layer-svg" transform="translate(0, 114.54688)"><g id="group-svg" transform="translate(0, 4.72452)"/></g></g><g id="container-svg container-header-svg datawrapper-M1VBB-xp3kt5-svg"><text transform="translate(0, 0)"><tspan fill="rgb(0,0,0)" x="0" y="22" style="font-family: Roboto; font-weight: 700; font-stretch: 100%; font-size: 22px;">The climb to a record pump price took four</tspan><tspan fill="rgb(0,0,0)" x="0" y="47" style="font-family: Roboto; font-weight: 700; font-stretch: 100%; font-size: 22px;">months in 2022...</tspan></text><text transform="translate(0, 60)"><tspan fill="rgb(24,24,24)" x="0" y="14" style="font-family: Roboto; font-weight: 400; font-stretch: 100%; font-size: 14px;">95-octane prices following the Feb 24 Ukraine invasion, in S$ per litre</tspan></text></g></g></g><g id="container-svg container-footer-svg datawrapper-M1VBB-1la8dcw-svg"><text transform="translate(0, 537)"><tspan fill="rgb(136,136,136)" x="0" y="11" style="font-family: Roboto; font-weight: 400; font-stretch: 100%; font-size: 11px;">Chart:</tspan><tspan fill="rgb(136,136,136)" dx="2.734375" style="font-family: Roboto; font-weight: 400; font-stretch: 100%; font-size: 11px;">Wong Pei Ting</tspan><tspan fill="rgb(136,136,136)" dx="2.739" style="font-family: Roboto; font-weight: 400; font-stretch: 100%; font-size: 11px;">•</tspan><tspan fill="rgb(136,136,136)" dx="2.739" style="font-family: Roboto; font-weight: 400; font-stretch: 100%; font-size: 11px;">Source:</tspan><tspan fill="rgb(136,136,136)" dx="2.734375" style="font-family: Roboto; font-weight: 400; font-stretch: 100%; font-size: 11px;">ChenLim.Com</tspan><tspan fill="rgb(136,136,136)" dx="2.739" style="font-family: Roboto; font-weight: 400; font-stretch: 100%; font-size: 11px;">•</tspan><tspan fill="rgb(136,136,136)" dx="2.739" style="font-family: Roboto; font-weight: 400; font-stretch: 100%; font-size: 11px;">Created with</tspan><tspan fill="rgb(136,136,136)" dx="2.734375" style="font-family: Roboto; font-weight: 400; font-stretch: 100%; font-size: 11px;">Datawrapper</tspan></text></g></g></g></g></g></svg>