<svg xmlns="http://www.w3.org/2000/svg" xmlns:xlink="http://www.w3.org/1999/xlink" id="exportSvg" width="375" height="550"><defs/><g><g><g id="__svelte-dw-svg" clip-path="url(#rect-mask-PiNxHIrCz9H3lgJee_HDV)"><clipPath id="rect-mask-PiNxHIrCz9H3lgJee_HDV"><rect x="0" y="0" width="375" height="540"/></clipPath><g id="container-svg container-body-svg datawrapper-M1VBB-1gvfeww-svg"><g id="container-svg container-bodyTop-svg datawrapper-M1VBB-lmtz6e-svg"><g id="container-svg container-bodyCenter-svg datawrapper-M1VBB-1fgvipr-svg"><g id="chart-svg"><rect width="242.5" height="261.25" transform="translate(38.6875, 139.734375)" fill="rgba(196,196,196,0.14)" style="fill: rgb(196, 196, 196); fill-opacity: 0.14;"/><g id="svg-main-svg" transform="translate(0, 131.54688)"><g id="group-svg" transform="translate(0, 8.20144)"><g id="x-grid-svg"/><g id="y-grid-svg"><g id="y-grid-lines-svg grid-y-svg datawrapper-M1VBB-1mqm0ow-svg"><line x1="0" x2="356.3" y1="0" y2="0" transform="translate(0, 7.79856)" style="fill: none; stroke-width: 1; stroke-linejoin: miter; stroke-linecap: butt; stroke: rgb(231, 231, 231);"/><line x1="0" x2="356.3" y1="0" y2="0" transform="translate(0, 46.79135)" style="fill: none; stroke-width: 1; stroke-linejoin: miter; stroke-linecap: butt; stroke: rgb(231, 231, 231);"/><line x1="0" x2="356.3" y1="0" y2="0" transform="translate(0, 85.78413)" style="fill: none; stroke-width: 1; stroke-linejoin: miter; stroke-linecap: butt; stroke: rgb(231, 231, 231);"/><line x1="0" x2="356.3" y1="0" y2="0" transform="translate(0, 124.77692)" style="fill: none; stroke-width: 1; stroke-linejoin: miter; stroke-linecap: butt; stroke: rgb(231, 231, 231);"/><line x1="0" x2="356.3" y1="0" y2="0" transform="translate(0, 163.76971)" style="fill: none; stroke-width: 1; stroke-linejoin: miter; stroke-linecap: butt; stroke: rgb(231, 231, 231);"/><line x1="0" x2="356.3" y1="0" y2="0" transform="translate(0, 202.7625)" style="fill: none; stroke-width: 1; stroke-linejoin: miter; stroke-linecap: butt; stroke: rgb(231, 231, 231);"/><line x1="0" x2="356.3" y1="0" y2="0" transform="translate(0, 241.75529)" style="fill: none; stroke-width: 1; stroke-linejoin: miter; stroke-linecap: butt; stroke: rgb(231, 231, 231);"/></g></g><g id="area-fills-svg"/><g id="lines-svg"><g id="SPC-svg"><g id="SPC-svg"><path d="M38.652,261.252L41.095,261.252L41.095,261.252L43.537,261.252L43.537,261.252L45.98,261.252L45.98,261.252L48.422,261.252L48.422,261.252L50.865,261.252L50.865,261.252L53.307,261.252L53.307,261.252L55.75,261.252L55.75,261.252L58.192,261.252L58.192,237.856L60.634,237.856L60.634,237.856L63.077,237.856L63.077,237.856L65.519,237.856L65.519,237.856L67.962,237.856L67.962,214.46L70.404,214.46L70.404,214.46L72.847,214.46L72.847,152.072L75.289,152.072L75.289,152.072L77.732,152.072L77.732,89.683L80.174,89.683L80.174,89.683L82.617,89.683L82.617,89.683L85.059,89.683L85.059,89.683L87.501,89.683L87.501,132.575L89.944,132.575L89.944,132.575L92.386,132.575L92.386,171.568L94.829,171.568L94.829,171.568L97.271,171.568L97.271,171.568L99.714,171.568L99.714,171.568L102.156,171.568L102.156,171.568L104.599,171.568L104.599,171.568L107.041,171.568L107.041,148.173L109.484,148.173L109.484,148.173L111.926,148.173L111.926,148.173L114.368,148.173L114.368,148.173L116.709,148.173L116.709,148.173L119.152,148.173L119.152,148.173L121.594,148.173L121.594,148.173L124.037,148.173L124.037,148.173L126.479,148.173L126.479,148.173L128.921,148.173L128.921,167.669L131.364,167.669L131.364,167.669L133.806,167.669L133.806,167.669L136.249,167.669L136.249,167.669L138.691,167.669L138.691,167.669L141.134,167.669L141.134,167.669L143.576,167.669L143.576,167.669L146.019,167.669L146.019,167.669L148.461,167.669L148.461,167.669L150.904,167.669L150.904,167.669L153.346,167.669L153.346,167.669L155.788,167.669L155.788,167.669L158.231,167.669L158.231,167.669L160.673,167.669L160.673,167.669L163.116,167.669L163.116,167.669L165.558,167.669L165.558,167.669L168.001,167.669L168.001,167.669L170.443,167.669L170.443,167.669L172.886,167.669L172.886,167.669L175.328,167.669L175.328,167.669L177.771,167.669L177.771,167.669L180.213,167.669L180.213,167.669L182.655,167.669L182.655,167.669L185.098,167.669L185.098,167.669L187.54,167.669L187.54,152.072L189.983,152.072L189.983,152.072L192.425,152.072L192.425,152.072L194.868,152.072L194.868,152.072L197.31,152.072L197.31,152.072L199.753,152.072L199.753,152.072L202.195,152.072L202.195,152.072L204.638,152.072L204.638,152.072L207.08,152.072L207.08,152.072L209.522,152.072L209.522,136.475L211.965,136.475L211.965,136.475L214.407,136.475L214.407,136.475L216.85,136.475L216.85,136.475L219.292,136.475L219.292,136.475L221.735,136.475L221.735,116.978L224.177,116.978L224.177,116.978L226.62,116.978L226.62,116.978L229.062,116.978L229.062,116.978L231.505,116.978L231.505,116.978L233.947,116.978L233.947,116.978L236.389,116.978L236.389,116.978L238.832,116.978L238.832,116.978L241.274,116.978L241.274,116.978L243.717,116.978L243.717,101.381L246.159,101.381L246.159,101.381L248.602,101.381L248.602,101.381L251.044,101.381L251.044,101.381L253.487,101.381L253.487,101.381L255.929,101.381L255.929,101.381L258.372,101.381L258.372,101.381L260.814,101.381L260.814,77.986L263.257,77.986L263.257,77.986L265.699,77.986L265.699,77.986L268.141,77.986L268.141,77.986L270.584,77.986L270.584,77.986L273.026,77.986L273.026,77.986L275.469,77.986L275.469,77.986L277.911,77.986L277.911,77.986L280.354,77.986L280.354,46.791L282.796,46.791L282.796,46.791L285.239,46.791L285.239,46.791L287.681,46.791L287.681,46.791L290.124,46.791L290.124,46.791L292.566,46.791L292.566,46.791L295.008,46.791L295.008,46.791L297.451,46.791L297.451,46.791L299.893,46.791L299.893,46.791L302.336,46.791L302.336,46.791L304.778,46.791L304.778,46.791L307.221,46.791L307.221,27.295L309.663,27.295L309.663,27.295L312.106,27.295L312.106,27.295L314.548,27.295L314.548,27.295L316.991,27.295L316.991,27.295L319.433,27.295L319.433,27.295L321.875,27.295L321.875,27.295L324.318,27.295L324.318,27.295L326.76,27.295L326.76,27.295L329.203,27.295L329.203,27.295L331.645,27.295L331.645,27.295L334.088,27.295L334.088,27.295L336.53,27.295L336.53,27.295L338.973,27.295L338.973,27.295L341.415,27.295L341.415,15.597L343.858,15.597L343.858,15.597L346.3,15.597L346.3,15.597" stroke="rgb(250,77,86)" id="SPC" style="fill: none; stroke-width: 1; stroke-linejoin: round; stroke-linecap: round; stroke: rgb(250, 77, 86);"/></g></g><g id="Caltex-svg"><g id="Caltex-svg"><path d="M38.652,233.957L41.095,233.957L41.095,222.259L43.537,222.259L43.537,222.259L45.98,222.259L45.98,222.259L48.422,222.259L48.422,222.259L50.865,222.259L50.865,222.259L53.307,222.259L53.307,210.561L55.75,210.561L55.75,210.561L58.192,210.561L58.192,202.762L60.634,202.762L60.634,171.568L63.077,171.568L63.077,171.568L65.519,171.568L65.519,171.568L67.962,171.568L67.962,171.568L70.404,171.568L70.404,140.374L72.847,140.374L72.847,140.374L75.289,140.374L75.289,77.986L77.732,77.986L77.732,77.986L80.174,77.986L80.174,85.784L82.617,85.784L82.617,85.784L85.059,85.784L85.059,128.676L87.501,128.676L87.501,128.676L89.944,128.676L89.944,128.676L92.386,128.676L92.386,167.669L94.829,167.669L94.829,167.669L97.271,167.669L97.271,167.669L99.714,167.669L99.714,167.669L102.156,167.669L102.156,167.669L104.599,167.669L104.599,144.273L107.041,144.273L107.041,144.273L109.484,144.273L109.484,144.273L111.926,144.273L111.926,144.273L114.368,144.273L114.368,144.273L116.709,144.273L116.709,144.273L119.152,144.273L119.152,144.273L121.594,144.273L121.594,144.273L124.037,144.273L124.037,144.273L126.479,144.273L126.479,144.273L128.921,144.273L128.921,144.273L131.364,144.273L131.364,163.77L133.806,163.77L133.806,163.77L136.249,163.77L136.249,163.77L138.691,163.77L138.691,163.77L141.134,163.77L141.134,163.77L143.576,163.77L143.576,163.77L146.019,163.77L146.019,163.77L148.461,163.77L148.461,163.77L150.904,163.77L150.904,163.77L153.346,163.77L153.346,163.77L155.788,163.77L155.788,163.77L158.231,163.77L158.231,148.173L160.673,148.173L160.673,148.173L163.116,148.173L163.116,148.173L165.558,148.173L165.558,148.173L168.001,148.173L168.001,148.173L170.443,148.173L170.443,148.173L172.886,148.173L172.886,148.173L175.328,148.173L175.328,132.575L177.771,132.575L177.771,132.575L180.213,132.575L180.213,132.575L182.655,132.575L182.655,140.374L185.098,140.374L185.098,140.374L187.54,140.374L187.54,140.374L189.983,140.374L189.983,140.374L192.425,140.374L192.425,120.878L194.868,120.878L194.868,120.878L197.31,120.878L197.31,120.878L199.753,120.878L199.753,120.878L202.195,120.878L202.195,120.878L204.638,120.878L204.638,120.878L207.08,120.878L207.08,120.878L209.522,120.878L209.522,120.878L211.965,120.878L211.965,105.281L214.407,105.281L214.407,105.281L216.85,105.281L216.85,89.683L219.292,89.683L219.292,89.683L221.735,89.683L221.735,89.683L224.177,89.683L224.177,89.683L226.62,89.683L226.62,89.683L229.062,89.683L229.062,89.683L231.505,89.683L231.505,89.683L233.947,89.683L233.947,89.683L236.389,89.683L236.389,89.683L238.832,89.683L238.832,89.683L241.274,89.683L241.274,66.288L243.717,66.288L243.717,66.288L246.159,66.288L246.159,66.288L248.602,66.288L248.602,66.288L251.044,66.288L251.044,66.288L253.487,66.288L253.487,66.288L255.929,66.288L255.929,66.288L258.372,66.288L258.372,66.288L260.814,66.288L260.814,54.59L263.257,54.59L263.257,54.59L265.699,54.59L265.699,54.59L268.141,54.59L268.141,54.59L270.584,54.59L270.584,54.59L273.026,54.59L273.026,54.59L275.469,54.59L275.469,35.094L277.911,35.094L277.911,35.094L280.354,35.094L280.354,35.094L282.796,35.094L282.796,35.094L285.239,35.094L285.239,35.094L287.681,35.094L287.681,35.094L290.124,35.094L290.124,35.094L292.566,35.094L292.566,35.094L295.008,35.094L295.008,15.597L297.451,15.597L297.451,15.597L299.893,15.597L299.893,15.597L302.336,15.597L302.336,15.597L304.778,15.597L304.778,15.597L307.221,15.597L307.221,15.597L309.663,15.597L309.663,15.597L312.106,15.597L312.106,15.597L314.548,15.597L314.548,0L316.991,0L316.991,0L319.433,0L319.433,0L321.875,0L321.875,0L324.318,0L324.318,0L326.76,0L326.76,0L329.203,0L329.203,0L331.645,0L331.645,0L334.088,0L334.088,0L336.53,0L336.53,0L338.973,0L338.973,0L341.415,0L341.415,0L343.858,0L343.858,0L346.3,0L346.3,0" stroke="rgb(0,157,154)" id="Caltex" style="fill: none; stroke-width: 1; stroke-linejoin: round; stroke-linecap: round; stroke: rgb(0, 157, 154);"/></g></g><g id="Shell-svg"><g id="Shell-svg"><path d="M38.652,222.259L41.095,222.259L41.095,222.259L43.537,222.259L43.537,222.259L45.98,222.259L45.98,222.259L48.422,222.259L48.422,222.259L50.865,222.259L50.865,222.259L53.307,222.259L53.307,222.259L55.75,222.259L55.75,202.762L58.192,202.762L58.192,171.568L60.634,171.568L60.634,171.568L63.077,171.568L63.077,171.568L65.519,171.568L65.519,171.568L67.962,171.568L67.962,140.374L70.404,140.374L70.404,74.086L72.847,74.086L72.847,74.086L75.289,74.086L75.289,74.086L77.732,74.086L77.732,85.784L80.174,85.784L80.174,85.784L82.617,85.784L82.617,85.784L85.059,85.784L85.059,128.676L87.501,128.676L87.501,128.676L89.944,128.676L89.944,128.676L92.386,128.676L92.386,167.669L94.829,167.669L94.829,167.669L97.271,167.669L97.271,167.669L99.714,167.669L99.714,167.669L102.156,167.669L102.156,144.273L104.599,144.273L104.599,144.273L107.041,144.273L107.041,128.676L109.484,128.676L109.484,128.676L111.926,128.676L111.926,128.676L114.368,128.676L114.368,128.676L116.709,128.676L116.709,128.676L119.152,128.676L119.152,128.676L121.594,128.676L121.594,144.273L124.037,144.273L124.037,144.273L126.479,144.273L126.479,144.273L128.921,144.273L128.921,144.273L131.364,144.273L131.364,155.971L133.806,155.971L133.806,155.971L136.249,155.971L136.249,155.971L138.691,155.971L138.691,155.971L141.134,155.971L141.134,155.971L143.576,155.971L143.576,155.971L146.019,155.971L146.019,155.971L148.461,155.971L148.461,155.971L150.904,155.971L150.904,155.971L153.346,155.971L153.346,155.971L155.788,155.971L155.788,155.971L158.231,155.971L158.231,155.971L160.673,155.971L160.673,144.273L163.116,144.273L163.116,144.273L165.558,144.273L165.558,144.273L168.001,144.273L168.001,144.273L170.443,144.273L170.443,144.273L172.886,144.273L172.886,128.676L175.328,128.676L175.328,128.676L177.771,128.676L177.771,128.676L180.213,128.676L180.213,140.374L182.655,140.374L182.655,140.374L185.098,140.374L185.098,140.374L187.54,140.374L187.54,140.374L189.983,140.374L189.983,140.374L192.425,140.374L192.425,140.374L194.868,140.374L194.868,120.878L197.31,120.878L197.31,120.878L199.753,120.878L199.753,120.878L202.195,120.878L202.195,120.878L204.638,120.878L204.638,120.878L207.08,120.878L207.08,120.878L209.522,120.878L209.522,105.281L211.965,105.281L211.965,105.281L214.407,105.281L214.407,89.683L216.85,89.683L216.85,89.683L219.292,89.683L219.292,89.683L221.735,89.683L221.735,89.683L224.177,89.683L224.177,89.683L226.62,89.683L226.62,89.683L229.062,89.683L229.062,89.683L231.505,89.683L231.505,89.683L233.947,89.683L233.947,89.683L236.389,89.683L236.389,89.683L238.832,89.683L238.832,89.683M246.159,66.288L248.602,66.288L248.602,66.288L251.044,66.288L251.044,66.288L253.487,66.288L253.487,66.288L255.929,66.288L255.929,66.288L258.372,66.288L258.372,54.59L260.814,54.59L260.814,54.59L263.257,54.59L263.257,54.59L265.699,54.59L265.699,54.59L268.141,54.59L268.141,54.59L270.584,54.59L270.584,54.59L273.026,54.59L273.026,54.59L275.469,54.59L275.469,35.094L277.911,35.094L277.911,35.094L280.354,35.094L280.354,35.094L282.796,35.094L282.796,35.094L285.239,35.094L285.239,35.094L287.681,35.094L287.681,35.094L290.124,35.094L290.124,35.094L292.566,35.094L292.566,35.094L295.008,35.094L295.008,15.597L297.451,15.597L297.451,15.597L299.893,15.597L299.893,15.597L302.336,15.597L302.336,15.597L304.778,15.597L304.778,15.597L307.221,15.597L307.221,15.597L309.663,15.597L309.663,15.597L312.106,15.597L312.106,0L314.548,0L314.548,0L316.991,0L316.991,0L319.433,0L319.433,0L321.875,0L321.875,0L324.318,0L324.318,0L326.76,0L326.76,0L329.203,0L329.203,0L331.645,0L331.645,0L334.088,0L334.088,0L336.53,0L336.53,0L338.973,0L338.973,0L341.415,0L341.415,0L343.858,0L343.858,0L346.3,0L346.3,0" stroke="rgb(165,110,255)" id="Shell" style="fill: none; stroke-width: 1; stroke-linejoin: round; stroke-linecap: round; stroke: rgb(165, 110, 255);"/></g></g></g><g id="x-grid-svg"><g id="x-tick-labels-svg date-axis-svg grid-x-svg datawrapper-M1VBB-inx4wh-svg svelte-qac4x9-svg" transform="translate(0, 266.25168)"><text transform="translate(50.86462, 12) translate(-10.53906, 0) translate(10.5390625, 0)" style="text-anchor: middle;"><tspan fill="rgb(116, 116, 116)" style="font-family: Roboto; font-weight: 400; font-stretch: 100%; font-size: 12px;" x="0" dominant-baseline="auto" y="0">Mar</tspan></text><text transform="translate(126.47898, 12) translate(-9.32031, 0) translate(9.320308685302734, 0)" style="text-anchor: middle;"><tspan fill="rgb(116, 116, 116)" style="font-family: Roboto; font-weight: 400; font-stretch: 100%; font-size: 12px;" x="0" dominant-baseline="auto" y="0">Apr</tspan></text><text transform="translate(199.75265, 12) translate(-11.45801, 0) translate(11.4580078125, 0)" style="text-anchor: middle;"><tspan fill="rgb(116, 116, 116)" style="font-family: Roboto; font-weight: 400; font-stretch: 100%; font-size: 12px;" x="0" dominant-baseline="auto" y="0">May</tspan></text><text transform="translate(275.46878, 12) translate(-9.9375, 0) translate(9.9375, 0)" style="text-anchor: middle;"><tspan fill="rgb(116, 116, 116)" style="font-family: Roboto; font-weight: 400; font-stretch: 100%; font-size: 12px;" x="0" dominant-baseline="auto" y="0">Jun</tspan></text><g id="highlighted-ticks-svg"/></g></g><g id="y-grid-svg"><g id="y-tick-labels-svg number-axis-svg grid-y-svg datawrapper-M1VBB-1fzbge6-svg"><text transform="translate(0, 236.75529) translate(0, 0)"><tspan fill="rgb(162, 162, 162)" style="font-family: Roboto; font-weight: 400; font-stretch: 100%; font-size: 12px;" x="0" dominant-baseline="auto" y="0">2.80</tspan></text><text transform="translate(0, 197.7625) translate(0, 0)"><tspan fill="rgb(162, 162, 162)" style="font-family: Roboto; font-weight: 400; font-stretch: 100%; font-size: 12px;" x="0" dominant-baseline="auto" y="0">2.90</tspan></text><text transform="translate(0, 158.76971) translate(0, 0)"><tspan fill="rgb(162, 162, 162)" style="font-family: Roboto; font-weight: 400; font-stretch: 100%; font-size: 12px;" x="0" dominant-baseline="auto" y="0">3.00</tspan></text><text transform="translate(0, 119.77692) translate(0, 0)"><tspan fill="rgb(162, 162, 162)" style="font-family: Roboto; font-weight: 400; font-stretch: 100%; font-size: 12px;" x="0" dominant-baseline="auto" y="0">3.10</tspan></text><text transform="translate(0, 80.78413) translate(0, 0)"><tspan fill="rgb(162, 162, 162)" style="font-family: Roboto; font-weight: 400; font-stretch: 100%; font-size: 12px;" x="0" dominant-baseline="auto" y="0">3.20</tspan></text><text transform="translate(0, 41.79135) translate(0, 0)"><tspan fill="rgb(162, 162, 162)" style="font-family: Roboto; font-weight: 400; font-stretch: 100%; font-size: 12px;" x="0" dominant-baseline="auto" y="0">3.30</tspan></text><text transform="translate(0, 2.79856) translate(0, 0)"><tspan fill="rgb(162, 162, 162)" style="font-family: Roboto; font-weight: 400; font-stretch: 100%; font-size: 12px;" x="0" dominant-baseline="auto" y="0">3.40</tspan></text></g></g><g id="value-labels-svg"><g id="SPC-svg"><g id="2.98-svg"><text transform="translate(-11.826171875, 0) translate(104.21254225417633, 177.06826896098124)" style="text-anchor: middle;"><tspan x="0" y="10.8" style="font-family: Roboto; font-weight: 400; font-stretch: 100%; font-size: 12px; stroke: rgb(255, 255, 255); stroke-width: 2; stroke-linejoin: miter; stroke-linecap: butt;">2.98</tspan></text><text transform="translate(-11.82617, 0) translate(104.21254225417633, 177.06826896098124)" style="text-anchor: middle;"><tspan fill="rgb(221, 47, 65)" style="font-family: Roboto; font-weight: 400; font-stretch: 100%; font-size: 12px;" x="0" y="10.8">2.98</tspan></text></g><g id="2.99-svg"><text transform="translate(-11.703125, 0) translate(196.80104511247106, 173.16899012095882)" style="text-anchor: middle;"><tspan x="0" y="10.8" style="font-family: Roboto; font-weight: 400; font-stretch: 100%; font-size: 12px; stroke: rgb(255, 255, 255); stroke-width: 2; stroke-linejoin: miter; stroke-linecap: butt;">2.99</tspan></text><text transform="translate(-11.70313, 0) translate(196.80104511247106, 173.16899012095882)" style="text-anchor: middle;"><tspan fill="rgb(221, 47, 65)" style="font-family: Roboto; font-weight: 400; font-stretch: 100%; font-size: 12px;" x="0" y="10.8">2.99</tspan></text></g></g><g id="Caltex-svg"/><g id="Shell-svg"><g id="3.23-svg"><text transform="translate(-23.40625, 0) translate(88.31051857633145, 74.08629796042369)" style="text-anchor: end;"><tspan x="0" y="3.6000000000000014" style="font-family: Roboto; font-weight: 400; font-stretch: 100%; font-size: 12px; stroke: rgb(255, 255, 255); stroke-width: 2; stroke-linejoin: miter; stroke-linecap: butt;">3.23</tspan></text><text transform="translate(-23.40625, 0) translate(88.31051857633145, 74.08629796042369)" style="text-anchor: end;"><tspan fill="rgb(143, 90, 233)" style="font-family: Roboto; font-weight: 400; font-stretch: 100%; font-size: 12px;" x="0" y="3.6000000000000014">3.23</tspan></text></g><g id="3.09-svg"><text transform="translate(-11.703125, 0) translate(118.74422991440622, 123.17620172073597)" style="text-anchor: middle;"><tspan x="0" dominant-baseline="alphabetic" y="0" style="font-family: Roboto; font-weight: 400; font-stretch: 100%; font-size: 12px; stroke: rgb(255, 255, 255); stroke-width: 2; stroke-linejoin: miter; stroke-linecap: butt;">3.09</tspan></text><text transform="translate(-11.70313, 0) translate(118.74422991440622, 123.17620172073597)" style="text-anchor: middle;"><tspan fill="rgb(143, 90, 233)" style="font-family: Roboto; font-weight: 400; font-stretch: 100%; font-size: 12px;" x="0" dominant-baseline="alphabetic" y="0">3.09</tspan></text></g></g></g><g id="inner-value-labels-svg"><g id="SPC-svg"><g id="3.38-svg"><text transform="translate(351.3, 21.82322179080913)"><tspan x="0" y="3.6000000000000014" style="font-family: Roboto; font-weight: 400; font-stretch: 100%; font-size: 12px; stroke: rgb(255, 255, 255); stroke-width: 2; stroke-linejoin: miter; stroke-linecap: butt;">3.38</tspan></text><text transform="translate(351.3, 21.82322179080913)"><tspan fill="rgb(221, 47, 65)" style="font-family: Roboto; font-weight: 400; font-stretch: 100%; font-size: 12px;" x="0" y="3.6000000000000014">3.38</tspan></text></g></g><g id="Caltex-svg"><g id="3.42-svg"><text transform="translate(351.3, 4.819084000447106)"><tspan x="0" y="3.6000000000000014" style="font-family: Roboto; font-weight: 400; font-stretch: 100%; font-size: 12px; stroke: rgb(255, 255, 255); stroke-width: 2; stroke-linejoin: miter; stroke-linecap: butt;">3.42</tspan></text><text transform="translate(351.3, 4.819084000447106)"><tspan fill="rgb(0, 135, 133)" style="font-family: Roboto; font-weight: 400; font-stretch: 100%; font-size: 12px;" x="0" y="3.6000000000000014">3.42</tspan></text></g></g><g id="Shell-svg"><g id="3.42-svg"><text transform="translate(351.3, -11.045190431167017)"><tspan x="0" y="3.6000000000000014" style="font-family: Roboto; font-weight: 400; font-stretch: 100%; font-size: 12px; stroke: rgb(255, 255, 255); stroke-width: 2; stroke-linejoin: miter; stroke-linecap: butt;">3.42</tspan></text><text transform="translate(351.3, -11.045190431167017)"><tspan fill="rgb(143, 90, 233)" style="font-family: Roboto; font-weight: 400; font-stretch: 100%; font-size: 12px;" x="0" y="3.6000000000000014">3.42</tspan></text></g></g></g></g></g><circle r="11" cx="11" cy="442" style="fill: none; stroke-width: 1; stroke: rgb(24, 24, 24);"/><text transform="translate(7.546875, 435)"><tspan fill="rgb(24,24,24)" x="0" y="12" style="font-family: Roboto; font-weight: 700; font-stretch: 100%; font-size: 12px;">1</tspan></text><text transform="translate(27, 435)"><tspan fill="rgb(24,24,24)" x="0" y="12" style="font-family: Roboto; font-weight: 400; font-stretch: 100%; font-size: 12px;">Russia invades Ukraine...</tspan></text><circle r="11" cx="11" cy="469" style="fill: none; stroke-width: 1; stroke: rgb(24, 24, 24);"/><text transform="translate(7.546875, 462)"><tspan fill="rgb(24,24,24)" x="0" y="12" style="font-family: Roboto; font-weight: 700; font-stretch: 100%; font-size: 12px;">2</tspan></text><text transform="translate(27, 462)"><tspan fill="rgb(24,24,24)" x="0" y="12" style="font-family: Roboto; font-weight: 400; font-stretch: 100%; font-size: 12px;">Mar 8: U.S. bans Russian oil imports.</tspan></text><circle r="11" cx="11" cy="496" style="fill: none; stroke-width: 1; stroke: rgb(24, 24, 24);"/><text transform="translate(7.546875, 489)"><tspan fill="rgb(24,24,24)" x="0" y="12" style="font-family: Roboto; font-weight: 700; font-stretch: 100%; font-size: 12px;">3</tspan></text><text transform="translate(27, 489)"><tspan fill="rgb(24,24,24)" x="0" y="12" style="font-family: Roboto; font-weight: 400; font-stretch: 100%; font-size: 12px;">Jun 3: EU imposes oil ban too.</tspan></text><g id="legend-color-svg svelte-gkg0al-svg" transform="translate(0, 106.15625)"><line x1="0.5" x2="15.5" y1="7" y2="7" style="fill: none; stroke-width: 1; stroke-linejoin: miter; stroke-linecap: round; stroke: rgb(165, 110, 255);"/></g><text transform="translate(19, 105.75)"><tspan fill="rgb(24,24,24)" x="0" y="12" style="font-family: Roboto; font-weight: 400; font-stretch: 100%; font-size: 12px;">Shell</tspan></text><g id="legend-color-svg svelte-gkg0al-svg" transform="translate(54.9375, 106.15625)"><line x1="0.5" x2="15.5" y1="7" y2="7" style="fill: none; stroke-width: 1; stroke-linejoin: miter; stroke-linecap: round; stroke: rgb(0, 157, 154);"/></g><text transform="translate(73.9375, 105.75)"><tspan fill="rgb(24,24,24)" x="0" y="12" style="font-family: Roboto; font-weight: 400; font-stretch: 100%; font-size: 12px;">Caltex</tspan></text><g id="legend-color-svg svelte-gkg0al-svg" transform="translate(117.4375, 106.15625)"><line x1="0.5" x2="15.5" y1="7" y2="7" style="fill: none; stroke-width: 1; stroke-linejoin: miter; stroke-linecap: round; stroke: rgb(250, 77, 86);"/></g><text transform="translate(136.4375, 105.75)"><tspan fill="rgb(24,24,24)" x="0" y="12" style="font-family: Roboto; font-weight: 400; font-stretch: 100%; font-size: 12px;">SPC</tspan></text><circle r="11" cx="243" cy="161.734375" style="fill: rgb(255, 255, 255); fill-opacity: 0.7; stroke-width: 1; stroke: rgb(24, 24, 24);"/><text transform="translate(239.546875, 154.53125)"><tspan fill="rgb(24,24,24)" x="0" y="12" style="font-family: Roboto; font-weight: 700; font-stretch: 100%; font-size: 12px;">3</tspan></text><circle r="11" cx="78" cy="189.734375" style="fill: rgb(255, 255, 255); fill-opacity: 0.7; stroke-width: 1; stroke: rgb(24, 24, 24);"/><text transform="translate(74.546875, 182.53125)"><tspan fill="rgb(24,24,24)" x="0" y="12" style="font-family: Roboto; font-weight: 700; font-stretch: 100%; font-size: 12px;">2</tspan></text><circle r="11" cx="56" cy="155.734375" style="fill: rgb(255, 255, 255); fill-opacity: 0.7; stroke-width: 1; stroke: rgb(24, 24, 24);"/><text transform="translate(52.546875, 148.53125)"><tspan fill="rgb(24,24,24)" x="0" y="12" style="font-family: Roboto; font-weight: 700; font-stretch: 100%; font-size: 12px;">1</tspan></text><g id="tooltip-layer-svg" transform="translate(0, 131.54688)"><g id="group-svg" transform="translate(0, 8.20144)"/></g></g><g id="container-svg container-header-svg datawrapper-M1VBB-xp3kt5-svg"><text transform="translate(0, 0)"><tspan fill="rgb(0,0,0)" x="0" y="22" style="font-family: Roboto; font-weight: 700; font-stretch: 100%; font-size: 22px;">The climb to a record pump price</tspan><tspan fill="rgb(0,0,0)" x="0" y="47" style="font-family: Roboto; font-weight: 700; font-stretch: 100%; font-size: 22px;">took four months in 2022...</tspan></text><text transform="translate(0, 60)"><tspan fill="rgb(24,24,24)" x="0" y="14" style="font-family: Roboto; font-weight: 400; font-stretch: 100%; font-size: 14px;">95-octane prices following the Feb 24 Ukraine invasion, in</tspan><tspan fill="rgb(24,24,24)" x="0" y="31" style="font-family: Roboto; font-weight: 400; font-stretch: 100%; font-size: 14px;">S$ per litre</tspan></text></g></g></g><g id="container-svg container-footer-svg datawrapper-M1VBB-1la8dcw-svg"><text transform="translate(0, 527)"><tspan fill="rgb(136,136,136)" x="0" y="11" style="font-family: Roboto; font-weight: 400; font-stretch: 100%; font-size: 11px;">Chart:</tspan><tspan fill="rgb(136,136,136)" dx="2.734375" style="font-family: Roboto; font-weight: 400; font-stretch: 100%; font-size: 11px;">Wong Pei Ting</tspan><tspan fill="rgb(136,136,136)" dx="2.739" style="font-family: Roboto; font-weight: 400; font-stretch: 100%; font-size: 11px;">•</tspan><tspan fill="rgb(136,136,136)" dx="2.739" style="font-family: Roboto; font-weight: 400; font-stretch: 100%; font-size: 11px;">Source:</tspan><tspan fill="rgb(136,136,136)" dx="2.734375" style="font-family: Roboto; font-weight: 400; font-stretch: 100%; font-size: 11px;">ChenLim.Com</tspan><tspan fill="rgb(136,136,136)" dx="2.739" style="font-family: Roboto; font-weight: 400; font-stretch: 100%; font-size: 11px;">•</tspan><tspan fill="rgb(136,136,136)" dx="2.739" style="font-family: Roboto; font-weight: 400; font-stretch: 100%; font-size: 11px;">Created with</tspan><tspan fill="rgb(136,136,136)" dx="2.734375" style="font-family: Roboto; font-weight: 400; font-stretch: 100%; font-size: 11px;">Datawrapper</tspan></text></g></g></g></g></g></svg>