<svg xmlns="http://www.w3.org/2000/svg" xmlns:xlink="http://www.w3.org/1999/xlink" id="exportSvg" width="375" height="700"><defs/><g><g><g id="__svelte-dw-svg" clip-path="url(#rect-mask-Yoi1kAEioKfrODwDuMWQt)"><clipPath id="rect-mask-Yoi1kAEioKfrODwDuMWQt"><rect x="0" y="0" width="375" height="700"/></clipPath><g id="container-svg container-body-svg datawrapper-svubD-1gvfeww-svg"><g id="container-svg container-bodyTop-svg datawrapper-svubD-lmtz6e-svg"><g id="container-svg container-bodyCenter-svg datawrapper-svubD-1fgvipr-svg"><g id="container-svg container-header-svg datawrapper-svubD-xp3kt5-svg"><text transform="translate(0, 0)"><tspan fill="rgb(0,0,0)" x="0" y="22" style="font-family: Roboto; font-weight: 700; font-stretch: 100%; font-size: 22px;">Signs of 'up fast, down slow'</tspan></text><text transform="translate(0, 35)"><tspan fill="rgb(24,24,24)" x="0" y="14" style="font-family: Roboto; font-weight: 400; font-stretch: 100%; font-size: 14px;">Each dot is one month. In recent years, pump prices have</tspan><tspan fill="rgb(24,24,24)" x="0" y="31" style="font-family: Roboto; font-weight: 400; font-stretch: 100%; font-size: 14px;">surged with crude oil spikes but become stickier on the way</tspan><tspan fill="rgb(24,24,24)" x="0" y="48" style="font-family: Roboto; font-weight: 400; font-stretch: 100%; font-size: 14px;">down — a pattern less visible before 2021.</tspan></text></g><g id="chart-svg"><g id="group-svg" clip-path="url(#rect-mask-Feds-L0JpBC-w35_NJNHs)" transform="translate(0, 96)"><clipPath id="rect-mask-Feds-L0JpBC-w35_NJNHs"><rect x="0" y="0" width="375" height="384"/></clipPath><g id="group-svg" transform="translate(26.48828, 0)"><g id="grid-svg"><g id="y-grid-svg"><g id="y-grid-lines-svg grid-y-svg datawrapper-svubD-1mqm0ow-svg"><line x1="0" x2="346" y1="0" y2="0" transform="translate(0, 47.0624)" style="fill: none; stroke-width: 1; stroke-linejoin: miter; stroke-linecap: butt; stroke: rgb(231, 231, 231);"/><line x1="0" x2="346" y1="0" y2="0" transform="translate(0, 108.45348)" style="fill: none; stroke-width: 1; stroke-linejoin: miter; stroke-linecap: butt; stroke: rgb(231, 231, 231);"/><line x1="0" x2="346" y1="0" y2="0" transform="translate(0, 169.84457)" style="fill: none; stroke-width: 1; stroke-linejoin: miter; stroke-linecap: butt; stroke: rgb(231, 231, 231);"/><line x1="0" x2="346" y1="0" y2="0" transform="translate(0, 231.23565)" style="fill: none; stroke-width: 1; stroke-linejoin: miter; stroke-linecap: butt; stroke: rgb(231, 231, 231);"/><line x1="0" x2="346" y1="0" y2="0" transform="translate(0, 292.62673)" style="fill: none; stroke-width: 1; stroke-linejoin: miter; stroke-linecap: butt; stroke: rgb(231, 231, 231);"/><line x1="0" x2="346" y1="0" y2="0" transform="translate(0, 354.01781)" style="fill: none; stroke-width: 1; stroke-linejoin: miter; stroke-linecap: butt; stroke: rgb(231, 231, 231);"/></g></g><g id="x-grid-svg"><g id="x-grid-lines-svg grid-x-svg datawrapper-svubD-1mqm0ow-svg"><line x1="0" x2="0" y1="364" y2="0" transform="translate(68.72851, 0)" style="fill: none; stroke-width: 1; stroke-linejoin: miter; stroke-linecap: butt; stroke: rgb(231, 231, 231);"/><line x1="0" x2="0" y1="364" y2="0" transform="translate(159.39937, 0)" style="fill: none; stroke-width: 1; stroke-linejoin: miter; stroke-linecap: butt; stroke: rgb(231, 231, 231);"/><line x1="0" x2="0" y1="364" y2="0" transform="translate(250.07023, 0)" style="fill: none; stroke-width: 1; stroke-linejoin: miter; stroke-linecap: butt; stroke: rgb(231, 231, 231);"/><line x1="0" x2="0" y1="364" y2="0" transform="translate(340.74109, 0)" style="fill: none; stroke-width: 1; stroke-linejoin: miter; stroke-linecap: butt; stroke: rgb(231, 231, 231);"/></g></g></g><g id="dots-svg"><g id="dot-svg" transform="translate(52.40776, 321.17358)"><path d="M2.5,0A2.5,2.5,0,1,1,-2.5,0A2.5,2.5,0,1,1,2.5,0" style="fill: rgb(196, 196, 196);"/></g><g id="dot-svg" transform="translate(39.71384, 316.63064)"><path d="M2.5,0A2.5,2.5,0,1,1,-2.5,0A2.5,2.5,0,1,1,2.5,0" style="fill: rgb(196, 196, 196);"/></g><g id="dot-svg" transform="translate(46.96751, 298.12123)"><path d="M2.5,0A2.5,2.5,0,1,1,-2.5,0A2.5,2.5,0,1,1,2.5,0" style="fill: rgb(196, 196, 196);"/></g><g id="dot-svg" transform="translate(45.15409, 287.77683)"><path d="M2.5,0A2.5,2.5,0,1,1,-2.5,0A2.5,2.5,0,1,1,2.5,0" style="fill: rgb(196, 196, 196);"/></g><g id="dot-svg" transform="translate(59.66143, 267.30291)"><path d="M2.5,0A2.5,2.5,0,1,1,-2.5,0A2.5,2.5,0,1,1,2.5,0" style="fill: rgb(196, 196, 196);"/></g><g id="dot-svg" transform="translate(56.03459, 277.06409)"><path d="M2.5,0A2.5,2.5,0,1,1,-2.5,0A2.5,2.5,0,1,1,2.5,0" style="fill: rgb(196, 196, 196);"/></g><g id="dot-svg" transform="translate(50.59434, 274.70053)"><path d="M2.5,0A2.5,2.5,0,1,1,-2.5,0A2.5,2.5,0,1,1,2.5,0" style="fill: rgb(196, 196, 196);"/></g><g id="dot-svg" transform="translate(59.66143, 272.45976)"><path d="M2.5,0A2.5,2.5,0,1,1,-2.5,0A2.5,2.5,0,1,1,2.5,0" style="fill: rgb(196, 196, 196);"/></g><g id="dot-svg" transform="translate(70.54193, 263.40457)"><path d="M2.5,0A2.5,2.5,0,1,1,-2.5,0A2.5,2.5,0,1,1,2.5,0" style="fill: rgb(196, 196, 196);"/></g><g id="dot-svg" transform="translate(72.35535, 276.45018)"><path d="M2.5,0A2.5,2.5,0,1,1,-2.5,0A2.5,2.5,0,1,1,2.5,0" style="fill: rgb(196, 196, 196);"/></g><g id="dot-svg" transform="translate(79.60901, 246.82898)"><path d="M2.5,0A2.5,2.5,0,1,1,-2.5,0A2.5,2.5,0,1,1,2.5,0" style="fill: rgb(196, 196, 196);"/></g><g id="dot-svg" transform="translate(81.42243, 244.98725)"><path d="M2.5,0A2.5,2.5,0,1,1,-2.5,0A2.5,2.5,0,1,1,2.5,0" style="fill: rgb(196, 196, 196);"/></g><g id="dot-svg" transform="translate(88.6761, 244.28125)"><path d="M2.5,0A2.5,2.5,0,1,1,-2.5,0A2.5,2.5,0,1,1,2.5,0" style="fill: rgb(196, 196, 196);"/></g><g id="dot-svg" transform="translate(86.86268, 257.0506)"><path d="M2.5,0A2.5,2.5,0,1,1,-2.5,0A2.5,2.5,0,1,1,2.5,0" style="fill: rgb(196, 196, 196);"/></g><g id="dot-svg" transform="translate(88.6761, 254.47217)"><path d="M2.5,0A2.5,2.5,0,1,1,-2.5,0A2.5,2.5,0,1,1,2.5,0" style="fill: rgb(196, 196, 196);"/></g><g id="dot-svg" transform="translate(88.6761, 259.32207)"><path d="M2.5,0A2.5,2.5,0,1,1,-2.5,0A2.5,2.5,0,1,1,2.5,0" style="fill: rgb(196, 196, 196);"/></g><g id="dot-svg" transform="translate(85.04927, 271.13985)"><path d="M2.5,0A2.5,2.5,0,1,1,-2.5,0A2.5,2.5,0,1,1,2.5,0" style="fill: rgb(196, 196, 196);"/></g><g id="dot-svg" transform="translate(85.04927, 265.277)"><path d="M2.5,0A2.5,2.5,0,1,1,-2.5,0A2.5,2.5,0,1,1,2.5,0" style="fill: rgb(196, 196, 196);"/></g><g id="dot-svg" transform="translate(88.6761, 257.08129)"><path d="M2.5,0A2.5,2.5,0,1,1,-2.5,0A2.5,2.5,0,1,1,2.5,0" style="fill: rgb(196, 196, 196);"/></g><g id="dot-svg" transform="translate(95.92977, 245.07934)"><path d="M2.5,0A2.5,2.5,0,1,1,-2.5,0A2.5,2.5,0,1,1,2.5,0" style="fill: rgb(196, 196, 196);"/></g><g id="dot-svg" transform="translate(101.37002, 239.33927)"><path d="M2.5,0A2.5,2.5,0,1,1,-2.5,0A2.5,2.5,0,1,1,2.5,0" style="fill: rgb(196, 196, 196);"/></g><g id="dot-svg" transform="translate(110.43711, 223.00924)"><path d="M2.5,0A2.5,2.5,0,1,1,-2.5,0A2.5,2.5,0,1,1,2.5,0" style="fill: rgb(196, 196, 196);"/></g><g id="dot-svg" transform="translate(108.62369, 217.8217)"><path d="M2.5,0A2.5,2.5,0,1,1,-2.5,0A2.5,2.5,0,1,1,2.5,0" style="fill: rgb(196, 196, 196);"/></g><g id="dot-svg" transform="translate(110.43711, 203.3641)"><path d="M2.5,0A2.5,2.5,0,1,1,-2.5,0A2.5,2.5,0,1,1,2.5,0" style="fill: rgb(196, 196, 196);"/></g><g id="dot-svg" transform="translate(108.62369, 213.6471)"><path d="M2.5,0A2.5,2.5,0,1,1,-2.5,0A2.5,2.5,0,1,1,2.5,0" style="fill: rgb(196, 196, 196);"/></g><g id="dot-svg" transform="translate(106.81027, 212.75693)"><path d="M2.5,0A2.5,2.5,0,1,1,-2.5,0A2.5,2.5,0,1,1,2.5,0" style="fill: rgb(196, 196, 196);"/></g><g id="dot-svg" transform="translate(112.25052, 194.06335)"><path d="M2.5,0A2.5,2.5,0,1,1,-2.5,0A2.5,2.5,0,1,1,2.5,0" style="fill: rgb(196, 196, 196);"/></g><g id="dot-svg" transform="translate(119.50419, 179.11462)"><path d="M2.5,0A2.5,2.5,0,1,1,-2.5,0A2.5,2.5,0,1,1,2.5,0" style="fill: rgb(196, 196, 196);"/></g><g id="dot-svg" transform="translate(121.31761, 187.00337)"><path d="M2.5,0A2.5,2.5,0,1,1,-2.5,0A2.5,2.5,0,1,1,2.5,0" style="fill: rgb(196, 196, 196);"/></g><g id="dot-svg" transform="translate(123.13103, 187.4945)"><path d="M2.5,0A2.5,2.5,0,1,1,-2.5,0A2.5,2.5,0,1,1,2.5,0" style="fill: rgb(196, 196, 196);"/></g><g id="dot-svg" transform="translate(124.94444, 192.77413)"><path d="M2.5,0A2.5,2.5,0,1,1,-2.5,0A2.5,2.5,0,1,1,2.5,0" style="fill: rgb(196, 196, 196);"/></g><g id="dot-svg" transform="translate(132.19811, 173.25177)"><path d="M2.5,0A2.5,2.5,0,1,1,-2.5,0A2.5,2.5,0,1,1,2.5,0" style="fill: rgb(196, 196, 196);"/></g><g id="dot-svg" transform="translate(139.45178, 166.68293)"><path d="M2.5,0A2.5,2.5,0,1,1,-2.5,0A2.5,2.5,0,1,1,2.5,0" style="fill: rgb(196, 196, 196);"/></g><g id="dot-svg" transform="translate(123.13103, 216.65527)"><path d="M2.5,0A2.5,2.5,0,1,1,-2.5,0A2.5,2.5,0,1,1,2.5,0" style="fill: rgb(196, 196, 196);"/></g><g id="dot-svg" transform="translate(108.62369, 239.33927)"><path d="M2.5,0A2.5,2.5,0,1,1,-2.5,0A2.5,2.5,0,1,1,2.5,0" style="fill: rgb(196, 196, 196);"/></g><g id="dot-svg" transform="translate(103.18344, 233.04668)"><path d="M2.5,0A2.5,2.5,0,1,1,-2.5,0A2.5,2.5,0,1,1,2.5,0" style="fill: rgb(196, 196, 196);"/></g><g id="dot-svg" transform="translate(104.99686, 219.47926)"><path d="M2.5,0A2.5,2.5,0,1,1,-2.5,0A2.5,2.5,0,1,1,2.5,0" style="fill: rgb(196, 196, 196);"/></g><g id="dot-svg" transform="translate(112.25052, 212.38859)"><path d="M2.5,0A2.5,2.5,0,1,1,-2.5,0A2.5,2.5,0,1,1,2.5,0" style="fill: rgb(196, 196, 196);"/></g><g id="dot-svg" transform="translate(121.31761, 196.76456)"><path d="M2.5,0A2.5,2.5,0,1,1,-2.5,0A2.5,2.5,0,1,1,2.5,0" style="fill: rgb(196, 196, 196);"/></g><g id="dot-svg" transform="translate(126.75786, 199.8648)"><path d="M2.5,0A2.5,2.5,0,1,1,-2.5,0A2.5,2.5,0,1,1,2.5,0" style="fill: rgb(196, 196, 196);"/></g><g id="dot-svg" transform="translate(117.69078, 221.13681)"><path d="M2.5,0A2.5,2.5,0,1,1,-2.5,0A2.5,2.5,0,1,1,2.5,0" style="fill: rgb(196, 196, 196);"/></g><g id="dot-svg" transform="translate(115.87736, 219.203)"><path d="M2.5,0A2.5,2.5,0,1,1,-2.5,0A2.5,2.5,0,1,1,2.5,0" style="fill: rgb(196, 196, 196);"/></g><g id="dot-svg" transform="translate(114.06394, 234.18242)"><path d="M2.5,0A2.5,2.5,0,1,1,-2.5,0A2.5,2.5,0,1,1,2.5,0" style="fill: rgb(196, 196, 196);"/></g><g id="dot-svg" transform="translate(119.50419, 222.54881)"><path d="M2.5,0A2.5,2.5,0,1,1,-2.5,0A2.5,2.5,0,1,1,2.5,0" style="fill: rgb(196, 196, 196);"/></g><g id="dot-svg" transform="translate(121.31761, 232.12582)"><path d="M2.5,0A2.5,2.5,0,1,1,-2.5,0A2.5,2.5,0,1,1,2.5,0" style="fill: rgb(196, 196, 196);"/></g><g id="dot-svg" transform="translate(124.94444, 221.38238)"><path d="M2.5,0A2.5,2.5,0,1,1,-2.5,0A2.5,2.5,0,1,1,2.5,0" style="fill: rgb(196, 196, 196);"/></g><g id="dot-svg" transform="translate(130.3847, 208.79721)"><path d="M2.5,0A2.5,2.5,0,1,1,-2.5,0A2.5,2.5,0,1,1,2.5,0" style="fill: rgb(196, 196, 196);"/></g><g id="dot-svg" transform="translate(130.3847, 220.03177)"><path d="M2.5,0A2.5,2.5,0,1,1,-2.5,0A2.5,2.5,0,1,1,2.5,0" style="fill: rgb(196, 196, 196);"/></g><g id="dot-svg" transform="translate(121.31761, 244.55751)"><path d="M2.5,0A2.5,2.5,0,1,1,-2.5,0A2.5,2.5,0,1,1,2.5,0" style="fill: rgb(196, 196, 196);"/></g><g id="dot-svg" transform="translate(101.37002, 311.87283)"><path d="M2.5,0A2.5,2.5,0,1,1,-2.5,0A2.5,2.5,0,1,1,2.5,0" style="fill: rgb(196, 196, 196);"/></g><g id="dot-svg" transform="translate(85.04927, 333.66667)"><path d="M2.5,0A2.5,2.5,0,1,1,-2.5,0A2.5,2.5,0,1,1,2.5,0" style="fill: rgb(196, 196, 196);"/></g><g id="dot-svg" transform="translate(70.54193, 325.22539)"><path d="M2.5,0A2.5,2.5,0,1,1,-2.5,0A2.5,2.5,0,1,1,2.5,0" style="fill: rgb(196, 196, 196);"/></g><g id="dot-svg" transform="translate(70.54193, 291.79795)"><path d="M2.5,0A2.5,2.5,0,1,1,-2.5,0A2.5,2.5,0,1,1,2.5,0" style="fill: rgb(196, 196, 196);"/></g><g id="dot-svg" transform="translate(72.35535, 282.68137)"><path d="M2.5,0A2.5,2.5,0,1,1,-2.5,0A2.5,2.5,0,1,1,2.5,0" style="fill: rgb(196, 196, 196);"/></g><g id="dot-svg" transform="translate(74.16876, 278.07704)"><path d="M2.5,0A2.5,2.5,0,1,1,-2.5,0A2.5,2.5,0,1,1,2.5,0" style="fill: rgb(196, 196, 196);"/></g><g id="dot-svg" transform="translate(74.16876, 289.77204)"><path d="M2.5,0A2.5,2.5,0,1,1,-2.5,0A2.5,2.5,0,1,1,2.5,0" style="fill: rgb(196, 196, 196);"/></g><g id="dot-svg" transform="translate(75.98218, 291.95143)"><path d="M2.5,0A2.5,2.5,0,1,1,-2.5,0A2.5,2.5,0,1,1,2.5,0" style="fill: rgb(196, 196, 196);"/></g><g id="dot-svg" transform="translate(72.35535, 282.12885)"><path d="M2.5,0A2.5,2.5,0,1,1,-2.5,0A2.5,2.5,0,1,1,2.5,0" style="fill: rgb(196, 196, 196);"/></g><g id="dot-svg" transform="translate(77.7956, 261.96188)"><path d="M2.5,0A2.5,2.5,0,1,1,-2.5,0A2.5,2.5,0,1,1,2.5,0" style="fill: rgb(196, 196, 196);"/></g><g id="dot-svg" transform="translate(75.98218, 66.00155)"><path d="M2.5,0A2.5,2.5,0,1,1,-2.5,0A2.5,2.5,0,1,1,2.5,0" style="fill: rgb(133, 133, 133);"/></g><g id="dot-svg" transform="translate(79.60901, 57.92862)"><path d="M2.5,0A2.5,2.5,0,1,1,-2.5,0A2.5,2.5,0,1,1,2.5,0" style="fill: rgb(133, 133, 133);"/></g><g id="dot-svg" transform="translate(77.7956, 77.72725)"><path d="M2.5,0A2.5,2.5,0,1,1,-2.5,0A2.5,2.5,0,1,1,2.5,0" style="fill: rgb(133, 133, 133);"/></g><g id="dot-svg" transform="translate(79.60901, 69.22458)"><path d="M2.5,0A2.5,2.5,0,1,1,-2.5,0A2.5,2.5,0,1,1,2.5,0" style="fill: rgb(133, 133, 133);"/></g><g id="dot-svg" transform="translate(86.86268, 79.38481)"><path d="M2.5,0A2.5,2.5,0,1,1,-2.5,0A2.5,2.5,0,1,1,2.5,0" style="fill: rgb(133, 133, 133);"/></g><g id="dot-svg" transform="translate(85.04927, 75.39439)"><path d="M2.5,0A2.5,2.5,0,1,1,-2.5,0A2.5,2.5,0,1,1,2.5,0" style="fill: rgb(133, 133, 133);"/></g><g id="dot-svg" transform="translate(83.23585, 84.29609)"><path d="M2.5,0A2.5,2.5,0,1,1,-2.5,0A2.5,2.5,0,1,1,2.5,0" style="fill: rgb(133, 133, 133);"/></g><g id="dot-svg" transform="translate(88.6761, 75.67065)"><path d="M2.5,0A2.5,2.5,0,1,1,-2.5,0A2.5,2.5,0,1,1,2.5,0" style="fill: rgb(133, 133, 133);"/></g><g id="dot-svg" transform="translate(95.92977, 48.68927)"><path d="M2.5,0A2.5,2.5,0,1,1,-2.5,0A2.5,2.5,0,1,1,2.5,0" style="fill: rgb(133, 133, 133);"/></g><g id="dot-svg" transform="translate(106.81027, 30.33333)"><path d="M2.5,0A2.5,2.5,0,1,1,-2.5,0A2.5,2.5,0,1,1,2.5,0" style="fill: rgb(133, 133, 133);"/></g><g id="dot-svg" transform="translate(106.81027, 47.82979)"><path d="M2.5,0A2.5,2.5,0,1,1,-2.5,0A2.5,2.5,0,1,1,2.5,0" style="fill: rgb(133, 133, 133);"/></g><g id="dot-svg" transform="translate(90.48952, 76.16178)"><path d="M2.5,0A2.5,2.5,0,1,1,-2.5,0A2.5,2.5,0,1,1,2.5,0" style="fill: rgb(133, 133, 133);"/></g><g id="dot-svg" transform="translate(72.35535, 121.99022)"><path d="M2.5,0A2.5,2.5,0,1,1,-2.5,0A2.5,2.5,0,1,1,2.5,0" style="fill: rgb(133, 133, 133);"/></g><g id="dot-svg" transform="translate(68.72851, 100.50334)"><path d="M2.5,0A2.5,2.5,0,1,1,-2.5,0A2.5,2.5,0,1,1,2.5,0" style="fill: rgb(133, 133, 133);"/></g><g id="dot-svg" transform="translate(88.6761, 67.50563)"><path d="M2.5,0A2.5,2.5,0,1,1,-2.5,0A2.5,2.5,0,1,1,2.5,0" style="fill: rgb(133, 133, 133);"/></g><g id="dot-svg" transform="translate(95.92977, 69.00971)"><path d="M2.5,0A2.5,2.5,0,1,1,-2.5,0A2.5,2.5,0,1,1,2.5,0" style="fill: rgb(133, 133, 133);"/></g><g id="dot-svg" transform="translate(94.11635, 71.71092)"><path d="M2.5,0A2.5,2.5,0,1,1,-2.5,0A2.5,2.5,0,1,1,2.5,0" style="fill: rgb(133, 133, 133);"/></g><g id="dot-svg" transform="translate(81.42243, 80.70472)"><path d="M2.5,0A2.5,2.5,0,1,1,-2.5,0A2.5,2.5,0,1,1,2.5,0" style="fill: rgb(133, 133, 133);"/></g><g id="dot-svg" transform="translate(85.04927, 79.32342)"><path d="M2.5,0A2.5,2.5,0,1,1,-2.5,0A2.5,2.5,0,1,1,2.5,0" style="fill: rgb(133, 133, 133);"/></g><g id="dot-svg" transform="translate(92.30294, 68.70276)"><path d="M2.5,0A2.5,2.5,0,1,1,-2.5,0A2.5,2.5,0,1,1,2.5,0" style="fill: rgb(133, 133, 133);"/></g><g id="dot-svg" transform="translate(108.62369, 57.92862)"><path d="M2.5,0A2.5,2.5,0,1,1,-2.5,0A2.5,2.5,0,1,1,2.5,0" style="fill: rgb(133, 133, 133);"/></g><g id="dot-svg" transform="translate(103.18344, 82.45436)"><path d="M2.5,0A2.5,2.5,0,1,1,-2.5,0A2.5,2.5,0,1,1,2.5,0" style="fill: rgb(133, 133, 133);"/></g><g id="dot-svg" transform="translate(88.6761, 101.54699)"><path d="M2.5,0A2.5,2.5,0,1,1,-2.5,0A2.5,2.5,0,1,1,2.5,0" style="fill: rgb(133, 133, 133);"/></g><g id="dot-svg" transform="translate(85.04927, 100.68751)"><path d="M2.5,0A2.5,2.5,0,1,1,-2.5,0A2.5,2.5,0,1,1,2.5,0" style="fill: rgb(133, 133, 133);"/></g><g id="dot-svg" transform="translate(90.48952, 99.49039)"><path d="M2.5,0A2.5,2.5,0,1,1,-2.5,0A2.5,2.5,0,1,1,2.5,0" style="fill: rgb(133, 133, 133);"/></g><g id="dot-svg" transform="translate(104.99686, 84.75653)"><path d="M2.5,0A2.5,2.5,0,1,1,-2.5,0A2.5,2.5,0,1,1,2.5,0" style="fill: rgb(133, 133, 133);"/></g><g id="dot-svg" transform="translate(104.99686, 74.81117)"><path d="M2.5,0A2.5,2.5,0,1,1,-2.5,0A2.5,2.5,0,1,1,2.5,0" style="fill: rgb(133, 133, 133);"/></g><g id="dot-svg" transform="translate(106.81027, 72.78527)"><path d="M2.5,0A2.5,2.5,0,1,1,-2.5,0A2.5,2.5,0,1,1,2.5,0" style="fill: rgb(133, 133, 133);"/></g><g id="dot-svg" transform="translate(103.18344, 79.35411)"><path d="M2.5,0A2.5,2.5,0,1,1,-2.5,0A2.5,2.5,0,1,1,2.5,0" style="fill: rgb(133, 133, 133);"/></g><g id="dot-svg" transform="translate(99.5566, 84.2347)"><path d="M2.5,0A2.5,2.5,0,1,1,-2.5,0A2.5,2.5,0,1,1,2.5,0" style="fill: rgb(133, 133, 133);"/></g><g id="dot-svg" transform="translate(101.37002, 75.3023)"><path d="M2.5,0A2.5,2.5,0,1,1,-2.5,0A2.5,2.5,0,1,1,2.5,0" style="fill: rgb(133, 133, 133);"/></g><g id="dot-svg" transform="translate(104.99686, 83.52871)"><path d="M2.5,0A2.5,2.5,0,1,1,-2.5,0A2.5,2.5,0,1,1,2.5,0" style="fill: rgb(133, 133, 133);"/></g><g id="dot-svg" transform="translate(104.99686, 80.58193)"><path d="M2.5,0A2.5,2.5,0,1,1,-2.5,0A2.5,2.5,0,1,1,2.5,0" style="fill: rgb(133, 133, 133);"/></g><g id="dot-svg" transform="translate(108.62369, 85.49322)"><path d="M2.5,0A2.5,2.5,0,1,1,-2.5,0A2.5,2.5,0,1,1,2.5,0" style="fill: rgb(133, 133, 133);"/></g><g id="dot-svg" transform="translate(117.69078, 87.6726)"><path d="M2.5,0A2.5,2.5,0,1,1,-2.5,0A2.5,2.5,0,1,1,2.5,0" style="fill: rgb(133, 133, 133);"/></g><g id="dot-svg" transform="translate(108.62369, 103.5115)"><path d="M2.5,0A2.5,2.5,0,1,1,-2.5,0A2.5,2.5,0,1,1,2.5,0" style="fill: rgb(133, 133, 133);"/></g><g id="dot-svg" transform="translate(106.81027, 116.6185)"><path d="M2.5,0A2.5,2.5,0,1,1,-2.5,0A2.5,2.5,0,1,1,2.5,0" style="fill: rgb(133, 133, 133);"/></g><g id="dot-svg" transform="translate(97.74319, 147.03778)"><path d="M2.5,0A2.5,2.5,0,1,1,-2.5,0A2.5,2.5,0,1,1,2.5,0" style="fill: rgb(133, 133, 133);"/></g><g id="dot-svg" transform="translate(81.42243, 174.63307)"><path d="M2.5,0A2.5,2.5,0,1,1,-2.5,0A2.5,2.5,0,1,1,2.5,0" style="fill: rgb(133, 133, 133);"/></g><g id="dot-svg" transform="translate(56.03459, 224.05289)"><path d="M2.5,0A2.5,2.5,0,1,1,-2.5,0A2.5,2.5,0,1,1,2.5,0" style="fill: rgb(133, 133, 133);"/></g><g id="dot-svg" transform="translate(28.83333, 268.80699)"><path d="M2.5,0A2.5,2.5,0,1,1,-2.5,0A2.5,2.5,0,1,1,2.5,0" style="fill: rgb(133, 133, 133);"/></g><g id="dot-svg" transform="translate(39.71384, 237.0678)"><path d="M2.5,0A2.5,2.5,0,1,1,-2.5,0A2.5,2.5,0,1,1,2.5,0" style="fill: rgb(133, 133, 133);"/></g><g id="dot-svg" transform="translate(77.7956, 243.85151)"><path d="M2.5,0A2.5,2.5,0,1,1,-2.5,0A2.5,2.5,0,1,1,2.5,0" style="fill: rgb(133, 133, 133);"/></g><g id="dot-svg" transform="translate(83.23585, 232.70903)"><path d="M2.5,0A2.5,2.5,0,1,1,-2.5,0A2.5,2.5,0,1,1,2.5,0" style="fill: rgb(133, 133, 133);"/></g><g id="dot-svg" transform="translate(99.5566, 218.71187)"><path d="M2.5,0A2.5,2.5,0,1,1,-2.5,0A2.5,2.5,0,1,1,2.5,0" style="fill: rgb(133, 133, 133);"/></g><g id="dot-svg" transform="translate(106.81027, 220.21595)"><path d="M2.5,0A2.5,2.5,0,1,1,-2.5,0A2.5,2.5,0,1,1,2.5,0" style="fill: rgb(133, 133, 133);"/></g><g id="dot-svg" transform="translate(97.74319, 241.79491)"><path d="M2.5,0A2.5,2.5,0,1,1,-2.5,0A2.5,2.5,0,1,1,2.5,0" style="fill: rgb(133, 133, 133);"/></g><g id="dot-svg" transform="translate(86.86268, 272.67463)"><path d="M2.5,0A2.5,2.5,0,1,1,-2.5,0A2.5,2.5,0,1,1,2.5,0" style="fill: rgb(133, 133, 133);"/></g><g id="dot-svg" transform="translate(79.60901, 269.26742)"><path d="M2.5,0A2.5,2.5,0,1,1,-2.5,0A2.5,2.5,0,1,1,2.5,0" style="fill: rgb(133, 133, 133);"/></g><g id="dot-svg" transform="translate(79.60901, 266.75039)"><path d="M2.5,0A2.5,2.5,0,1,1,-2.5,0A2.5,2.5,0,1,1,2.5,0" style="fill: rgb(133, 133, 133);"/></g><g id="dot-svg" transform="translate(68.72851, 279.42765)"><path d="M2.5,0A2.5,2.5,0,1,1,-2.5,0A2.5,2.5,0,1,1,2.5,0" style="fill: rgb(133, 133, 133);"/></g><g id="dot-svg" transform="translate(61.47484, 298.73514)"><path d="M2.5,0A2.5,2.5,0,1,1,-2.5,0A2.5,2.5,0,1,1,2.5,0" style="fill: rgb(133, 133, 133);"/></g><g id="dot-svg" transform="translate(88.6761, 245.75464)"><path d="M2.5,0A2.5,2.5,0,1,1,-2.5,0A2.5,2.5,0,1,1,2.5,0" style="fill: rgb(199, 30, 29);"/></g><g id="dot-svg" transform="translate(112.25052, 224.29846)"><path d="M2.5,0A2.5,2.5,0,1,1,-2.5,0A2.5,2.5,0,1,1,2.5,0" style="fill: rgb(199, 30, 29);"/></g><g id="dot-svg" transform="translate(139.45178, 214.69075)"><path d="M2.5,0A2.5,2.5,0,1,1,-2.5,0A2.5,2.5,0,1,1,2.5,0" style="fill: rgb(199, 30, 29);"/></g><g id="dot-svg" transform="translate(139.45178, 214.90562)"><path d="M2.5,0A2.5,2.5,0,1,1,-2.5,0A2.5,2.5,0,1,1,2.5,0" style="fill: rgb(199, 30, 29);"/></g><g id="dot-svg" transform="translate(144.89203, 205.69696)"><path d="M2.5,0A2.5,2.5,0,1,1,-2.5,0A2.5,2.5,0,1,1,2.5,0" style="fill: rgb(199, 30, 29);"/></g><g id="dot-svg" transform="translate(150.33229, 190.16501)"><path d="M2.5,0A2.5,2.5,0,1,1,-2.5,0A2.5,2.5,0,1,1,2.5,0" style="fill: rgb(199, 30, 29);"/></g><g id="dot-svg" transform="translate(164.83962, 187.12616)"><path d="M2.5,0A2.5,2.5,0,1,1,-2.5,0A2.5,2.5,0,1,1,2.5,0" style="fill: rgb(199, 30, 29);"/></g><g id="dot-svg" transform="translate(164.83962, 199.58854)"><path d="M2.5,0A2.5,2.5,0,1,1,-2.5,0A2.5,2.5,0,1,1,2.5,0" style="fill: rgb(199, 30, 29);"/></g><g id="dot-svg" transform="translate(164.83962, 185.49929)"><path d="M2.5,0A2.5,2.5,0,1,1,-2.5,0A2.5,2.5,0,1,1,2.5,0" style="fill: rgb(199, 30, 29);"/></g><g id="dot-svg" transform="translate(175.72013, 158.97834)"><path d="M2.5,0A2.5,2.5,0,1,1,-2.5,0A2.5,2.5,0,1,1,2.5,0" style="fill: rgb(199, 30, 29);"/></g><g id="dot-svg" transform="translate(184.78721, 167.41962)"><path d="M2.5,0A2.5,2.5,0,1,1,-2.5,0A2.5,2.5,0,1,1,2.5,0" style="fill: rgb(199, 30, 29);"/></g><g id="dot-svg" transform="translate(177.53354, 187.74007)"><path d="M2.5,0A2.5,2.5,0,1,1,-2.5,0A2.5,2.5,0,1,1,2.5,0" style="fill: rgb(199, 30, 29);"/></g><g id="dot-svg" transform="translate(186.60063, 149.86177)"><path d="M2.5,0A2.5,2.5,0,1,1,-2.5,0A2.5,2.5,0,1,1,2.5,0" style="fill: rgb(199, 30, 29);"/></g><g id="dot-svg" transform="translate(208.36164, 117.2631)"><path d="M2.5,0A2.5,2.5,0,1,1,-2.5,0A2.5,2.5,0,1,1,2.5,0" style="fill: rgb(199, 30, 29);"/></g><g id="dot-svg" transform="translate(253.69706, 55.50368)"><path d="M2.5,0A2.5,2.5,0,1,1,-2.5,0A2.5,2.5,0,1,1,2.5,0" style="fill: rgb(199, 30, 29);"/></g><g id="dot-svg" transform="translate(255.51048, 94.39493)"><path d="M2.5,0A2.5,2.5,0,1,1,-2.5,0A2.5,2.5,0,1,1,2.5,0" style="fill: rgb(199, 30, 29);"/></g><g id="dot-svg" transform="translate(282.71174, 70.57519)"><path d="M2.5,0A2.5,2.5,0,1,1,-2.5,0A2.5,2.5,0,1,1,2.5,0" style="fill: rgb(199, 30, 29);"/></g><g id="dot-svg" transform="translate(317.16667, 54.70559)"><path d="M2.5,0A2.5,2.5,0,1,1,-2.5,0A2.5,2.5,0,1,1,2.5,0" style="fill: rgb(199, 30, 29);"/></g><g id="dot-svg" transform="translate(268.2044, 95.89901)"><path d="M2.5,0A2.5,2.5,0,1,1,-2.5,0A2.5,2.5,0,1,1,2.5,0" style="fill: rgb(199, 30, 29);"/></g><g id="dot-svg" transform="translate(228.30922, 108.79114)"><path d="M2.5,0A2.5,2.5,0,1,1,-2.5,0A2.5,2.5,0,1,1,2.5,0" style="fill: rgb(199, 30, 29);"/></g><g id="dot-svg" transform="translate(221.05556, 138.07468)"><path d="M2.5,0A2.5,2.5,0,1,1,-2.5,0A2.5,2.5,0,1,1,2.5,0" style="fill: rgb(199, 30, 29);"/></g><g id="dot-svg" transform="translate(211.98847, 129.14228)"><path d="M2.5,0A2.5,2.5,0,1,1,-2.5,0A2.5,2.5,0,1,1,2.5,0" style="fill: rgb(199, 30, 29);"/></g><g id="dot-svg" transform="translate(213.80189, 141.3898)"><path d="M2.5,0A2.5,2.5,0,1,1,-2.5,0A2.5,2.5,0,1,1,2.5,0" style="fill: rgb(199, 30, 29);"/></g><g id="dot-svg" transform="translate(197.48113, 167.02058)"><path d="M2.5,0A2.5,2.5,0,1,1,-2.5,0A2.5,2.5,0,1,1,2.5,0" style="fill: rgb(199, 30, 29);"/></g><g id="dot-svg" transform="translate(201.10797, 160.78938)"><path d="M2.5,0A2.5,2.5,0,1,1,-2.5,0A2.5,2.5,0,1,1,2.5,0" style="fill: rgb(199, 30, 29);"/></g><g id="dot-svg" transform="translate(206.54822, 157.71983)"><path d="M2.5,0A2.5,2.5,0,1,1,-2.5,0A2.5,2.5,0,1,1,2.5,0" style="fill: rgb(199, 30, 29);"/></g><g id="dot-svg" transform="translate(210.17505, 174.60237)"><path d="M2.5,0A2.5,2.5,0,1,1,-2.5,0A2.5,2.5,0,1,1,2.5,0" style="fill: rgb(199, 30, 29);"/></g><g id="dot-svg" transform="translate(211.98847, 165.54719)"><path d="M2.5,0A2.5,2.5,0,1,1,-2.5,0A2.5,2.5,0,1,1,2.5,0" style="fill: rgb(199, 30, 29);"/></g><g id="dot-svg" transform="translate(202.92138, 183.13574)"><path d="M2.5,0A2.5,2.5,0,1,1,-2.5,0A2.5,2.5,0,1,1,2.5,0" style="fill: rgb(199, 30, 29);"/></g><g id="dot-svg" transform="translate(206.54822, 186.26668)"><path d="M2.5,0A2.5,2.5,0,1,1,-2.5,0A2.5,2.5,0,1,1,2.5,0" style="fill: rgb(199, 30, 29);"/></g><g id="dot-svg" transform="translate(210.17505, 169.53761)"><path d="M2.5,0A2.5,2.5,0,1,1,-2.5,0A2.5,2.5,0,1,1,2.5,0" style="fill: rgb(199, 30, 29);"/></g><g id="dot-svg" transform="translate(228.30922, 150.93611)"><path d="M2.5,0A2.5,2.5,0,1,1,-2.5,0A2.5,2.5,0,1,1,2.5,0" style="fill: rgb(199, 30, 29);"/></g><g id="dot-svg" transform="translate(242.81656, 129.11158)"><path d="M2.5,0A2.5,2.5,0,1,1,-2.5,0A2.5,2.5,0,1,1,2.5,0" style="fill: rgb(199, 30, 29);"/></g><g id="dot-svg" transform="translate(233.74948, 139.08763)"><path d="M2.5,0A2.5,2.5,0,1,1,-2.5,0A2.5,2.5,0,1,1,2.5,0" style="fill: rgb(199, 30, 29);"/></g><g id="dot-svg" transform="translate(226.49581, 165.11745)"><path d="M2.5,0A2.5,2.5,0,1,1,-2.5,0A2.5,2.5,0,1,1,2.5,0" style="fill: rgb(199, 30, 29);"/></g><g id="dot-svg" transform="translate(215.6153, 176.19854)"><path d="M2.5,0A2.5,2.5,0,1,1,-2.5,0A2.5,2.5,0,1,1,2.5,0" style="fill: rgb(199, 30, 29);"/></g><g id="dot-svg" transform="translate(217.42872, 172.69925)"><path d="M2.5,0A2.5,2.5,0,1,1,-2.5,0A2.5,2.5,0,1,1,2.5,0" style="fill: rgb(199, 30, 29);"/></g><g id="dot-svg" transform="translate(226.49581, 164.44215)"><path d="M2.5,0A2.5,2.5,0,1,1,-2.5,0A2.5,2.5,0,1,1,2.5,0" style="fill: rgb(199, 30, 29);"/></g><g id="dot-svg" transform="translate(228.30922, 155.1721)"><path d="M2.5,0A2.5,2.5,0,1,1,-2.5,0A2.5,2.5,0,1,1,2.5,0" style="fill: rgb(199, 30, 29);"/></g><g id="dot-svg" transform="translate(239.18973, 142.18788)"><path d="M2.5,0A2.5,2.5,0,1,1,-2.5,0A2.5,2.5,0,1,1,2.5,0" style="fill: rgb(199, 30, 29);"/></g><g id="dot-svg" transform="translate(239.18973, 160.75869)"><path d="M2.5,0A2.5,2.5,0,1,1,-2.5,0A2.5,2.5,0,1,1,2.5,0" style="fill: rgb(199, 30, 29);"/></g><g id="dot-svg" transform="translate(228.30922, 164.16589)"><path d="M2.5,0A2.5,2.5,0,1,1,-2.5,0A2.5,2.5,0,1,1,2.5,0" style="fill: rgb(199, 30, 29);"/></g><g id="dot-svg" transform="translate(233.74948, 161.77164)"><path d="M2.5,0A2.5,2.5,0,1,1,-2.5,0A2.5,2.5,0,1,1,2.5,0" style="fill: rgb(199, 30, 29);"/></g><g id="dot-svg" transform="translate(231.93606, 173.95777)"><path d="M2.5,0A2.5,2.5,0,1,1,-2.5,0A2.5,2.5,0,1,1,2.5,0" style="fill: rgb(199, 30, 29);"/></g><g id="dot-svg" transform="translate(228.30922, 191.17797)"><path d="M2.5,0A2.5,2.5,0,1,1,-2.5,0A2.5,2.5,0,1,1,2.5,0" style="fill: rgb(199, 30, 29);"/></g><g id="dot-svg" transform="translate(230.12264, 186.05181)"><path d="M2.5,0A2.5,2.5,0,1,1,-2.5,0A2.5,2.5,0,1,1,2.5,0" style="fill: rgb(199, 30, 29);"/></g><g id="dot-svg" transform="translate(228.30922, 190.47197)"><path d="M2.5,0A2.5,2.5,0,1,1,-2.5,0A2.5,2.5,0,1,1,2.5,0" style="fill: rgb(199, 30, 29);"/></g><g id="dot-svg" transform="translate(228.30922, 191.27005)"><path d="M2.5,0A2.5,2.5,0,1,1,-2.5,0A2.5,2.5,0,1,1,2.5,0" style="fill: rgb(199, 30, 29);"/></g><g id="dot-svg" transform="translate(231.93606, 178.83836)"><path d="M2.5,0A2.5,2.5,0,1,1,-2.5,0A2.5,2.5,0,1,1,2.5,0" style="fill: rgb(199, 30, 29);"/></g><g id="dot-svg" transform="translate(237.37631, 185.77555)"><path d="M2.5,0A2.5,2.5,0,1,1,-2.5,0A2.5,2.5,0,1,1,2.5,0" style="fill: rgb(199, 30, 29);"/></g><g id="dot-svg" transform="translate(233.74948, 199.61924)"><path d="M2.5,0A2.5,2.5,0,1,1,-2.5,0A2.5,2.5,0,1,1,2.5,0" style="fill: rgb(199, 30, 29);"/></g><g id="dot-svg" transform="translate(230.12264, 216.62457)"><path d="M2.5,0A2.5,2.5,0,1,1,-2.5,0A2.5,2.5,0,1,1,2.5,0" style="fill: rgb(199, 30, 29);"/></g><g id="dot-svg" transform="translate(224.68239, 218.68117)"><path d="M2.5,0A2.5,2.5,0,1,1,-2.5,0A2.5,2.5,0,1,1,2.5,0" style="fill: rgb(199, 30, 29);"/></g><g id="dot-svg" transform="translate(228.30922, 210.76172)"><path d="M2.5,0A2.5,2.5,0,1,1,-2.5,0A2.5,2.5,0,1,1,2.5,0" style="fill: rgb(199, 30, 29);"/></g><g id="dot-svg" transform="translate(228.30922, 203.24131)"><path d="M2.5,0A2.5,2.5,0,1,1,-2.5,0A2.5,2.5,0,1,1,2.5,0" style="fill: rgb(199, 30, 29);"/></g><g id="dot-svg" transform="translate(228.30922, 195.84369)"><path d="M2.5,0A2.5,2.5,0,1,1,-2.5,0A2.5,2.5,0,1,1,2.5,0" style="fill: rgb(199, 30, 29);"/></g><g id="dot-svg" transform="translate(228.30922, 189.79667)"><path d="M2.5,0A2.5,2.5,0,1,1,-2.5,0A2.5,2.5,0,1,1,2.5,0" style="fill: rgb(199, 30, 29);"/></g><g id="dot-svg" transform="translate(228.30922, 192.3137)"><path d="M2.5,0A2.5,2.5,0,1,1,-2.5,0A2.5,2.5,0,1,1,2.5,0" style="fill: rgb(199, 30, 29);"/></g><g id="dot-svg" transform="translate(228.30922, 194.30891)"><path d="M2.5,0A2.5,2.5,0,1,1,-2.5,0A2.5,2.5,0,1,1,2.5,0" style="fill: rgb(199, 30, 29);"/></g><g id="dot-svg" transform="translate(228.30922, 181.47818)"><path d="M2.5,0A2.5,2.5,0,1,1,-2.5,0A2.5,2.5,0,1,1,2.5,0" style="fill: rgb(199, 30, 29);"/></g><g id="dot-svg" transform="translate(295.40566, 50.13196)"><path d="M2.5,0A2.5,2.5,0,1,1,-2.5,0A2.5,2.5,0,1,1,2.5,0" style="fill: rgb(199, 30, 29);"/></g><g id="dot-svg" transform="translate(226.49581, 219.63273)"><path d="M2.5,0A2.5,2.5,0,1,1,-2.5,0A2.5,2.5,0,1,1,2.5,0" style="fill: rgb(199, 30, 29);"/></g><g id="dot-svg" transform="translate(228.30922, 197.47055)"><path d="M2.5,0A2.5,2.5,0,1,1,-2.5,0A2.5,2.5,0,1,1,2.5,0" style="fill: rgb(199, 30, 29);"/></g></g></g></g><g id="front-svg" clip-path="url(#rect-mask-gmwFz9RRcOpbvDMX2lqwK)" transform="translate(0, 96)"><clipPath id="rect-mask-gmwFz9RRcOpbvDMX2lqwK"><rect x="0" y="0" width="375" height="384"/></clipPath><g id="group-svg" transform="translate(26.48828, 0)"><g id="grid-svg"><g id="y-grid-svg"><g id="y-tick-labels-svg number-axis-svg grid-y-svg datawrapper-svubD-rlkgeb-svg" transform="translate(-5, 0)"><text transform="translate(0, 358.01781) translate(-13.74414, 0) translate(13.744140625, 0)" style="text-anchor: end;"><tspan fill="rgb(116, 116, 116)" style="font-family: Roboto; font-weight: 400; font-stretch: 100%; font-size: 12px;" x="0" dominant-baseline="auto" y="0">20</tspan></text><text transform="translate(0, 296.62673) translate(-13.74414, 0) translate(13.744140625, 0)" style="text-anchor: end;"><tspan fill="rgb(116, 116, 116)" style="font-family: Roboto; font-weight: 400; font-stretch: 100%; font-size: 12px;" x="0" dominant-baseline="auto" y="0">40</tspan></text><text transform="translate(0, 235.23565) translate(-13.74414, 0) translate(13.744140625, 0)" style="text-anchor: end;"><tspan fill="rgb(116, 116, 116)" style="font-family: Roboto; font-weight: 400; font-stretch: 100%; font-size: 12px;" x="0" dominant-baseline="auto" y="0">60</tspan></text><text transform="translate(0, 173.84457) translate(-13.74414, 0) translate(13.744140625, 0)" style="text-anchor: end;"><tspan fill="rgb(116, 116, 116)" style="font-family: Roboto; font-weight: 400; font-stretch: 100%; font-size: 12px;" x="0" dominant-baseline="auto" y="0">80</tspan></text><text transform="translate(0, 112.45348) translate(-20.48828, 0) translate(20.48828125, 0)" style="text-anchor: end;"><tspan fill="rgb(116, 116, 116)" style="font-family: Roboto; font-weight: 400; font-stretch: 100%; font-size: 12px;" x="0" dominant-baseline="auto" y="0">100</tspan></text><text transform="translate(0, 51.0624) translate(-20.48828, 0) translate(20.48828125, 0)" style="text-anchor: end;"><tspan fill="rgb(116, 116, 116)" style="font-family: Roboto; font-weight: 400; font-stretch: 100%; font-size: 12px;" x="0" dominant-baseline="auto" y="0">120</tspan></text></g><g id="y-base-lines-svg grid-y-svg datawrapper-svubD-1ro4gsw-svg"><line x1="346" x2="0" y1="0" y2="0" transform="translate(0, 364)" style="fill: none; stroke-width: 1; stroke-linejoin: miter; stroke-linecap: square; stroke: rgb(24, 24, 24);"/></g></g><g id="x-grid-svg"><g id="x-tick-labels-svg number-axis-svg grid-x-svg datawrapper-svubD-inx4wh-svg svelte-qac4x9-svg" transform="translate(0, 369)"><text transform="translate(68.72851, 12) translate(-8.4541, 0) translate(8.4541015625, 0)" style="text-anchor: middle;"><tspan fill="rgb(116, 116, 116)" style="font-family: Roboto; font-weight: 400; font-stretch: 100%; font-size: 12px;" x="0" dominant-baseline="auto" y="0">2.0</tspan></text><text transform="translate(159.39937, 12) translate(-8.4541, 0) translate(8.4541015625, 0)" style="text-anchor: middle;"><tspan fill="rgb(116, 116, 116)" style="font-family: Roboto; font-weight: 400; font-stretch: 100%; font-size: 12px;" x="0" dominant-baseline="auto" y="0">2.5</tspan></text><text transform="translate(250.07023, 12) translate(-8.4541, 0) translate(8.4541015625, 0)" style="text-anchor: middle;"><tspan fill="rgb(116, 116, 116)" style="font-family: Roboto; font-weight: 400; font-stretch: 100%; font-size: 12px;" x="0" dominant-baseline="auto" y="0">3.0</tspan></text><text transform="translate(340.74109, 12) translate(-8.4541, 0) translate(8.4541015625, 0)" style="text-anchor: middle;"><tspan fill="rgb(116, 116, 116)" style="font-family: Roboto; font-weight: 400; font-stretch: 100%; font-size: 12px;" x="0" dominant-baseline="auto" y="0">3.5</tspan></text><g id="highlighted-ticks-svg"/></g><g id="x-base-lines-svg grid-x-svg datawrapper-svubD-1ro4gsw-svg"><line x1="0" x2="0" y1="364" y2="0" style="fill: none; stroke-width: 1; stroke-linejoin: miter; stroke-linecap: square; stroke: rgb(24, 24, 24);"/></g></g></g><g id="labels-svg"><g id="label-svg" transform="translate(226, 225.5)"><g id="May-svg 2025-svg"><text transform="translate(-26.4013671875, 0) translate(26.4013671875, 0)" style="text-anchor: middle;"><tspan x="0" y="12" style="font-family: Roboto; font-weight: 400; font-stretch: 100%; font-size: 12px; stroke: rgb(255, 255, 255); stroke-width: 5; stroke-linejoin: round; stroke-linecap: round;">May 2025</tspan></text><text transform="translate(-26.40137, 0) translate(26.4013671875, 0)" style="text-anchor: middle;"><tspan fill="rgb(24, 24, 24)" style="font-family: Roboto; font-weight: 400; font-stretch: 100%; font-size: 12px;" x="0" y="12">May 2025</tspan></text></g></g><g id="label-svg" transform="translate(222.5, 197)"><g id="Feb-svg 2026-svg"><text transform="translate(-49.8203125, 0) translate(49.8203125, 0)" style="text-anchor: end;"><tspan x="0" y="4.800000000000001" style="font-family: Roboto; font-weight: 400; font-stretch: 100%; font-size: 12px; stroke: rgb(255, 255, 255); stroke-width: 5; stroke-linejoin: round; stroke-linecap: round;">Feb 2026</tspan></text><text transform="translate(-49.82031, 0) translate(49.8203125, 0)" style="text-anchor: end;"><tspan fill="rgb(24, 24, 24)" style="font-family: Roboto; font-weight: 400; font-stretch: 100%; font-size: 12px;" x="0" y="4.800000000000001">Feb 2026</tspan></text></g></g></g><path d="M2.5,0A2.5,2.5,0,1,1,-2.5,0A2.5,2.5,0,1,1,2.5,0" stroke="rgb(24,24,24)" transform="translate(226.49581, 219.63273)" style="fill: none; stroke-width: 1; stroke-linejoin: miter; stroke-linecap: butt; stroke: rgb(24, 24, 24);"/><path d="M2.5,0A2.5,2.5,0,1,1,-2.5,0A2.5,2.5,0,1,1,2.5,0" stroke="rgb(24,24,24)" transform="translate(228.30922, 197.47055)" style="fill: none; stroke-width: 1; stroke-linejoin: miter; stroke-linecap: butt; stroke: rgb(24, 24, 24);"/></g></g><g id="Singapore-svg 95-octane-svg pump-svg price-svg (S$/litre)-svg"><text transform="translate(372.484375, 426.5)" style="text-anchor: end;"><tspan x="0" y="12" style="font-family: Roboto; font-weight: 700; font-stretch: 100%; font-size: 12px; stroke: rgb(255, 255, 255); stroke-width: 2; stroke-linejoin: round; stroke-linecap: round;">Singapore 95-octane</tspan><tspan x="0" y="26" style="font-family: Roboto; font-weight: 700; font-stretch: 100%; font-size: 12px; stroke: rgb(255, 255, 255); stroke-width: 2; stroke-linejoin: round; stroke-linecap: round;">pump price (S$/litre)</tspan></text><text transform="translate(372.484375, 426.5)" style="text-anchor: end;"><tspan fill="rgb(116,116,116)" x="0" y="12" style="font-family: Roboto; font-weight: 700; font-stretch: 100%; font-size: 12px;">Singapore 95-octane</tspan><tspan fill="rgb(116,116,116)" x="0" y="26" style="font-family: Roboto; font-weight: 700; font-stretch: 100%; font-size: 12px;">pump price (S$/litre)</tspan></text></g><g id="Brent-svg crude-svg (US$/barrel)-svg"><text transform="translate(31.984375, 96)"><tspan x="0" y="12" style="font-family: Roboto; font-weight: 700; font-stretch: 100%; font-size: 12px; stroke: rgb(255, 255, 255); stroke-width: 2; stroke-linejoin: round; stroke-linecap: round;">Brent crude </tspan><tspan x="0" y="26" style="font-family: Roboto; font-weight: 700; font-stretch: 100%; font-size: 12px; stroke: rgb(255, 255, 255); stroke-width: 2; stroke-linejoin: round; stroke-linecap: round;">(US$/barrel)</tspan></text><text transform="translate(31.984375, 96)"><tspan fill="rgb(116,116,116)" x="0" y="12" style="font-family: Roboto; font-weight: 700; font-stretch: 100%; font-size: 12px;">Brent crude </tspan><tspan fill="rgb(116,116,116)" x="0" y="26" style="font-family: Roboto; font-weight: 700; font-stretch: 100%; font-size: 12px;">(US$/barrel)</tspan></text></g><circle r="11" cx="11" cy="501" style="fill: none; stroke-width: 1; stroke: rgb(24, 24, 24);"/><text transform="translate(7.546875, 494)"><tspan fill="rgb(24,24,24)" x="0" y="12" style="font-family: Roboto; font-weight: 700; font-stretch: 100%; font-size: 12px;">1</tspan></text><text transform="translate(27, 494)"><tspan fill="rgb(24,24,24)" x="0" y="12" style="font-family: Roboto; font-weight: 400; font-stretch: 100%; font-size: 12px;">2011-2015</tspan></text><circle r="11" cx="11" cy="528" style="fill: none; stroke-width: 1; stroke: rgb(24, 24, 24);"/><text transform="translate(7.546875, 521)"><tspan fill="rgb(24,24,24)" x="0" y="12" style="font-family: Roboto; font-weight: 700; font-stretch: 100%; font-size: 12px;">2</tspan></text><text transform="translate(27, 521)"><tspan fill="rgb(24,24,24)" x="0" y="12" style="font-family: Roboto; font-weight: 400; font-stretch: 100%; font-size: 12px;">2016-2020</tspan></text><circle r="11" cx="11" cy="555" style="fill: none; stroke-width: 1; stroke: rgb(24, 24, 24);"/><text transform="translate(7.546875, 548)"><tspan fill="rgb(24,24,24)" x="0" y="12" style="font-family: Roboto; font-weight: 700; font-stretch: 100%; font-size: 12px;">3</tspan></text><text transform="translate(27, 548)"><tspan fill="rgb(24,24,24)" x="0" y="12" style="font-family: Roboto; font-weight: 400; font-stretch: 100%; font-size: 12px;">2021 onwards</tspan></text><circle r="11" cx="11" cy="582" style="fill: none; stroke-width: 1; stroke: rgb(24, 24, 24);"/><text transform="translate(7.546875, 575)"><tspan fill="rgb(24,24,24)" x="0" y="12" style="font-family: Roboto; font-weight: 700; font-stretch: 100%; font-size: 12px;">4</tspan></text><text transform="translate(27, 575)"><tspan fill="rgb(24,24,24)" x="0" y="12" style="font-family: Roboto; font-weight: 400; font-stretch: 100%; font-size: 12px;">Cluster where pump prices rose when crude hadn't</tspan></text><g id="svelte-1ou6m5y-svg" transform="translate(265.48438, 292)"><g id="callout-line-svg"><path d="M 17.093647228865535,-11 Q 11.51196771985806,-3.193300751501247 1.0416876902748304,-0.2752020235782419" stroke="rgb(24,24,24)" style="fill: none; stroke-width: 1; stroke-linejoin: miter; stroke-linecap: butt; stroke: rgb(24, 24, 24);"/><path d="M-4.75,-3.75 L 0,0 L -4.75,3.75" stroke="rgb(24,24,24)" transform="translate(1.04169, -0.2752) rotate(156.0481878896465)" style="fill: none; stroke-width: 1; stroke-linejoin: miter; stroke-linecap: butt; stroke: rgb(24, 24, 24);"/></g></g><circle r="11" cx="287.484375" cy="270" style="fill: rgb(255, 255, 255); fill-opacity: 0.7; stroke-width: 1; stroke: rgb(24, 24, 24);"/><text transform="translate(284.03125, 262.796875)"><tspan fill="rgb(24,24,24)" x="0" y="12" style="font-family: Roboto; font-weight: 700; font-stretch: 100%; font-size: 12px;">4</tspan></text><circle r="11" cx="199.484375" cy="227" style="fill: rgb(255, 255, 255); fill-opacity: 0.7; stroke-width: 1; stroke: rgb(24, 24, 24);"/><text transform="translate(196.03125, 219.796875)"><tspan fill="rgb(24,24,24)" x="0" y="12" style="font-family: Roboto; font-weight: 700; font-stretch: 100%; font-size: 12px;">3</tspan></text><circle r="11" cx="138.484375" cy="367" style="fill: rgb(255, 255, 255); fill-opacity: 0.7; stroke-width: 1; stroke: rgb(24, 24, 24);"/><text transform="translate(135.03125, 359.796875)"><tspan fill="rgb(24,24,24)" x="0" y="12" style="font-family: Roboto; font-weight: 700; font-stretch: 100%; font-size: 12px;">2</tspan></text><circle r="11" cx="83.484375" cy="244" style="fill: rgb(255, 255, 255); fill-opacity: 0.7; stroke-width: 1; stroke: rgb(24, 24, 24);"/><text transform="translate(80.03125, 236.796875)"><tspan fill="rgb(24,24,24)" x="0" y="12" style="font-family: Roboto; font-weight: 700; font-stretch: 100%; font-size: 12px;">1</tspan></text></g></g></g><g id="container-svg container-footer-svg datawrapper-svubD-1la8dcw-svg"><text transform="translate(0, 613)"><tspan fill="rgb(101,101,101)" x="0" y="12" style="font-family: Roboto; font-weight: 400; font-stretch: 100%; font-style: italic; font-size: 12px;">Singapore pump prices are monthly averages across Shell, Caltex and</tspan><tspan fill="rgb(101,101,101)" x="0" y="26" style="font-family: Roboto; font-weight: 400; font-stretch: 100%; font-style: italic; font-size: 12px;">SPC (Esso and Sinopec included where available). Brent crude prices are</tspan><tspan fill="rgb(101,101,101)" x="0" y="40" style="font-family: Roboto; font-weight: 400; font-stretch: 100%; font-style: italic; font-size: 12px;">monthly averages from the U.S. Energy Information Administration via</tspan><tspan fill="rgb(101,101,101)" x="0" y="54" style="font-family: Roboto; font-weight: 400; font-stretch: 100%; font-style: italic; font-size: 12px;">Federal Reserve Economic Data.</tspan></text><text transform="translate(0, 674)"><tspan fill="rgb(136,136,136)" x="0" y="11" style="font-family: Roboto; font-weight: 400; font-stretch: 100%; font-size: 11px;">Chart:</tspan><tspan fill="rgb(136,136,136)" dx="2.734375" style="font-family: Roboto; font-weight: 400; font-stretch: 100%; font-size: 11px;">Wong Pei Ting</tspan><tspan fill="rgb(136,136,136)" dx="2.739" style="font-family: Roboto; font-weight: 400; font-stretch: 100%; font-size: 11px;">•</tspan><tspan fill="rgb(136,136,136)" dx="2.739" style="font-family: Roboto; font-weight: 400; font-stretch: 100%; font-size: 11px;">Source:</tspan><tspan fill="rgb(136,136,136)" dx="2.734375" style="font-family: Roboto; font-weight: 400; font-stretch: 100%; font-size: 11px;">ChenLim.Com, U.S. Energy Information</tspan><tspan fill="rgb(136,136,136)" x="0" y="24" style="font-family: Roboto; font-weight: 400; font-stretch: 100%; font-size: 11px;">Administration</tspan><tspan fill="rgb(136,136,136)" dx="2.739" style="font-family: Roboto; font-weight: 400; font-stretch: 100%; font-size: 11px;">•</tspan><tspan fill="rgb(136,136,136)" dx="2.739" style="font-family: Roboto; font-weight: 400; font-stretch: 100%; font-size: 11px;">Created with</tspan><tspan fill="rgb(136,136,136)" dx="2.734375" style="font-family: Roboto; font-weight: 400; font-stretch: 100%; font-size: 11px;">Datawrapper</tspan></text></g></g></g></g></g></svg>