<svg xmlns="http://www.w3.org/2000/svg" xmlns:xlink="http://www.w3.org/1999/xlink" id="exportSvg" width="700" height="550"><defs/><g><g><g id="__svelte-dw-svg" clip-path="url(#rect-mask-WSV2Sypi2-qjtQjpJKyn3)"><clipPath id="rect-mask-WSV2Sypi2-qjtQjpJKyn3"><rect x="0" y="0" width="700" height="550"/></clipPath><g id="container-svg container-body-svg datawrapper-svubD-1gvfeww-svg"><g id="container-svg container-bodyTop-svg datawrapper-svubD-lmtz6e-svg"><g id="container-svg container-bodyCenter-svg datawrapper-svubD-1fgvipr-svg"><g id="container-svg container-header-svg datawrapper-svubD-xp3kt5-svg"><text transform="translate(0, 0)"><tspan fill="rgb(0,0,0)" x="0" y="22" style="font-family: Roboto; font-weight: 700; font-stretch: 100%; font-size: 22px;">Signs of 'up fast, down slow'</tspan></text><text transform="translate(0, 35)"><tspan fill="rgb(24,24,24)" x="0" y="14" style="font-family: Roboto; font-weight: 400; font-stretch: 100%; font-size: 14px;">Each dot is one month. In recent years, pump prices have surged with crude oil spikes but appear to have</tspan><tspan fill="rgb(24,24,24)" x="0" y="31" style="font-family: Roboto; font-weight: 400; font-stretch: 100%; font-size: 14px;">become stickier on the way down — a pattern less visible before 2021.</tspan></text></g><g id="chart-svg"><g id="group-svg" clip-path="url(#rect-mask-o9oJSQgudYPN2jy5_PiLg)" transform="translate(0, 79)"><clipPath id="rect-mask-o9oJSQgudYPN2jy5_PiLg"><rect x="0" y="0" width="700" height="405"/></clipPath><g id="group-svg" transform="translate(26.48828, 0)"><g id="grid-svg"><g id="y-grid-svg"><g id="y-grid-lines-svg grid-y-svg datawrapper-svubD-1mqm0ow-svg"><line x1="0" x2="673" y1="0" y2="0" transform="translate(0, 49.77754)" style="fill: none; stroke-width: 1; stroke-linejoin: miter; stroke-linecap: butt; stroke: rgb(231, 231, 231);"/><line x1="0" x2="673" y1="0" y2="0" transform="translate(0, 114.71042)" style="fill: none; stroke-width: 1; stroke-linejoin: miter; stroke-linecap: butt; stroke: rgb(231, 231, 231);"/><line x1="0" x2="673" y1="0" y2="0" transform="translate(0, 179.64329)" style="fill: none; stroke-width: 1; stroke-linejoin: miter; stroke-linecap: butt; stroke: rgb(231, 231, 231);"/><line x1="0" x2="673" y1="0" y2="0" transform="translate(0, 244.57617)" style="fill: none; stroke-width: 1; stroke-linejoin: miter; stroke-linecap: butt; stroke: rgb(231, 231, 231);"/><line x1="0" x2="673" y1="0" y2="0" transform="translate(0, 309.50904)" style="fill: none; stroke-width: 1; stroke-linejoin: miter; stroke-linecap: butt; stroke: rgb(231, 231, 231);"/><line x1="0" x2="673" y1="0" y2="0" transform="translate(0, 374.44191)" style="fill: none; stroke-width: 1; stroke-linejoin: miter; stroke-linecap: butt; stroke: rgb(231, 231, 231);"/></g></g><g id="x-grid-svg"><g id="x-grid-lines-svg grid-x-svg datawrapper-svubD-1mqm0ow-svg"><line x1="0" x2="0" y1="385" y2="0" transform="translate(63.13784, 0)" style="fill: none; stroke-width: 1; stroke-linejoin: miter; stroke-linecap: butt; stroke: rgb(231, 231, 231);"/><line x1="0" x2="0" y1="385" y2="0" transform="translate(133.68291, 0)" style="fill: none; stroke-width: 1; stroke-linejoin: miter; stroke-linecap: butt; stroke: rgb(231, 231, 231);"/><line x1="0" x2="0" y1="385" y2="0" transform="translate(204.22799, 0)" style="fill: none; stroke-width: 1; stroke-linejoin: miter; stroke-linecap: butt; stroke: rgb(231, 231, 231);"/><line x1="0" x2="0" y1="385" y2="0" transform="translate(274.77306, 0)" style="fill: none; stroke-width: 1; stroke-linejoin: miter; stroke-linecap: butt; stroke: rgb(231, 231, 231);"/><line x1="0" x2="0" y1="385" y2="0" transform="translate(345.31813, 0)" style="fill: none; stroke-width: 1; stroke-linejoin: miter; stroke-linecap: butt; stroke: rgb(231, 231, 231);"/><line x1="0" x2="0" y1="385" y2="0" transform="translate(415.86321, 0)" style="fill: none; stroke-width: 1; stroke-linejoin: miter; stroke-linecap: butt; stroke: rgb(231, 231, 231);"/><line x1="0" x2="0" y1="385" y2="0" transform="translate(486.40828, 0)" style="fill: none; stroke-width: 1; stroke-linejoin: miter; stroke-linecap: butt; stroke: rgb(231, 231, 231);"/><line x1="0" x2="0" y1="385" y2="0" transform="translate(556.95335, 0)" style="fill: none; stroke-width: 1; stroke-linejoin: miter; stroke-linecap: butt; stroke: rgb(231, 231, 231);"/><line x1="0" x2="0" y1="385" y2="0" transform="translate(627.49843, 0)" style="fill: none; stroke-width: 1; stroke-linejoin: miter; stroke-linecap: butt; stroke: rgb(231, 231, 231);"/></g></g></g><g id="dots-svg"><g id="dot-svg" transform="translate(101.93763, 339.70283)"><path d="M2.5,0A2.5,2.5,0,1,1,-2.5,0A2.5,2.5,0,1,1,2.5,0" style="fill: rgb(196, 196, 196);"/></g><g id="dot-svg" transform="translate(77.24686, 334.89779)"><path d="M2.5,0A2.5,2.5,0,1,1,-2.5,0A2.5,2.5,0,1,1,2.5,0" style="fill: rgb(196, 196, 196);"/></g><g id="dot-svg" transform="translate(91.35587, 315.32053)"><path d="M2.5,0A2.5,2.5,0,1,1,-2.5,0A2.5,2.5,0,1,1,2.5,0" style="fill: rgb(196, 196, 196);"/></g><g id="dot-svg" transform="translate(87.82862, 304.37934)"><path d="M2.5,0A2.5,2.5,0,1,1,-2.5,0A2.5,2.5,0,1,1,2.5,0" style="fill: rgb(196, 196, 196);"/></g><g id="dot-svg" transform="translate(116.04665, 282.72423)"><path d="M2.5,0A2.5,2.5,0,1,1,-2.5,0A2.5,2.5,0,1,1,2.5,0" style="fill: rgb(196, 196, 196);"/></g><g id="dot-svg" transform="translate(108.99214, 293.04856)"><path d="M2.5,0A2.5,2.5,0,1,1,-2.5,0A2.5,2.5,0,1,1,2.5,0" style="fill: rgb(196, 196, 196);"/></g><g id="dot-svg" transform="translate(98.41038, 290.54864)"><path d="M2.5,0A2.5,2.5,0,1,1,-2.5,0A2.5,2.5,0,1,1,2.5,0" style="fill: rgb(196, 196, 196);"/></g><g id="dot-svg" transform="translate(116.04665, 288.17859)"><path d="M2.5,0A2.5,2.5,0,1,1,-2.5,0A2.5,2.5,0,1,1,2.5,0" style="fill: rgb(196, 196, 196);"/></g><g id="dot-svg" transform="translate(137.21017, 278.60099)"><path d="M2.5,0A2.5,2.5,0,1,1,-2.5,0A2.5,2.5,0,1,1,2.5,0" style="fill: rgb(196, 196, 196);"/></g><g id="dot-svg" transform="translate(140.73742, 292.39923)"><path d="M2.5,0A2.5,2.5,0,1,1,-2.5,0A2.5,2.5,0,1,1,2.5,0" style="fill: rgb(196, 196, 196);"/></g><g id="dot-svg" transform="translate(154.84644, 261.06912)"><path d="M2.5,0A2.5,2.5,0,1,1,-2.5,0A2.5,2.5,0,1,1,2.5,0" style="fill: rgb(196, 196, 196);"/></g><g id="dot-svg" transform="translate(158.37369, 259.12113)"><path d="M2.5,0A2.5,2.5,0,1,1,-2.5,0A2.5,2.5,0,1,1,2.5,0" style="fill: rgb(196, 196, 196);"/></g><g id="dot-svg" transform="translate(172.4827, 258.3744)"><path d="M2.5,0A2.5,2.5,0,1,1,-2.5,0A2.5,2.5,0,1,1,2.5,0" style="fill: rgb(196, 196, 196);"/></g><g id="dot-svg" transform="translate(168.95545, 271.88044)"><path d="M2.5,0A2.5,2.5,0,1,1,-2.5,0A2.5,2.5,0,1,1,2.5,0" style="fill: rgb(196, 196, 196);"/></g><g id="dot-svg" transform="translate(172.4827, 269.15326)"><path d="M2.5,0A2.5,2.5,0,1,1,-2.5,0A2.5,2.5,0,1,1,2.5,0" style="fill: rgb(196, 196, 196);"/></g><g id="dot-svg" transform="translate(172.4827, 274.28296)"><path d="M2.5,0A2.5,2.5,0,1,1,-2.5,0A2.5,2.5,0,1,1,2.5,0" style="fill: rgb(196, 196, 196);"/></g><g id="dot-svg" transform="translate(165.4282, 286.78253)"><path d="M2.5,0A2.5,2.5,0,1,1,-2.5,0A2.5,2.5,0,1,1,2.5,0" style="fill: rgb(196, 196, 196);"/></g><g id="dot-svg" transform="translate(165.4282, 280.58144)"><path d="M2.5,0A2.5,2.5,0,1,1,-2.5,0A2.5,2.5,0,1,1,2.5,0" style="fill: rgb(196, 196, 196);"/></g><g id="dot-svg" transform="translate(172.4827, 271.91291)"><path d="M2.5,0A2.5,2.5,0,1,1,-2.5,0A2.5,2.5,0,1,1,2.5,0" style="fill: rgb(196, 196, 196);"/></g><g id="dot-svg" transform="translate(186.59172, 259.21853)"><path d="M2.5,0A2.5,2.5,0,1,1,-2.5,0A2.5,2.5,0,1,1,2.5,0" style="fill: rgb(196, 196, 196);"/></g><g id="dot-svg" transform="translate(197.17348, 253.1473)"><path d="M2.5,0A2.5,2.5,0,1,1,-2.5,0A2.5,2.5,0,1,1,2.5,0" style="fill: rgb(196, 196, 196);"/></g><g id="dot-svg" transform="translate(214.80975, 235.87516)"><path d="M2.5,0A2.5,2.5,0,1,1,-2.5,0A2.5,2.5,0,1,1,2.5,0" style="fill: rgb(196, 196, 196);"/></g><g id="dot-svg" transform="translate(211.28249, 230.38833)"><path d="M2.5,0A2.5,2.5,0,1,1,-2.5,0A2.5,2.5,0,1,1,2.5,0" style="fill: rgb(196, 196, 196);"/></g><g id="dot-svg" transform="translate(214.80975, 215.09664)"><path d="M2.5,0A2.5,2.5,0,1,1,-2.5,0A2.5,2.5,0,1,1,2.5,0" style="fill: rgb(196, 196, 196);"/></g><g id="dot-svg" transform="translate(211.28249, 225.9729)"><path d="M2.5,0A2.5,2.5,0,1,1,-2.5,0A2.5,2.5,0,1,1,2.5,0" style="fill: rgb(196, 196, 196);"/></g><g id="dot-svg" transform="translate(207.75524, 225.03137)"><path d="M2.5,0A2.5,2.5,0,1,1,-2.5,0A2.5,2.5,0,1,1,2.5,0" style="fill: rgb(196, 196, 196);"/></g><g id="dot-svg" transform="translate(218.337, 205.25931)"><path d="M2.5,0A2.5,2.5,0,1,1,-2.5,0A2.5,2.5,0,1,1,2.5,0" style="fill: rgb(196, 196, 196);"/></g><g id="dot-svg" transform="translate(232.44602, 189.44815)"><path d="M2.5,0A2.5,2.5,0,1,1,-2.5,0A2.5,2.5,0,1,1,2.5,0" style="fill: rgb(196, 196, 196);"/></g><g id="dot-svg" transform="translate(235.97327, 197.79203)"><path d="M2.5,0A2.5,2.5,0,1,1,-2.5,0A2.5,2.5,0,1,1,2.5,0" style="fill: rgb(196, 196, 196);"/></g><g id="dot-svg" transform="translate(239.50052, 198.31149)"><path d="M2.5,0A2.5,2.5,0,1,1,-2.5,0A2.5,2.5,0,1,1,2.5,0" style="fill: rgb(196, 196, 196);"/></g><g id="dot-svg" transform="translate(243.02778, 203.89572)"><path d="M2.5,0A2.5,2.5,0,1,1,-2.5,0A2.5,2.5,0,1,1,2.5,0" style="fill: rgb(196, 196, 196);"/></g><g id="dot-svg" transform="translate(257.13679, 183.24707)"><path d="M2.5,0A2.5,2.5,0,1,1,-2.5,0A2.5,2.5,0,1,1,2.5,0" style="fill: rgb(196, 196, 196);"/></g><g id="dot-svg" transform="translate(271.24581, 176.29925)"><path d="M2.5,0A2.5,2.5,0,1,1,-2.5,0A2.5,2.5,0,1,1,2.5,0" style="fill: rgb(196, 196, 196);"/></g><g id="dot-svg" transform="translate(239.50052, 229.15461)"><path d="M2.5,0A2.5,2.5,0,1,1,-2.5,0A2.5,2.5,0,1,1,2.5,0" style="fill: rgb(196, 196, 196);"/></g><g id="dot-svg" transform="translate(211.28249, 253.1473)"><path d="M2.5,0A2.5,2.5,0,1,1,-2.5,0A2.5,2.5,0,1,1,2.5,0" style="fill: rgb(196, 196, 196);"/></g><g id="dot-svg" transform="translate(200.70073, 246.49169)"><path d="M2.5,0A2.5,2.5,0,1,1,-2.5,0A2.5,2.5,0,1,1,2.5,0" style="fill: rgb(196, 196, 196);"/></g><g id="dot-svg" transform="translate(204.22799, 232.14152)"><path d="M2.5,0A2.5,2.5,0,1,1,-2.5,0A2.5,2.5,0,1,1,2.5,0" style="fill: rgb(196, 196, 196);"/></g><g id="dot-svg" transform="translate(218.337, 224.64177)"><path d="M2.5,0A2.5,2.5,0,1,1,-2.5,0A2.5,2.5,0,1,1,2.5,0" style="fill: rgb(196, 196, 196);"/></g><g id="dot-svg" transform="translate(235.97327, 208.11636)"><path d="M2.5,0A2.5,2.5,0,1,1,-2.5,0A2.5,2.5,0,1,1,2.5,0" style="fill: rgb(196, 196, 196);"/></g><g id="dot-svg" transform="translate(246.55503, 211.39547)"><path d="M2.5,0A2.5,2.5,0,1,1,-2.5,0A2.5,2.5,0,1,1,2.5,0" style="fill: rgb(196, 196, 196);"/></g><g id="dot-svg" transform="translate(228.91876, 233.89471)"><path d="M2.5,0A2.5,2.5,0,1,1,-2.5,0A2.5,2.5,0,1,1,2.5,0" style="fill: rgb(196, 196, 196);"/></g><g id="dot-svg" transform="translate(225.39151, 231.84932)"><path d="M2.5,0A2.5,2.5,0,1,1,-2.5,0A2.5,2.5,0,1,1,2.5,0" style="fill: rgb(196, 196, 196);"/></g><g id="dot-svg" transform="translate(221.86426, 247.69294)"><path d="M2.5,0A2.5,2.5,0,1,1,-2.5,0A2.5,2.5,0,1,1,2.5,0" style="fill: rgb(196, 196, 196);"/></g><g id="dot-svg" transform="translate(232.44602, 235.38816)"><path d="M2.5,0A2.5,2.5,0,1,1,-2.5,0A2.5,2.5,0,1,1,2.5,0" style="fill: rgb(196, 196, 196);"/></g><g id="dot-svg" transform="translate(235.97327, 245.51769)"><path d="M2.5,0A2.5,2.5,0,1,1,-2.5,0A2.5,2.5,0,1,1,2.5,0" style="fill: rgb(196, 196, 196);"/></g><g id="dot-svg" transform="translate(243.02778, 234.15444)"><path d="M2.5,0A2.5,2.5,0,1,1,-2.5,0A2.5,2.5,0,1,1,2.5,0" style="fill: rgb(196, 196, 196);"/></g><g id="dot-svg" transform="translate(253.60954, 220.8432)"><path d="M2.5,0A2.5,2.5,0,1,1,-2.5,0A2.5,2.5,0,1,1,2.5,0" style="fill: rgb(196, 196, 196);"/></g><g id="dot-svg" transform="translate(253.60954, 232.72592)"><path d="M2.5,0A2.5,2.5,0,1,1,-2.5,0A2.5,2.5,0,1,1,2.5,0" style="fill: rgb(196, 196, 196);"/></g><g id="dot-svg" transform="translate(235.97327, 258.6666)"><path d="M2.5,0A2.5,2.5,0,1,1,-2.5,0A2.5,2.5,0,1,1,2.5,0" style="fill: rgb(196, 196, 196);"/></g><g id="dot-svg" transform="translate(197.17348, 329.8655)"><path d="M2.5,0A2.5,2.5,0,1,1,-2.5,0A2.5,2.5,0,1,1,2.5,0" style="fill: rgb(196, 196, 196);"/></g><g id="dot-svg" transform="translate(165.4282, 352.91667)"><path d="M2.5,0A2.5,2.5,0,1,1,-2.5,0A2.5,2.5,0,1,1,2.5,0" style="fill: rgb(196, 196, 196);"/></g><g id="dot-svg" transform="translate(137.21017, 343.9884)"><path d="M2.5,0A2.5,2.5,0,1,1,-2.5,0A2.5,2.5,0,1,1,2.5,0" style="fill: rgb(196, 196, 196);"/></g><g id="dot-svg" transform="translate(137.21017, 308.63245)"><path d="M2.5,0A2.5,2.5,0,1,1,-2.5,0A2.5,2.5,0,1,1,2.5,0" style="fill: rgb(196, 196, 196);"/></g><g id="dot-svg" transform="translate(140.73742, 298.98991)"><path d="M2.5,0A2.5,2.5,0,1,1,-2.5,0A2.5,2.5,0,1,1,2.5,0" style="fill: rgb(196, 196, 196);"/></g><g id="dot-svg" transform="translate(144.26468, 294.11995)"><path d="M2.5,0A2.5,2.5,0,1,1,-2.5,0A2.5,2.5,0,1,1,2.5,0" style="fill: rgb(196, 196, 196);"/></g><g id="dot-svg" transform="translate(144.26468, 306.48966)"><path d="M2.5,0A2.5,2.5,0,1,1,-2.5,0A2.5,2.5,0,1,1,2.5,0" style="fill: rgb(196, 196, 196);"/></g><g id="dot-svg" transform="translate(147.79193, 308.79478)"><path d="M2.5,0A2.5,2.5,0,1,1,-2.5,0A2.5,2.5,0,1,1,2.5,0" style="fill: rgb(196, 196, 196);"/></g><g id="dot-svg" transform="translate(140.73742, 298.40552)"><path d="M2.5,0A2.5,2.5,0,1,1,-2.5,0A2.5,2.5,0,1,1,2.5,0" style="fill: rgb(196, 196, 196);"/></g><g id="dot-svg" transform="translate(151.31918, 277.07507)"><path d="M2.5,0A2.5,2.5,0,1,1,-2.5,0A2.5,2.5,0,1,1,2.5,0" style="fill: rgb(196, 196, 196);"/></g><g id="dot-svg" transform="translate(147.79193, 69.80933)"><path d="M2.5,0A2.5,2.5,0,1,1,-2.5,0A2.5,2.5,0,1,1,2.5,0" style="fill: rgb(133, 133, 133);"/></g><g id="dot-svg" transform="translate(154.84644, 61.27066)"><path d="M2.5,0A2.5,2.5,0,1,1,-2.5,0A2.5,2.5,0,1,1,2.5,0" style="fill: rgb(133, 133, 133);"/></g><g id="dot-svg" transform="translate(151.31918, 82.21151)"><path d="M2.5,0A2.5,2.5,0,1,1,-2.5,0A2.5,2.5,0,1,1,2.5,0" style="fill: rgb(133, 133, 133);"/></g><g id="dot-svg" transform="translate(154.84644, 73.21831)"><path d="M2.5,0A2.5,2.5,0,1,1,-2.5,0A2.5,2.5,0,1,1,2.5,0" style="fill: rgb(133, 133, 133);"/></g><g id="dot-svg" transform="translate(168.95545, 83.9647)"><path d="M2.5,0A2.5,2.5,0,1,1,-2.5,0A2.5,2.5,0,1,1,2.5,0" style="fill: rgb(133, 133, 133);"/></g><g id="dot-svg" transform="translate(165.4282, 79.74406)"><path d="M2.5,0A2.5,2.5,0,1,1,-2.5,0A2.5,2.5,0,1,1,2.5,0" style="fill: rgb(133, 133, 133);"/></g><g id="dot-svg" transform="translate(161.90094, 89.15933)"><path d="M2.5,0A2.5,2.5,0,1,1,-2.5,0A2.5,2.5,0,1,1,2.5,0" style="fill: rgb(133, 133, 133);"/></g><g id="dot-svg" transform="translate(172.4827, 80.03626)"><path d="M2.5,0A2.5,2.5,0,1,1,-2.5,0A2.5,2.5,0,1,1,2.5,0" style="fill: rgb(133, 133, 133);"/></g><g id="dot-svg" transform="translate(186.59172, 51.49826)"><path d="M2.5,0A2.5,2.5,0,1,1,-2.5,0A2.5,2.5,0,1,1,2.5,0" style="fill: rgb(133, 133, 133);"/></g><g id="dot-svg" transform="translate(207.75524, 32.08333)"><path d="M2.5,0A2.5,2.5,0,1,1,-2.5,0A2.5,2.5,0,1,1,2.5,0" style="fill: rgb(133, 133, 133);"/></g><g id="dot-svg" transform="translate(207.75524, 50.5892)"><path d="M2.5,0A2.5,2.5,0,1,1,-2.5,0A2.5,2.5,0,1,1,2.5,0" style="fill: rgb(133, 133, 133);"/></g><g id="dot-svg" transform="translate(176.00996, 80.55572)"><path d="M2.5,0A2.5,2.5,0,1,1,-2.5,0A2.5,2.5,0,1,1,2.5,0" style="fill: rgb(133, 133, 133);"/></g><g id="dot-svg" transform="translate(140.73742, 129.02812)"><path d="M2.5,0A2.5,2.5,0,1,1,-2.5,0A2.5,2.5,0,1,1,2.5,0" style="fill: rgb(133, 133, 133);"/></g><g id="dot-svg" transform="translate(133.68291, 106.30161)"><path d="M2.5,0A2.5,2.5,0,1,1,-2.5,0A2.5,2.5,0,1,1,2.5,0" style="fill: rgb(133, 133, 133);"/></g><g id="dot-svg" transform="translate(172.4827, 71.40019)"><path d="M2.5,0A2.5,2.5,0,1,1,-2.5,0A2.5,2.5,0,1,1,2.5,0" style="fill: rgb(133, 133, 133);"/></g><g id="dot-svg" transform="translate(186.59172, 72.99104)"><path d="M2.5,0A2.5,2.5,0,1,1,-2.5,0A2.5,2.5,0,1,1,2.5,0" style="fill: rgb(133, 133, 133);"/></g><g id="dot-svg" transform="translate(183.06447, 75.84809)"><path d="M2.5,0A2.5,2.5,0,1,1,-2.5,0A2.5,2.5,0,1,1,2.5,0" style="fill: rgb(133, 133, 133);"/></g><g id="dot-svg" transform="translate(158.37369, 85.36076)"><path d="M2.5,0A2.5,2.5,0,1,1,-2.5,0A2.5,2.5,0,1,1,2.5,0" style="fill: rgb(133, 133, 133);"/></g><g id="dot-svg" transform="translate(165.4282, 83.89977)"><path d="M2.5,0A2.5,2.5,0,1,1,-2.5,0A2.5,2.5,0,1,1,2.5,0" style="fill: rgb(133, 133, 133);"/></g><g id="dot-svg" transform="translate(179.53721, 72.66638)"><path d="M2.5,0A2.5,2.5,0,1,1,-2.5,0A2.5,2.5,0,1,1,2.5,0" style="fill: rgb(133, 133, 133);"/></g><g id="dot-svg" transform="translate(211.28249, 61.27066)"><path d="M2.5,0A2.5,2.5,0,1,1,-2.5,0A2.5,2.5,0,1,1,2.5,0" style="fill: rgb(133, 133, 133);"/></g><g id="dot-svg" transform="translate(200.70073, 87.21134)"><path d="M2.5,0A2.5,2.5,0,1,1,-2.5,0A2.5,2.5,0,1,1,2.5,0" style="fill: rgb(133, 133, 133);"/></g><g id="dot-svg" transform="translate(172.4827, 107.40547)"><path d="M2.5,0A2.5,2.5,0,1,1,-2.5,0A2.5,2.5,0,1,1,2.5,0" style="fill: rgb(133, 133, 133);"/></g><g id="dot-svg" transform="translate(165.4282, 106.49641)"><path d="M2.5,0A2.5,2.5,0,1,1,-2.5,0A2.5,2.5,0,1,1,2.5,0" style="fill: rgb(133, 133, 133);"/></g><g id="dot-svg" transform="translate(176.00996, 105.23022)"><path d="M2.5,0A2.5,2.5,0,1,1,-2.5,0A2.5,2.5,0,1,1,2.5,0" style="fill: rgb(133, 133, 133);"/></g><g id="dot-svg" transform="translate(204.22799, 89.64633)"><path d="M2.5,0A2.5,2.5,0,1,1,-2.5,0A2.5,2.5,0,1,1,2.5,0" style="fill: rgb(133, 133, 133);"/></g><g id="dot-svg" transform="translate(204.22799, 79.1272)"><path d="M2.5,0A2.5,2.5,0,1,1,-2.5,0A2.5,2.5,0,1,1,2.5,0" style="fill: rgb(133, 133, 133);"/></g><g id="dot-svg" transform="translate(207.75524, 76.98442)"><path d="M2.5,0A2.5,2.5,0,1,1,-2.5,0A2.5,2.5,0,1,1,2.5,0" style="fill: rgb(133, 133, 133);"/></g><g id="dot-svg" transform="translate(200.70073, 83.93223)"><path d="M2.5,0A2.5,2.5,0,1,1,-2.5,0A2.5,2.5,0,1,1,2.5,0" style="fill: rgb(133, 133, 133);"/></g><g id="dot-svg" transform="translate(193.64623, 89.0944)"><path d="M2.5,0A2.5,2.5,0,1,1,-2.5,0A2.5,2.5,0,1,1,2.5,0" style="fill: rgb(133, 133, 133);"/></g><g id="dot-svg" transform="translate(197.17348, 79.64666)"><path d="M2.5,0A2.5,2.5,0,1,1,-2.5,0A2.5,2.5,0,1,1,2.5,0" style="fill: rgb(133, 133, 133);"/></g><g id="dot-svg" transform="translate(204.22799, 88.34767)"><path d="M2.5,0A2.5,2.5,0,1,1,-2.5,0A2.5,2.5,0,1,1,2.5,0" style="fill: rgb(133, 133, 133);"/></g><g id="dot-svg" transform="translate(204.22799, 85.23089)"><path d="M2.5,0A2.5,2.5,0,1,1,-2.5,0A2.5,2.5,0,1,1,2.5,0" style="fill: rgb(133, 133, 133);"/></g><g id="dot-svg" transform="translate(211.28249, 90.42552)"><path d="M2.5,0A2.5,2.5,0,1,1,-2.5,0A2.5,2.5,0,1,1,2.5,0" style="fill: rgb(133, 133, 133);"/></g><g id="dot-svg" transform="translate(228.91876, 92.73064)"><path d="M2.5,0A2.5,2.5,0,1,1,-2.5,0A2.5,2.5,0,1,1,2.5,0" style="fill: rgb(133, 133, 133);"/></g><g id="dot-svg" transform="translate(211.28249, 109.48332)"><path d="M2.5,0A2.5,2.5,0,1,1,-2.5,0A2.5,2.5,0,1,1,2.5,0" style="fill: rgb(133, 133, 133);"/></g><g id="dot-svg" transform="translate(207.75524, 123.34649)"><path d="M2.5,0A2.5,2.5,0,1,1,-2.5,0A2.5,2.5,0,1,1,2.5,0" style="fill: rgb(133, 133, 133);"/></g><g id="dot-svg" transform="translate(190.11897, 155.52073)"><path d="M2.5,0A2.5,2.5,0,1,1,-2.5,0A2.5,2.5,0,1,1,2.5,0" style="fill: rgb(133, 133, 133);"/></g><g id="dot-svg" transform="translate(158.37369, 184.70806)"><path d="M2.5,0A2.5,2.5,0,1,1,-2.5,0A2.5,2.5,0,1,1,2.5,0" style="fill: rgb(133, 133, 133);"/></g><g id="dot-svg" transform="translate(108.99214, 236.97902)"><path d="M2.5,0A2.5,2.5,0,1,1,-2.5,0A2.5,2.5,0,1,1,2.5,0" style="fill: rgb(133, 133, 133);"/></g><g id="dot-svg" transform="translate(56.08333, 284.31508)"><path d="M2.5,0A2.5,2.5,0,1,1,-2.5,0A2.5,2.5,0,1,1,2.5,0" style="fill: rgb(133, 133, 133);"/></g><g id="dot-svg" transform="translate(77.24686, 250.74479)"><path d="M2.5,0A2.5,2.5,0,1,1,-2.5,0A2.5,2.5,0,1,1,2.5,0" style="fill: rgb(133, 133, 133);"/></g><g id="dot-svg" transform="translate(151.31918, 257.91987)"><path d="M2.5,0A2.5,2.5,0,1,1,-2.5,0A2.5,2.5,0,1,1,2.5,0" style="fill: rgb(133, 133, 133);"/></g><g id="dot-svg" transform="translate(161.90094, 246.13455)"><path d="M2.5,0A2.5,2.5,0,1,1,-2.5,0A2.5,2.5,0,1,1,2.5,0" style="fill: rgb(133, 133, 133);"/></g><g id="dot-svg" transform="translate(193.64623, 231.32986)"><path d="M2.5,0A2.5,2.5,0,1,1,-2.5,0A2.5,2.5,0,1,1,2.5,0" style="fill: rgb(133, 133, 133);"/></g><g id="dot-svg" transform="translate(207.75524, 232.92071)"><path d="M2.5,0A2.5,2.5,0,1,1,-2.5,0A2.5,2.5,0,1,1,2.5,0" style="fill: rgb(133, 133, 133);"/></g><g id="dot-svg" transform="translate(190.11897, 255.74462)"><path d="M2.5,0A2.5,2.5,0,1,1,-2.5,0A2.5,2.5,0,1,1,2.5,0" style="fill: rgb(133, 133, 133);"/></g><g id="dot-svg" transform="translate(168.95545, 288.40586)"><path d="M2.5,0A2.5,2.5,0,1,1,-2.5,0A2.5,2.5,0,1,1,2.5,0" style="fill: rgb(133, 133, 133);"/></g><g id="dot-svg" transform="translate(154.84644, 284.80208)"><path d="M2.5,0A2.5,2.5,0,1,1,-2.5,0A2.5,2.5,0,1,1,2.5,0" style="fill: rgb(133, 133, 133);"/></g><g id="dot-svg" transform="translate(154.84644, 282.13983)"><path d="M2.5,0A2.5,2.5,0,1,1,-2.5,0A2.5,2.5,0,1,1,2.5,0" style="fill: rgb(133, 133, 133);"/></g><g id="dot-svg" transform="translate(133.68291, 295.54847)"><path d="M2.5,0A2.5,2.5,0,1,1,-2.5,0A2.5,2.5,0,1,1,2.5,0" style="fill: rgb(133, 133, 133);"/></g><g id="dot-svg" transform="translate(119.5739, 315.96986)"><path d="M2.5,0A2.5,2.5,0,1,1,-2.5,0A2.5,2.5,0,1,1,2.5,0" style="fill: rgb(133, 133, 133);"/></g><g id="dot-svg" transform="translate(172.4827, 259.93279)"><path d="M2.5,0A2.5,2.5,0,1,1,-2.5,0A2.5,2.5,0,1,1,2.5,0" style="fill: rgb(199, 30, 29);"/></g><g id="dot-svg" transform="translate(218.337, 237.23875)"><path d="M2.5,0A2.5,2.5,0,1,1,-2.5,0A2.5,2.5,0,1,1,2.5,0" style="fill: rgb(199, 30, 29);"/></g><g id="dot-svg" transform="translate(271.24581, 227.07676)"><path d="M2.5,0A2.5,2.5,0,1,1,-2.5,0A2.5,2.5,0,1,1,2.5,0" style="fill: rgb(199, 30, 29);"/></g><g id="dot-svg" transform="translate(271.24581, 227.30402)"><path d="M2.5,0A2.5,2.5,0,1,1,-2.5,0A2.5,2.5,0,1,1,2.5,0" style="fill: rgb(199, 30, 29);"/></g><g id="dot-svg" transform="translate(281.82757, 217.56409)"><path d="M2.5,0A2.5,2.5,0,1,1,-2.5,0A2.5,2.5,0,1,1,2.5,0" style="fill: rgb(199, 30, 29);"/></g><g id="dot-svg" transform="translate(292.40933, 201.13607)"><path d="M2.5,0A2.5,2.5,0,1,1,-2.5,0A2.5,2.5,0,1,1,2.5,0" style="fill: rgb(199, 30, 29);"/></g><g id="dot-svg" transform="translate(320.62736, 197.9219)"><path d="M2.5,0A2.5,2.5,0,1,1,-2.5,0A2.5,2.5,0,1,1,2.5,0" style="fill: rgb(199, 30, 29);"/></g><g id="dot-svg" transform="translate(320.62736, 211.10327)"><path d="M2.5,0A2.5,2.5,0,1,1,-2.5,0A2.5,2.5,0,1,1,2.5,0" style="fill: rgb(199, 30, 29);"/></g><g id="dot-svg" transform="translate(320.62736, 196.20117)"><path d="M2.5,0A2.5,2.5,0,1,1,-2.5,0A2.5,2.5,0,1,1,2.5,0" style="fill: rgb(199, 30, 29);"/></g><g id="dot-svg" transform="translate(341.79088, 168.15017)"><path d="M2.5,0A2.5,2.5,0,1,1,-2.5,0A2.5,2.5,0,1,1,2.5,0" style="fill: rgb(199, 30, 29);"/></g><g id="dot-svg" transform="translate(359.42715, 177.07844)"><path d="M2.5,0A2.5,2.5,0,1,1,-2.5,0A2.5,2.5,0,1,1,2.5,0" style="fill: rgb(199, 30, 29);"/></g><g id="dot-svg" transform="translate(345.31813, 198.57122)"><path d="M2.5,0A2.5,2.5,0,1,1,-2.5,0A2.5,2.5,0,1,1,2.5,0" style="fill: rgb(199, 30, 29);"/></g><g id="dot-svg" transform="translate(362.9544, 158.50764)"><path d="M2.5,0A2.5,2.5,0,1,1,-2.5,0A2.5,2.5,0,1,1,2.5,0" style="fill: rgb(199, 30, 29);"/></g><g id="dot-svg" transform="translate(405.28145, 124.02828)"><path d="M2.5,0A2.5,2.5,0,1,1,-2.5,0A2.5,2.5,0,1,1,2.5,0" style="fill: rgb(199, 30, 29);"/></g><g id="dot-svg" transform="translate(493.46279, 58.70581)"><path d="M2.5,0A2.5,2.5,0,1,1,-2.5,0A2.5,2.5,0,1,1,2.5,0" style="fill: rgb(199, 30, 29);"/></g><g id="dot-svg" transform="translate(496.99004, 99.84079)"><path d="M2.5,0A2.5,2.5,0,1,1,-2.5,0A2.5,2.5,0,1,1,2.5,0" style="fill: rgb(199, 30, 29);"/></g><g id="dot-svg" transform="translate(549.89885, 74.64683)"><path d="M2.5,0A2.5,2.5,0,1,1,-2.5,0A2.5,2.5,0,1,1,2.5,0" style="fill: rgb(199, 30, 29);"/></g><g id="dot-svg" transform="translate(616.91667, 57.86168)"><path d="M2.5,0A2.5,2.5,0,1,1,-2.5,0A2.5,2.5,0,1,1,2.5,0" style="fill: rgb(199, 30, 29);"/></g><g id="dot-svg" transform="translate(521.68082, 101.43164)"><path d="M2.5,0A2.5,2.5,0,1,1,-2.5,0A2.5,2.5,0,1,1,2.5,0" style="fill: rgb(199, 30, 29);"/></g><g id="dot-svg" transform="translate(444.08124, 115.06755)"><path d="M2.5,0A2.5,2.5,0,1,1,-2.5,0A2.5,2.5,0,1,1,2.5,0" style="fill: rgb(199, 30, 29);"/></g><g id="dot-svg" transform="translate(429.97222, 146.04053)"><path d="M2.5,0A2.5,2.5,0,1,1,-2.5,0A2.5,2.5,0,1,1,2.5,0" style="fill: rgb(199, 30, 29);"/></g><g id="dot-svg" transform="translate(412.33595, 136.59279)"><path d="M2.5,0A2.5,2.5,0,1,1,-2.5,0A2.5,2.5,0,1,1,2.5,0" style="fill: rgb(199, 30, 29);"/></g><g id="dot-svg" transform="translate(415.86321, 149.5469)"><path d="M2.5,0A2.5,2.5,0,1,1,-2.5,0A2.5,2.5,0,1,1,2.5,0" style="fill: rgb(199, 30, 29);"/></g><g id="dot-svg" transform="translate(384.11792, 176.65638)"><path d="M2.5,0A2.5,2.5,0,1,1,-2.5,0A2.5,2.5,0,1,1,2.5,0" style="fill: rgb(199, 30, 29);"/></g><g id="dot-svg" transform="translate(391.17243, 170.06569)"><path d="M2.5,0A2.5,2.5,0,1,1,-2.5,0A2.5,2.5,0,1,1,2.5,0" style="fill: rgb(199, 30, 29);"/></g><g id="dot-svg" transform="translate(401.75419, 166.81905)"><path d="M2.5,0A2.5,2.5,0,1,1,-2.5,0A2.5,2.5,0,1,1,2.5,0" style="fill: rgb(199, 30, 29);"/></g><g id="dot-svg" transform="translate(408.8087, 184.67559)"><path d="M2.5,0A2.5,2.5,0,1,1,-2.5,0A2.5,2.5,0,1,1,2.5,0" style="fill: rgb(199, 30, 29);"/></g><g id="dot-svg" transform="translate(412.33595, 175.09799)"><path d="M2.5,0A2.5,2.5,0,1,1,-2.5,0A2.5,2.5,0,1,1,2.5,0" style="fill: rgb(199, 30, 29);"/></g><g id="dot-svg" transform="translate(394.69969, 193.70126)"><path d="M2.5,0A2.5,2.5,0,1,1,-2.5,0A2.5,2.5,0,1,1,2.5,0" style="fill: rgb(199, 30, 29);"/></g><g id="dot-svg" transform="translate(401.75419, 197.01283)"><path d="M2.5,0A2.5,2.5,0,1,1,-2.5,0A2.5,2.5,0,1,1,2.5,0" style="fill: rgb(199, 30, 29);"/></g><g id="dot-svg" transform="translate(408.8087, 179.31863)"><path d="M2.5,0A2.5,2.5,0,1,1,-2.5,0A2.5,2.5,0,1,1,2.5,0" style="fill: rgb(199, 30, 29);"/></g><g id="dot-svg" transform="translate(444.08124, 159.64397)"><path d="M2.5,0A2.5,2.5,0,1,1,-2.5,0A2.5,2.5,0,1,1,2.5,0" style="fill: rgb(199, 30, 29);"/></g><g id="dot-svg" transform="translate(472.29927, 136.56033)"><path d="M2.5,0A2.5,2.5,0,1,1,-2.5,0A2.5,2.5,0,1,1,2.5,0" style="fill: rgb(199, 30, 29);"/></g><g id="dot-svg" transform="translate(454.663, 147.11192)"><path d="M2.5,0A2.5,2.5,0,1,1,-2.5,0A2.5,2.5,0,1,1,2.5,0" style="fill: rgb(199, 30, 29);"/></g><g id="dot-svg" transform="translate(440.55398, 174.64346)"><path d="M2.5,0A2.5,2.5,0,1,1,-2.5,0A2.5,2.5,0,1,1,2.5,0" style="fill: rgb(199, 30, 29);"/></g><g id="dot-svg" transform="translate(419.39046, 186.36384)"><path d="M2.5,0A2.5,2.5,0,1,1,-2.5,0A2.5,2.5,0,1,1,2.5,0" style="fill: rgb(199, 30, 29);"/></g><g id="dot-svg" transform="translate(422.91771, 182.66267)"><path d="M2.5,0A2.5,2.5,0,1,1,-2.5,0A2.5,2.5,0,1,1,2.5,0" style="fill: rgb(199, 30, 29);"/></g><g id="dot-svg" transform="translate(440.55398, 173.9292)"><path d="M2.5,0A2.5,2.5,0,1,1,-2.5,0A2.5,2.5,0,1,1,2.5,0" style="fill: rgb(199, 30, 29);"/></g><g id="dot-svg" transform="translate(444.08124, 164.12433)"><path d="M2.5,0A2.5,2.5,0,1,1,-2.5,0A2.5,2.5,0,1,1,2.5,0" style="fill: rgb(199, 30, 29);"/></g><g id="dot-svg" transform="translate(465.24476, 150.39103)"><path d="M2.5,0A2.5,2.5,0,1,1,-2.5,0A2.5,2.5,0,1,1,2.5,0" style="fill: rgb(199, 30, 29);"/></g><g id="dot-svg" transform="translate(465.24476, 170.03323)"><path d="M2.5,0A2.5,2.5,0,1,1,-2.5,0A2.5,2.5,0,1,1,2.5,0" style="fill: rgb(199, 30, 29);"/></g><g id="dot-svg" transform="translate(444.08124, 173.637)"><path d="M2.5,0A2.5,2.5,0,1,1,-2.5,0A2.5,2.5,0,1,1,2.5,0" style="fill: rgb(199, 30, 29);"/></g><g id="dot-svg" transform="translate(454.663, 171.10462)"><path d="M2.5,0A2.5,2.5,0,1,1,-2.5,0A2.5,2.5,0,1,1,2.5,0" style="fill: rgb(199, 30, 29);"/></g><g id="dot-svg" transform="translate(451.13574, 183.99379)"><path d="M2.5,0A2.5,2.5,0,1,1,-2.5,0A2.5,2.5,0,1,1,2.5,0" style="fill: rgb(199, 30, 29);"/></g><g id="dot-svg" transform="translate(444.08124, 202.20746)"><path d="M2.5,0A2.5,2.5,0,1,1,-2.5,0A2.5,2.5,0,1,1,2.5,0" style="fill: rgb(199, 30, 29);"/></g><g id="dot-svg" transform="translate(447.60849, 196.78557)"><path d="M2.5,0A2.5,2.5,0,1,1,-2.5,0A2.5,2.5,0,1,1,2.5,0" style="fill: rgb(199, 30, 29);"/></g><g id="dot-svg" transform="translate(444.08124, 201.46074)"><path d="M2.5,0A2.5,2.5,0,1,1,-2.5,0A2.5,2.5,0,1,1,2.5,0" style="fill: rgb(199, 30, 29);"/></g><g id="dot-svg" transform="translate(444.08124, 202.30486)"><path d="M2.5,0A2.5,2.5,0,1,1,-2.5,0A2.5,2.5,0,1,1,2.5,0" style="fill: rgb(199, 30, 29);"/></g><g id="dot-svg" transform="translate(451.13574, 189.15596)"><path d="M2.5,0A2.5,2.5,0,1,1,-2.5,0A2.5,2.5,0,1,1,2.5,0" style="fill: rgb(199, 30, 29);"/></g><g id="dot-svg" transform="translate(461.71751, 196.49337)"><path d="M2.5,0A2.5,2.5,0,1,1,-2.5,0A2.5,2.5,0,1,1,2.5,0" style="fill: rgb(199, 30, 29);"/></g><g id="dot-svg" transform="translate(454.663, 211.13574)"><path d="M2.5,0A2.5,2.5,0,1,1,-2.5,0A2.5,2.5,0,1,1,2.5,0" style="fill: rgb(199, 30, 29);"/></g><g id="dot-svg" transform="translate(447.60849, 229.12214)"><path d="M2.5,0A2.5,2.5,0,1,1,-2.5,0A2.5,2.5,0,1,1,2.5,0" style="fill: rgb(199, 30, 29);"/></g><g id="dot-svg" transform="translate(437.02673, 231.29739)"><path d="M2.5,0A2.5,2.5,0,1,1,-2.5,0A2.5,2.5,0,1,1,2.5,0" style="fill: rgb(199, 30, 29);"/></g><g id="dot-svg" transform="translate(444.08124, 222.92105)"><path d="M2.5,0A2.5,2.5,0,1,1,-2.5,0A2.5,2.5,0,1,1,2.5,0" style="fill: rgb(199, 30, 29);"/></g><g id="dot-svg" transform="translate(444.08124, 214.96677)"><path d="M2.5,0A2.5,2.5,0,1,1,-2.5,0A2.5,2.5,0,1,1,2.5,0" style="fill: rgb(199, 30, 29);"/></g><g id="dot-svg" transform="translate(444.08124, 207.14236)"><path d="M2.5,0A2.5,2.5,0,1,1,-2.5,0A2.5,2.5,0,1,1,2.5,0" style="fill: rgb(199, 30, 29);"/></g><g id="dot-svg" transform="translate(444.08124, 200.74648)"><path d="M2.5,0A2.5,2.5,0,1,1,-2.5,0A2.5,2.5,0,1,1,2.5,0" style="fill: rgb(199, 30, 29);"/></g><g id="dot-svg" transform="translate(444.08124, 203.40872)"><path d="M2.5,0A2.5,2.5,0,1,1,-2.5,0A2.5,2.5,0,1,1,2.5,0" style="fill: rgb(199, 30, 29);"/></g><g id="dot-svg" transform="translate(444.08124, 205.51904)"><path d="M2.5,0A2.5,2.5,0,1,1,-2.5,0A2.5,2.5,0,1,1,2.5,0" style="fill: rgb(199, 30, 29);"/></g><g id="dot-svg" transform="translate(444.08124, 191.94807)"><path d="M2.5,0A2.5,2.5,0,1,1,-2.5,0A2.5,2.5,0,1,1,2.5,0" style="fill: rgb(199, 30, 29);"/></g><g id="dot-svg" transform="translate(574.58962, 53.02419)"><path d="M2.5,0A2.5,2.5,0,1,1,-2.5,0A2.5,2.5,0,1,1,2.5,0" style="fill: rgb(199, 30, 29);"/></g><g id="dot-svg" transform="translate(440.55398, 232.30385)"><path d="M2.5,0A2.5,2.5,0,1,1,-2.5,0A2.5,2.5,0,1,1,2.5,0" style="fill: rgb(199, 30, 29);"/></g><g id="dot-svg" transform="translate(444.08124, 208.86308)"><path d="M2.5,0A2.5,2.5,0,1,1,-2.5,0A2.5,2.5,0,1,1,2.5,0" style="fill: rgb(199, 30, 29);"/></g></g></g></g><g id="front-svg" clip-path="url(#rect-mask-uAdZAXJgVhnRJ_ihk9zwh)" transform="translate(0, 79)"><clipPath id="rect-mask-uAdZAXJgVhnRJ_ihk9zwh"><rect x="0" y="0" width="700" height="405"/></clipPath><g id="group-svg" transform="translate(26.48828, 0)"><g id="grid-svg"><g id="y-grid-svg"><g id="y-tick-labels-svg number-axis-svg grid-y-svg datawrapper-svubD-rlkgeb-svg" transform="translate(-5, 0)"><text transform="translate(0, 378.44191) translate(-13.74414, 0) translate(13.744140625, 0)" style="text-anchor: end;"><tspan fill="rgb(116, 116, 116)" style="font-family: Roboto; font-weight: 400; font-stretch: 100%; font-size: 12px;" x="0" dominant-baseline="auto" y="0">20</tspan></text><text transform="translate(0, 313.50904) translate(-13.74414, 0) translate(13.744140625, 0)" style="text-anchor: end;"><tspan fill="rgb(116, 116, 116)" style="font-family: Roboto; font-weight: 400; font-stretch: 100%; font-size: 12px;" x="0" dominant-baseline="auto" y="0">40</tspan></text><text transform="translate(0, 248.57617) translate(-13.74414, 0) translate(13.744140625, 0)" style="text-anchor: end;"><tspan fill="rgb(116, 116, 116)" style="font-family: Roboto; font-weight: 400; font-stretch: 100%; font-size: 12px;" x="0" dominant-baseline="auto" y="0">60</tspan></text><text transform="translate(0, 183.64329) translate(-13.74414, 0) translate(13.744140625, 0)" style="text-anchor: end;"><tspan fill="rgb(116, 116, 116)" style="font-family: Roboto; font-weight: 400; font-stretch: 100%; font-size: 12px;" x="0" dominant-baseline="auto" y="0">80</tspan></text><text transform="translate(0, 118.71042) translate(-20.48828, 0) translate(20.48828125, 0)" style="text-anchor: end;"><tspan fill="rgb(116, 116, 116)" style="font-family: Roboto; font-weight: 400; font-stretch: 100%; font-size: 12px;" x="0" dominant-baseline="auto" y="0">100</tspan></text><text transform="translate(0, 53.77754) translate(-20.48828, 0) translate(20.48828125, 0)" style="text-anchor: end;"><tspan fill="rgb(116, 116, 116)" style="font-family: Roboto; font-weight: 400; font-stretch: 100%; font-size: 12px;" x="0" dominant-baseline="auto" y="0">120</tspan></text></g><g id="y-base-lines-svg grid-y-svg datawrapper-svubD-1ro4gsw-svg"><line x1="673" x2="0" y1="0" y2="0" transform="translate(0, 385)" style="fill: none; stroke-width: 1; stroke-linejoin: miter; stroke-linecap: square; stroke: rgb(24, 24, 24);"/></g></g><g id="x-grid-svg"><g id="x-tick-labels-svg number-axis-svg grid-x-svg datawrapper-svubD-inx4wh-svg svelte-qac4x9-svg" transform="translate(0, 390)"><text transform="translate(63.13784, 12) translate(-8.4541, 0) translate(8.4541015625, 0)" style="text-anchor: middle;"><tspan fill="rgb(116, 116, 116)" style="font-family: Roboto; font-weight: 400; font-stretch: 100%; font-size: 12px;" x="0" dominant-baseline="auto" y="0">1.8</tspan></text><text transform="translate(133.68291, 12) translate(-8.4541, 0) translate(8.4541015625, 0)" style="text-anchor: middle;"><tspan fill="rgb(116, 116, 116)" style="font-family: Roboto; font-weight: 400; font-stretch: 100%; font-size: 12px;" x="0" dominant-baseline="auto" y="0">2.0</tspan></text><text transform="translate(204.22799, 12) translate(-8.4541, 0) translate(8.4541015625, 0)" style="text-anchor: middle;"><tspan fill="rgb(116, 116, 116)" style="font-family: Roboto; font-weight: 400; font-stretch: 100%; font-size: 12px;" x="0" dominant-baseline="auto" y="0">2.2</tspan></text><text transform="translate(274.77306, 12) translate(-8.4541, 0) translate(8.4541015625, 0)" style="text-anchor: middle;"><tspan fill="rgb(116, 116, 116)" style="font-family: Roboto; font-weight: 400; font-stretch: 100%; font-size: 12px;" x="0" dominant-baseline="auto" y="0">2.4</tspan></text><text transform="translate(345.31813, 12) translate(-8.4541, 0) translate(8.4541015625, 0)" style="text-anchor: middle;"><tspan fill="rgb(116, 116, 116)" style="font-family: Roboto; font-weight: 400; font-stretch: 100%; font-size: 12px;" x="0" dominant-baseline="auto" y="0">2.6</tspan></text><text transform="translate(415.86321, 12) translate(-8.4541, 0) translate(8.4541015625, 0)" style="text-anchor: middle;"><tspan fill="rgb(116, 116, 116)" style="font-family: Roboto; font-weight: 400; font-stretch: 100%; font-size: 12px;" x="0" dominant-baseline="auto" y="0">2.8</tspan></text><text transform="translate(486.40828, 12) translate(-8.45412, 0) translate(8.454116821289062, 0)" style="text-anchor: middle;"><tspan fill="rgb(116, 116, 116)" style="font-family: Roboto; font-weight: 400; font-stretch: 100%; font-size: 12px;" x="0" dominant-baseline="auto" y="0">3.0</tspan></text><text transform="translate(556.95335, 12) translate(-8.4541, 0) translate(8.4541015625, 0)" style="text-anchor: middle;"><tspan fill="rgb(116, 116, 116)" style="font-family: Roboto; font-weight: 400; font-stretch: 100%; font-size: 12px;" x="0" dominant-baseline="auto" y="0">3.2</tspan></text><text transform="translate(627.49843, 12) translate(-8.4541, 0) translate(8.4541015625, 0)" style="text-anchor: middle;"><tspan fill="rgb(116, 116, 116)" style="font-family: Roboto; font-weight: 400; font-stretch: 100%; font-size: 12px;" x="0" dominant-baseline="auto" y="0">3.4</tspan></text><g id="highlighted-ticks-svg"/></g><g id="x-base-lines-svg grid-x-svg datawrapper-svubD-1ro4gsw-svg"><line x1="0" x2="0" y1="385" y2="0" style="fill: none; stroke-width: 1; stroke-linejoin: miter; stroke-linecap: square; stroke: rgb(24, 24, 24);"/></g></g></g><g id="labels-svg"><g id="label-svg" transform="translate(441, 237.5)"><g id="May-svg 2025-svg"><text transform="translate(-26.4013671875, 0) translate(26.4013671875, 0)" style="text-anchor: middle;"><tspan x="0" y="12" style="font-family: Roboto; font-weight: 400; font-stretch: 100%; font-size: 12px; stroke: rgb(255, 255, 255); stroke-width: 5; stroke-linejoin: round; stroke-linecap: round;">May 2025</tspan></text><text transform="translate(-26.40137, 0) translate(26.4013671875, 0)" style="text-anchor: middle;"><tspan fill="rgb(24, 24, 24)" style="font-family: Roboto; font-weight: 400; font-stretch: 100%; font-size: 12px;" x="0" y="12">May 2025</tspan></text></g></g><g id="label-svg" transform="translate(438.5, 209)"><g id="Feb-svg 2026-svg"><text transform="translate(-49.8203125, 0) translate(49.8203125, 0)" style="text-anchor: end;"><tspan x="0" y="4.800000000000001" style="font-family: Roboto; font-weight: 400; font-stretch: 100%; font-size: 12px; stroke: rgb(255, 255, 255); stroke-width: 5; stroke-linejoin: round; stroke-linecap: round;">Feb 2026</tspan></text><text transform="translate(-49.82031, 0) translate(49.8203125, 0)" style="text-anchor: end;"><tspan fill="rgb(24, 24, 24)" style="font-family: Roboto; font-weight: 400; font-stretch: 100%; font-size: 12px;" x="0" y="4.800000000000001">Feb 2026</tspan></text></g></g></g><path d="M2.5,0A2.5,2.5,0,1,1,-2.5,0A2.5,2.5,0,1,1,2.5,0" stroke="rgb(24,24,24)" transform="translate(440.55398, 232.30385)" style="fill: none; stroke-width: 1; stroke-linejoin: miter; stroke-linecap: butt; stroke: rgb(24, 24, 24);"/><path d="M2.5,0A2.5,2.5,0,1,1,-2.5,0A2.5,2.5,0,1,1,2.5,0" stroke="rgb(24,24,24)" transform="translate(444.08124, 208.86308)" style="fill: none; stroke-width: 1; stroke-linejoin: miter; stroke-linecap: butt; stroke: rgb(24, 24, 24);"/></g></g><g id="Singapore-svg 95-octane-svg pump-svg price-svg (S$/litre)-svg"><text transform="translate(699.484375, 430.5)" style="text-anchor: end;"><tspan x="0" y="12" style="font-family: Roboto; font-weight: 700; font-stretch: 100%; font-size: 12px; stroke: rgb(255, 255, 255); stroke-width: 2; stroke-linejoin: round; stroke-linecap: round;">Singapore 95-octane</tspan><tspan x="0" y="26" style="font-family: Roboto; font-weight: 700; font-stretch: 100%; font-size: 12px; stroke: rgb(255, 255, 255); stroke-width: 2; stroke-linejoin: round; stroke-linecap: round;">pump price (S$/litre)</tspan></text><text transform="translate(699.484375, 430.5)" style="text-anchor: end;"><tspan fill="rgb(116,116,116)" x="0" y="12" style="font-family: Roboto; font-weight: 700; font-stretch: 100%; font-size: 12px;">Singapore 95-octane</tspan><tspan fill="rgb(116,116,116)" x="0" y="26" style="font-family: Roboto; font-weight: 700; font-stretch: 100%; font-size: 12px;">pump price (S$/litre)</tspan></text></g><g id="Brent-svg crude-svg (US$/barrel)-svg"><text transform="translate(31.984375, 79)"><tspan x="0" y="12" style="font-family: Roboto; font-weight: 700; font-stretch: 100%; font-size: 12px; stroke: rgb(255, 255, 255); stroke-width: 2; stroke-linejoin: round; stroke-linecap: round;">Brent crude </tspan><tspan x="0" y="26" style="font-family: Roboto; font-weight: 700; font-stretch: 100%; font-size: 12px; stroke: rgb(255, 255, 255); stroke-width: 2; stroke-linejoin: round; stroke-linecap: round;">(US$/barrel)</tspan></text><text transform="translate(31.984375, 79)"><tspan fill="rgb(116,116,116)" x="0" y="12" style="font-family: Roboto; font-weight: 700; font-stretch: 100%; font-size: 12px;">Brent crude </tspan><tspan fill="rgb(116,116,116)" x="0" y="26" style="font-family: Roboto; font-weight: 700; font-stretch: 100%; font-size: 12px;">(US$/barrel)</tspan></text></g><g id="svelte-1ou6m5y-svg" transform="translate(491.48438, 286)"><g id="callout-line-svg"><path d="M 48.99999999999997,7.103135388432106 Q 28.267782708310623,8.789165787568729 5.775620081375064,1.9001433830589156" stroke="rgb(24,24,24)" style="fill: none; stroke-width: 2; stroke-linejoin: miter; stroke-linecap: butt; stroke: rgb(24, 24, 24);"/><path d="M-4.75,-3.75 L 0,0 L -4.75,3.75" stroke="rgb(24,24,24)" transform="translate(5.77562, 1.90014) rotate(-165.03644317891258) scale(2)" style="fill: none; stroke-width: 1; stroke-linejoin: miter; stroke-linecap: butt; stroke: rgb(24, 24, 24);"/></g></g><text transform="translate(544.484375, 224)"><tspan fill="rgb(24,24,24)" x="0" y="16" style="font-family: Roboto; font-weight: 400; font-stretch: 100%; font-size: 16px;">Cluster where </tspan><tspan fill="rgb(24,24,24)" x="0" y="35.1875" style="font-family: Roboto; font-weight: 400; font-stretch: 100%; font-size: 16px;">pump prices rose </tspan><tspan fill="rgb(24,24,24)" x="0" y="54.375" style="font-family: Roboto; font-weight: 400; font-stretch: 100%; font-size: 16px;">when crude </tspan><tspan fill="rgb(24,24,24)" x="0" y="73.5625" style="font-family: Roboto; font-weight: 400; font-stretch: 100%; font-size: 16px;">hadn't</tspan></text><text transform="translate(362.8515625, 209)" style="text-anchor: middle;"><tspan fill="rgb(199,30,29)" x="0" y="14" style="font-family: Roboto; font-weight: 400; font-stretch: 100%; font-size: 14px;">2021 onwards</tspan></text><text transform="translate(222.484375, 354)"><tspan fill="rgb(196,196,196)" x="0" y="14" style="font-family: Roboto; font-weight: 400; font-stretch: 100%; font-size: 14px;">2016-2020</tspan></text><text transform="translate(114.484375, 224)"><tspan fill="rgb(133,133,133)" x="0" y="14" style="font-family: Roboto; font-weight: 400; font-stretch: 100%; font-size: 14px;">2011-2015</tspan></text></g></g></g><g id="container-svg container-footer-svg datawrapper-svubD-1la8dcw-svg"><text transform="translate(0, 504)"><tspan fill="rgb(101,101,101)" x="0" y="12" style="font-family: Roboto; font-weight: 400; font-stretch: 100%; font-style: italic; font-size: 12px;">Singapore pump prices are monthly averages across Shell, Caltex and SPC (Esso and Sinopec included where available). Brent crude</tspan><tspan fill="rgb(101,101,101)" x="0" y="26" style="font-family: Roboto; font-weight: 400; font-stretch: 100%; font-style: italic; font-size: 12px;">prices are monthly averages from the U.S. Energy Information Administration via Federal Reserve Economic Data.</tspan></text><text transform="translate(0, 537)"><tspan fill="rgb(136,136,136)" x="0" y="11" style="font-family: Roboto; font-weight: 400; font-stretch: 100%; font-size: 11px;">Chart:</tspan><tspan fill="rgb(136,136,136)" dx="2.734375" style="font-family: Roboto; font-weight: 400; font-stretch: 100%; font-size: 11px;">Wong Pei Ting</tspan><tspan fill="rgb(136,136,136)" dx="2.739" style="font-family: Roboto; font-weight: 400; font-stretch: 100%; font-size: 11px;">•</tspan><tspan fill="rgb(136,136,136)" dx="2.739" style="font-family: Roboto; font-weight: 400; font-stretch: 100%; font-size: 11px;">Source:</tspan><tspan fill="rgb(136,136,136)" dx="2.734375" style="font-family: Roboto; font-weight: 400; font-stretch: 100%; font-size: 11px;">ChenLim.Com, U.S. Energy Information Administration</tspan><tspan fill="rgb(136,136,136)" dx="2.739" style="font-family: Roboto; font-weight: 400; font-stretch: 100%; font-size: 11px;">•</tspan><tspan fill="rgb(136,136,136)" dx="2.739" style="font-family: Roboto; font-weight: 400; font-stretch: 100%; font-size: 11px;">Created with</tspan><tspan fill="rgb(136,136,136)" dx="2.734375" style="font-family: Roboto; font-weight: 400; font-stretch: 100%; font-size: 11px;">Datawrapper</tspan></text></g></g></g></g></g></svg>